<?xml version="1.0" encoding="utf-8"?>
<!-- Generator: Adobe Illustrator 22.1.0, SVG Export Plug-In . SVG Version: 6.00 Build 0)  -->
<svg version="1.1" id="Layer_1" xmlns="http://www.w3.org/2000/svg" xmlns:xlink="http://www.w3.org/1999/xlink" x="0px" y="0px"
	 viewBox="0 0 221.08 245.93" style="enable-background:new 0 0 221.08 245.93;" xml:space="preserve">
<style type="text/css">
	.st0{fill:#5A8461;}
	.st1{display:none;}
</style>
<g id="illu">
	<g>
		<path class="st0" d="M98.57,19.64c0,0-0.83-8.61,4.36-11.56c5.2-2.95,12.26-2.49,16,0s5.61,10.66,5.61,10.66L98.57,19.64z"/>
		<g>
			<path class="st0" d="M209.34,182.72c-4.51-0.27-7.08-5.36-9.57-10.28c-2.25-4.44-4.57-9.04-7.99-9.27
				c-3.71-0.22-6.87,4.61-9.96,9.3c-3.38,5.14-6.87,10.47-11.63,10.07c-4.36-0.34-6.8-5.19-9.17-9.88c-2.1-4.17-4.28-8.48-7.47-8.67
				c-3.36-0.17-6.15,4.13-8.88,8.31c-3.05,4.66-6.14,9.47-10.66,9.24c-4.47-0.24-7.07-5.36-9.59-10.31
				c-2.27-4.46-4.61-9.07-7.95-9.24c-3.28-0.12-6.1,4.1-8.8,8.23c-3,4.6-6.2,9.39-10.55,9.13c-4.47-0.23-7.06-5.33-9.56-10.26
				c-2.26-4.46-4.61-9.07-7.98-9.28c-3.58-0.27-6.53,4.38-9.44,8.83c-3.21,4.89-6.56,9.92-11.14,9.63
				c-4.33-0.31-6.78-5.15-9.15-9.84c-2.11-4.18-4.29-8.5-7.49-8.71c-3.38-0.25-6.21,4.17-8.98,8.41c-3.09,4.72-6.35,9.56-10.79,9.35
				c-4.43-0.25-6.99-5.28-9.45-10.15c-2.23-4.4-4.53-8.95-7.89-9.16c-0.88-0.06-1.74,0.19-2.57,0.67c0.45,4.55,0.97,8.94,1.59,13.07
				c0.36-0.04,0.73-0.07,1.1-0.05c4.47,0.29,7.03,5.34,9.5,10.23c2.22,4.37,4.51,8.9,7.82,9.08c3.3,0.17,6.26-4.21,9.04-8.47
				c3.08-4.7,6.26-9.58,10.74-9.29c4.31,0.27,6.75,5.1,9.11,9.78c2.12,4.2,4.31,8.54,7.54,8.77c0.09,0.01,0.18,0.01,0.27,0.01
				c3.34,0,6.27-4.45,9.1-8.76c3.23-4.91,6.58-9.98,11.2-9.71c4.5,0.28,7.09,5.39,9.61,10.34c2.25,4.44,4.58,9.02,7.92,9.2
				c0.06,0,0.13,0,0.19,0c3.24,0,5.97-4.19,8.62-8.25c3-4.6,6.08-9.37,10.54-9.12c4.47,0.23,7.07,5.35,9.59,10.31
				c2.27,4.46,4.61,9.07,7.95,9.24c3.37,0.21,6.18-4.16,8.92-8.35c3.04-4.65,6.21-9.45,10.64-9.19c4.31,0.26,6.74,5.08,9.09,9.75
				c2.12,4.21,4.31,8.55,7.57,8.81c3.57,0.28,6.77-4.54,9.85-9.2c3.4-5.16,6.95-10.49,11.73-10.17c4.53,0.31,7.1,5.41,9.6,10.34
				c2.24,4.43,4.55,9.01,7.94,9.21c0.31,0.01,0.61-0.05,0.91-0.11c1.78-4.13,3.27-9.57,4.5-15.93
				C213.22,181.9,211.41,182.84,209.34,182.72z"/>
			<path class="st0" d="M79.58,95.28c-3.58-0.27-6.53,4.38-9.44,8.83c-3.21,4.89-6.56,9.93-11.14,9.63
				c-4.33-0.31-6.78-5.15-9.15-9.84c-2.11-4.18-4.29-8.5-7.49-8.71c-3.38-0.23-6.21,4.17-8.98,8.41c-3.09,4.72-6.35,9.58-10.79,9.35
				c-4.43-0.25-6.99-5.28-9.45-10.15c-2.23-4.4-4.53-8.95-7.89-9.16c-1.7-0.11-3.29,0.93-4.8,2.53C0.4,101.01,0.4,106,0.44,111.08
				c1.48-1.19,3.09-1.9,4.94-1.79c4.47,0.29,7.03,5.34,9.5,10.23c2.22,4.37,4.51,8.9,7.82,9.08c3.3,0.18,6.26-4.21,9.04-8.47
				c3.08-4.7,6.26-9.57,10.74-9.29c4.31,0.27,6.75,5.1,9.11,9.78c2.12,4.2,4.31,8.54,7.54,8.77c3.53,0.3,6.46-4.33,9.36-8.75
				c3.23-4.91,6.58-9.96,11.2-9.71c4.5,0.28,7.09,5.39,9.61,10.34c2.25,4.44,4.58,9.02,7.92,9.2c0.06,0,0.13,0,0.19,0
				c3.24,0,5.97-4.19,8.62-8.25c3-4.6,6.08-9.38,10.54-9.12c4.47,0.23,7.07,5.35,9.59,10.31c2.27,4.46,4.61,9.07,7.95,9.24
				c3.37,0.18,6.18-4.16,8.92-8.35c3.04-4.65,6.21-9.47,10.64-9.19c4.31,0.26,6.74,5.08,9.09,9.75c2.12,4.21,4.31,8.55,7.57,8.81
				c3.57,0.26,6.77-4.54,9.85-9.2c3.4-5.16,6.95-10.5,11.73-10.17c4.53,0.31,7.1,5.41,9.6,10.34c2.24,4.43,4.55,9.01,7.94,9.21
				c3.52,0.16,6.53-4.38,9.44-8.82c0.4-0.61,0.8-1.23,1.21-1.84c0.17-4.92,0.29-9.82,0.37-14.61c-3.2,4.88-6.53,9.9-11.15,9.62
				c-4.51-0.27-7.08-5.36-9.57-10.28c-2.25-4.44-4.57-9.04-7.99-9.27c-3.71-0.22-6.87,4.61-9.96,9.3
				c-3.38,5.14-6.87,10.48-11.63,10.07c-4.36-0.34-6.8-5.19-9.17-9.88c-2.1-4.17-4.28-8.48-7.47-8.67
				c-3.36-0.17-6.15,4.13-8.88,8.31c-3.05,4.66-6.14,9.5-10.66,9.24c-4.47-0.24-7.07-5.36-9.59-10.31
				c-0.89-1.74-1.78-3.49-2.75-5.01c-3.55,0.04-7.41,0.06-11.28,0.06c-0.93,1.22-1.83,2.58-2.72,3.94c-3,4.6-6.2,9.37-10.55,9.13
				c-4.47-0.23-7.06-5.33-9.56-10.26c-0.55-1.08-1.1-2.16-1.67-3.19c-0.85-0.05-1.52-0.1-1.94-0.15c-3.08-0.41-4.23-2.76-3.83-5.81
				C79.94,95.36,79.77,95.29,79.58,95.28z"/>
			<path class="st0" d="M209.34,135.79c-4.51-0.27-7.08-5.36-9.57-10.28c-2.25-4.44-4.57-9.04-7.99-9.27
				c-3.71-0.21-6.87,4.61-9.96,9.3c-3.38,5.14-6.87,10.47-11.63,10.07c-4.36-0.34-6.8-5.19-9.17-9.88c-2.1-4.17-4.28-8.48-7.47-8.67
				c-3.36-0.16-6.15,4.13-8.88,8.31c-3.05,4.66-6.14,9.49-10.66,9.24c-4.47-0.24-7.07-5.36-9.59-10.31
				c-2.27-4.46-4.61-9.07-7.95-9.24c-3.28-0.13-6.1,4.1-8.8,8.23c-3,4.6-6.2,9.39-10.55,9.13c-4.47-0.23-7.06-5.33-9.56-10.26
				c-2.26-4.46-4.61-9.07-7.98-9.28c-3.58-0.25-6.53,4.38-9.44,8.83c-3.21,4.89-6.56,9.94-11.14,9.63
				c-4.33-0.31-6.78-5.15-9.15-9.84c-2.11-4.18-4.29-8.5-7.49-8.71c-3.38-0.24-6.21,4.17-8.98,8.41c-3.09,4.72-6.35,9.57-10.79,9.35
				c-4.43-0.25-6.99-5.28-9.45-10.15c-2.23-4.4-4.53-8.95-7.89-9.16c-1.69-0.11-3.28,0.93-4.79,2.52c0.05,4.22,0.14,8.48,0.26,12.74
				c1.4-1.05,2.92-1.67,4.65-1.56c4.47,0.29,7.03,5.34,9.5,10.23c2.22,4.37,4.51,8.9,7.82,9.08c3.3,0.17,6.26-4.21,9.04-8.47
				c3.08-4.7,6.26-9.58,10.74-9.29c4.31,0.27,6.75,5.1,9.11,9.78c2.12,4.2,4.31,8.54,7.54,8.77c3.53,0.29,6.46-4.33,9.36-8.75
				c3.23-4.91,6.58-9.97,11.2-9.71c4.5,0.28,7.09,5.39,9.61,10.34c2.25,4.44,4.58,9.02,7.92,9.2c0.06,0,0.13,0,0.19,0
				c3.24,0,5.97-4.19,8.62-8.25c3-4.6,6.08-9.39,10.54-9.12c4.47,0.23,7.07,5.35,9.59,10.31c2.27,4.46,4.61,9.07,7.95,9.24
				c3.37,0.21,6.18-4.16,8.92-8.35c3.04-4.65,6.21-9.46,10.64-9.19c4.31,0.26,6.74,5.08,9.09,9.75c2.12,4.21,4.31,8.55,7.57,8.81
				c3.57,0.27,6.77-4.54,9.85-9.2c3.4-5.16,6.95-10.49,11.73-10.17c4.53,0.31,7.1,5.41,9.6,10.34c2.24,4.43,4.55,9.01,7.94,9.21
				c3.52,0.18,6.53-4.38,9.44-8.82c0.15-0.22,0.3-0.45,0.44-0.68c0.25-4.31,0.46-8.68,0.63-13.04
				C216.93,131.56,213.72,136.04,209.34,135.79z"/>
			<path class="st0" d="M14.89,197.73c2.22,4.37,4.51,8.9,7.82,9.08c3.3,0.15,6.26-4.21,9.04-8.47c3.08-4.71,6.26-9.56,10.74-9.29
				c4.31,0.27,6.75,5.1,9.11,9.78c2.12,4.2,4.31,8.54,7.54,8.77c3.53,0.3,6.46-4.33,9.36-8.75c3.23-4.91,6.58-9.96,11.2-9.71
				c4.5,0.28,7.09,5.39,9.61,10.34c2.25,4.44,4.58,9.02,7.92,9.2c0.06,0,0.13,0,0.19,0c3.24,0,5.97-4.19,8.62-8.25
				c3-4.6,6.08-9.37,10.54-9.12c4.47,0.23,7.07,5.35,9.59,10.31c2.27,4.46,4.61,9.07,7.95,9.24c3.37,0.19,6.18-4.16,8.92-8.35
				c3.04-4.65,6.21-9.48,10.64-9.19c4.31,0.26,6.74,5.08,9.09,9.75c2.12,4.21,4.31,8.55,7.57,8.81c3.57,0.28,6.77-4.54,9.85-9.2
				c3.4-5.16,6.95-10.51,11.73-10.17c4.53,0.31,7.1,5.41,9.6,10.34c0.76,1.5,1.52,3,2.34,4.35c2.04-2.76,3.87-5.64,5.45-8.64
				c0.03-0.06,0.06-0.13,0.09-0.19c-0.02,0-0.04,0-0.07,0c-4.51-0.27-7.08-5.36-9.57-10.28c-2.25-4.44-4.57-9.04-7.99-9.27
				c-3.71-0.23-6.87,4.6-9.96,9.3c-3.38,5.14-6.87,10.47-11.63,10.07c-4.36-0.34-6.8-5.19-9.17-9.88c-2.1-4.17-4.28-8.48-7.47-8.67
				c-3.36-0.15-6.15,4.13-8.88,8.31c-3.05,4.66-6.14,9.5-10.66,9.24c-4.47-0.24-7.07-5.36-9.59-10.31
				c-2.27-4.46-4.61-9.07-7.95-9.24c-3.28-0.12-6.1,4.1-8.8,8.23c-3,4.6-6.2,9.37-10.55,9.13c-4.47-0.23-7.06-5.33-9.56-10.26
				c-2.26-4.46-4.61-9.07-7.98-9.28c-0.08-0.01-0.16-0.01-0.24-0.01c-3.4,0-6.35,4.49-9.2,8.84c-3.21,4.89-6.56,9.94-11.14,9.63
				c-4.33-0.31-6.78-5.15-9.15-9.84c-2.11-4.18-4.29-8.5-7.49-8.71c-3.38-0.25-6.21,4.17-8.98,8.41c-3.09,4.72-6.35,9.59-10.79,9.35
				c-4.43-0.25-6.99-5.28-9.45-10.15c-2.23-4.4-4.53-8.95-7.89-9.16c-0.23-0.01-0.45-0.01-0.68,0.02
				c0.83,5.24,1.81,10.04,2.96,14.24C10.73,189.55,12.84,193.69,14.89,197.73z"/>
			<path class="st0" d="M97.22,112.86c0.06,0,0.13,0,0.19,0c3.24,0,5.97-4.19,8.62-8.25c0.63-0.97,1.27-1.94,1.92-2.88
				c-7.72-0.02-15.16-0.11-19.78-0.27c0.38,0.73,0.76,1.46,1.13,2.2C91.56,108.1,93.89,112.69,97.22,112.86z"/>
			<path class="st0" d="M209.34,151.43c-4.51-0.27-7.08-5.36-9.57-10.28c-2.25-4.44-4.57-9.04-7.99-9.27
				c-3.71-0.23-6.87,4.6-9.96,9.3c-3.38,5.14-6.87,10.48-11.63,10.07c-4.36-0.34-6.8-5.19-9.17-9.88c-2.1-4.17-4.28-8.48-7.47-8.67
				c-3.36-0.15-6.15,4.13-8.88,8.31c-3.05,4.66-6.14,9.51-10.66,9.24c-4.47-0.24-7.07-5.36-9.59-10.31
				c-2.27-4.46-4.61-9.07-7.95-9.24c-3.28-0.13-6.1,4.1-8.8,8.23c-3,4.6-6.2,9.37-10.55,9.13c-4.47-0.23-7.06-5.33-9.56-10.26
				c-2.26-4.46-4.61-9.07-7.98-9.28c-3.58-0.27-6.53,4.38-9.44,8.83c-3.21,4.89-6.56,9.93-11.14,9.63
				c-4.33-0.31-6.78-5.15-9.15-9.84c-2.11-4.18-4.29-8.5-7.49-8.71c-3.38-0.24-6.21,4.17-8.98,8.41c-3.09,4.72-6.35,9.59-10.79,9.35
				c-4.43-0.25-6.99-5.28-9.45-10.15c-2.23-4.4-4.53-8.95-7.89-9.16c-1.56-0.11-3.03,0.77-4.44,2.16c0.14,4.25,0.33,8.48,0.57,12.65
				c1.22-0.77,2.54-1.2,4-1.11c4.47,0.29,7.03,5.34,9.5,10.23c2.22,4.37,4.51,8.9,7.82,9.08c3.3,0.15,6.26-4.21,9.04-8.47
				c3.08-4.71,6.26-9.56,10.74-9.29c4.31,0.27,6.75,5.1,9.11,9.78c2.12,4.2,4.31,8.54,7.54,8.77c3.53,0.31,6.46-4.33,9.36-8.75
				c3.23-4.91,6.58-9.99,11.2-9.71c4.5,0.28,7.09,5.39,9.61,10.34c2.25,4.44,4.58,9.02,7.92,9.2c0.06,0,0.13,0,0.19,0
				c3.24,0,5.97-4.19,8.62-8.25c3-4.6,6.08-9.39,10.54-9.12c4.47,0.23,7.07,5.35,9.59,10.31c2.27,4.46,4.61,9.07,7.95,9.24
				c3.37,0.2,6.18-4.16,8.92-8.35c3.04-4.65,6.21-9.48,10.64-9.19c4.31,0.26,6.74,5.08,9.09,9.75c2.12,4.21,4.31,8.55,7.57,8.81
				c3.57,0.27,6.77-4.54,9.85-9.2c3.4-5.16,6.95-10.51,11.73-10.17c4.53,0.31,7.1,5.41,9.6,10.34c2.24,4.43,4.55,9.01,7.94,9.21
				c3.15,0.14,5.91-3.5,8.54-7.46c0.43-4.46,0.79-9.07,1.1-13.78C216.31,148.02,213.3,151.67,209.34,151.43z"/>
			<path class="st0" d="M14.89,166.45c2.22,4.37,4.51,8.9,7.82,9.08c3.3,0.18,6.26-4.21,9.04-8.47c3.08-4.7,6.26-9.57,10.74-9.29
				c4.31,0.27,6.75,5.1,9.11,9.78c2.12,4.2,4.31,8.54,7.54,8.77c3.53,0.29,6.46-4.33,9.36-8.75c3.23-4.91,6.58-9.97,11.2-9.71
				c4.5,0.28,7.09,5.39,9.61,10.34c2.25,4.44,4.58,9.02,7.92,9.2c0.06,0,0.13,0,0.19,0c3.24,0,5.97-4.19,8.62-8.25
				c3-4.6,6.08-9.36,10.54-9.12c4.47,0.23,7.07,5.35,9.59,10.31c2.27,4.46,4.61,9.07,7.95,9.24c3.37,0.18,6.18-4.16,8.92-8.35
				c3.04-4.65,6.21-9.47,10.64-9.19c4.31,0.26,6.74,5.08,9.09,9.75c2.12,4.21,4.31,8.55,7.57,8.81c3.57,0.27,6.77-4.54,9.85-9.2
				c3.4-5.16,6.95-10.5,11.73-10.17c4.53,0.31,7.1,5.41,9.6,10.34c2.24,4.43,4.55,9.01,7.94,9.21c2.19,0.11,4.18-1.61,6.08-4
				c0.8-4.67,1.48-9.75,2.05-15.1c-2.38,3.17-4.99,5.61-8.25,5.41c-4.51-0.27-7.08-5.36-9.57-10.28c-2.25-4.44-4.57-9.04-7.99-9.27
				c-3.71-0.24-6.87,4.61-9.96,9.3c-3.38,5.14-6.87,10.48-11.63,10.07c-4.36-0.34-6.8-5.19-9.17-9.88c-2.1-4.17-4.28-8.48-7.47-8.67
				c-3.36-0.18-6.15,4.13-8.88,8.31c-3.05,4.66-6.14,9.49-10.66,9.24c-4.47-0.24-7.07-5.36-9.59-10.31
				c-2.27-4.46-4.61-9.07-7.95-9.24c-3.28-0.13-6.1,4.1-8.8,8.23c-3,4.6-6.2,9.36-10.55,9.13c-4.47-0.23-7.06-5.33-9.56-10.26
				c-2.26-4.46-4.61-9.07-7.98-9.28c-0.08-0.01-0.16-0.01-0.24-0.01c-3.4,0-6.35,4.49-9.2,8.84c-3.21,4.89-6.56,9.93-11.14,9.63
				c-4.33-0.31-6.78-5.15-9.15-9.84c-2.11-4.18-4.29-8.5-7.49-8.71c-3.38-0.24-6.21,4.17-8.98,8.41c-3.09,4.72-6.35,9.58-10.79,9.35
				c-4.43-0.25-6.99-5.28-9.45-10.15c-2.23-4.4-4.53-8.95-7.89-9.16c-1.31-0.08-2.54,0.51-3.74,1.51c0.27,4.34,0.59,8.59,0.97,12.72
				c0.9-0.39,1.86-0.6,2.9-0.54C9.85,156.5,12.41,161.56,14.89,166.45z"/>
			<path class="st0" d="M140.67,95.79c0.26,2.86-0.92,5.03-3.87,5.42c-1.59,0.21-6.56,0.36-12.85,0.44c0.77,1.32,1.5,2.74,2.22,4.15
				c2.27,4.46,4.61,9.07,7.95,9.24c3.37,0.21,6.18-4.16,8.92-8.35c3.04-4.65,6.21-9.47,10.64-9.19c0.67,0.04,1.29,0.23,1.87,0.47
				c-1.25-5.61-3.39-10.28-6.09-14.15c-1.67,1.61-3.24,3.98-4.78,6.35C143.39,92.14,142.09,94.15,140.67,95.79z"/>
			<path class="st0" d="M79.58,234.12c-3.02-0.24-5.59,3.05-8.08,6.76c5.28,1.39,10.78,2.51,16.48,3.34
				c-0.14-0.27-0.28-0.54-0.42-0.82C85.3,238.94,82.96,234.33,79.58,234.12z"/>
			<path class="st0" d="M161.03,233.28c-2.1-4.17-4.28-8.48-7.47-8.67c-3.36-0.16-6.15,4.13-8.88,8.31
				c-3.05,4.66-6.14,9.48-10.66,9.24c-4.47-0.24-7.07-5.36-9.59-10.31c-2.27-4.46-4.61-9.07-7.95-9.24c-3.28-0.09-6.1,4.1-8.8,8.23
				c-3,4.6-6.2,9.38-10.55,9.13c-4.47-0.23-7.06-5.33-9.56-10.26c-2.26-4.46-4.61-9.07-7.98-9.28c-3.58-0.26-6.53,4.38-9.44,8.83
				c-2.38,3.62-4.83,7.3-7.79,8.86c2.34,0.8,4.73,1.54,7.17,2.22c2.93-4.37,6.04-8.4,10.18-8.17c4.5,0.28,7.09,5.39,9.61,10.34
				c0.35,0.68,0.7,1.36,1.05,2.03c4.6,0.6,9.33,1.01,14.15,1.22c0.52-0.76,1.03-1.53,1.53-2.31c3-4.6,6.08-9.37,10.54-9.12
				c4.47,0.23,7.07,5.35,9.59,10.31c0.07,0.13,0.14,0.26,0.2,0.4c6.65-0.68,13.04-1.73,19.14-3.13c2.34-3.21,4.92-5.75,8.17-5.56
				c1.67,0.1,3.05,0.89,4.26,2.09c1.65-0.55,3.28-1.14,4.87-1.74C162.19,235.59,161.61,234.43,161.03,233.28z"/>
			<path class="st0" d="M148.59,241.16c2.44-0.62,4.83-1.3,7.16-2.03c-0.68-0.49-1.4-0.79-2.19-0.84
				C151.77,238.2,150.14,239.4,148.59,241.16z"/>
			<path class="st0" d="M102.82,76.94c4.89-1.09,9-1.5,9-1.5s8.46,1.12,15.92,4.65c6.47,3.07,10.89,8.59,12.39,13.23
				c0.99-1.3,1.96-2.77,2.91-4.23c1.65-2.52,3.34-5.09,5.24-6.87c-1.82-2.33-3.85-4.36-6-6.11c-2.35,3.26-4.91,5.86-8.27,5.68
				c-4.47-0.24-7.07-5.36-9.59-10.31c-0.91-1.78-1.83-3.58-2.82-5.11c-4.1-0.97-7.6-1.38-9.81-1.55c-1.43,1.55-2.79,3.61-4.12,5.65
				C106.15,72.82,104.57,75.2,102.82,76.94z"/>
			<path class="st0" d="M170.35,98.46c3.57,0.28,6.77-4.54,9.85-9.2c3.4-5.16,6.95-10.5,11.73-10.17c4.53,0.31,7.1,5.41,9.6,10.34
				c2.24,4.43,4.55,9.01,7.94,9.21c3.52,0.18,6.53-4.38,9.44-8.82c0.57-0.88,1.15-1.76,1.74-2.61c-0.01-4.99-0.05-9.67-0.11-13.91
				l0,0c-3.22,4.91-6.55,9.96-11.2,9.7c-4.51-0.27-7.08-5.36-9.57-10.28c-0.23-0.46-0.47-0.93-0.71-1.39
				c-11.38,9.26-24.89,17.79-33.72,23.05C166.77,96.61,168.36,98.3,170.35,98.46z"/>
			<path class="st0" d="M88,70.2c-3.09,1.44-6.17,3.25-9.06,5.53c0.25-0.02,0.51-0.03,0.77-0.01c3.67,0.23,6.08,3.68,8.2,7.63
				c1.52-1.24,3.22-2.36,5.12-3.26c0.7-0.33,1.44-0.63,2.19-0.92C92.1,77.91,89.99,74.1,88,70.2z"/>
			<path class="st0" d="M109.28,64.75c0.01-0.01,0.02-0.03,0.03-0.04c-0.01,0-0.03,0-0.03,0V64.75z"/>
			<path class="st0" d="M22.7,75.79c0.66,0.03,1.31-0.16,1.95-0.46c-4.09-3.51-7.94-7.34-11.23-11.45c0.5,0.92,0.98,1.88,1.46,2.82
				C17.1,71.09,19.39,75.61,22.7,75.79z"/>
			<path class="st0" d="M97.22,77.66c0.06,0,0.13,0,0.19,0c3.24,0,5.97-4.19,8.62-8.25c1.04-1.59,2.08-3.19,3.19-4.61
				c-3.68,0.26-11.4,1.21-19.44,4.6C91.89,73.53,94.12,77.5,97.22,77.66z"/>
			<path class="st0" d="M5.25,58.43c-1.28-0.08-2.49,0.49-3.66,1.45c-0.26,4.51-0.5,9.81-0.7,15.66c1.35-0.98,2.83-1.55,4.49-1.46
				c4.47,0.29,7.03,5.34,9.5,10.23c2.22,4.37,4.51,8.9,7.82,9.08c3.3,0.16,6.26-4.21,9.04-8.47c0.59-0.9,1.18-1.81,1.79-2.68
				c-2.44-1.73-4.86-3.58-7.23-5.53c-1.15,0.71-2.37,1.1-3.71,1.03c-4.43-0.25-6.99-5.28-9.45-10.15
				C10.91,63.2,8.61,58.65,5.25,58.43z"/>
			<path class="st0" d="M116.47,236.29c-3.28-0.12-6.1,4.1-8.8,8.23c-0.29,0.44-0.58,0.89-0.87,1.33c1.19,0.04,2.38,0.07,3.58,0.08
				c4.74-0.05,9.38-0.29,13.9-0.69C122.06,240.88,119.74,236.46,116.47,236.29z"/>
			<path class="st0" d="M42.49,204.71c4.31,0.27,6.75,5.1,9.11,9.78c2.12,4.2,4.31,8.54,7.54,8.77c3.53,0.29,6.46-4.33,9.36-8.75
				c3.23-4.91,6.58-9.98,11.2-9.71c4.5,0.28,7.09,5.39,9.61,10.34c2.25,4.44,4.58,9.02,7.92,9.2c0.06,0,0.13,0,0.19,0
				c3.24,0,5.97-4.19,8.62-8.25c3-4.6,6.08-9.38,10.54-9.12c4.47,0.23,7.07,5.35,9.59,10.31c2.27,4.46,4.61,9.07,7.95,9.24
				c3.37,0.17,6.18-4.16,8.92-8.35c3.04-4.65,6.21-9.46,10.64-9.19c4.31,0.26,6.74,5.08,9.09,9.75c2.12,4.21,4.31,8.55,7.57,8.81
				c3.57,0.25,6.77-4.54,9.85-9.2c3.4-5.16,6.95-10.5,11.73-10.17c2.91,0.2,5.02,2.39,6.82,5.24c1.35-1.46,2.64-2.96,3.85-4.5
				c-1.01-1.59-1.92-3.38-2.81-5.16c-2.25-4.44-4.57-9.04-7.99-9.27c-3.71-0.21-6.87,4.61-9.96,9.3
				c-3.38,5.14-6.87,10.48-11.63,10.07c-4.36-0.34-6.8-5.19-9.17-9.88c-2.1-4.17-4.28-8.48-7.47-8.67
				c-3.36-0.19-6.15,4.13-8.88,8.31c-3.05,4.66-6.14,9.48-10.66,9.24c-4.47-0.24-7.07-5.36-9.59-10.31
				c-2.27-4.46-4.61-9.07-7.95-9.24c-3.28-0.11-6.1,4.1-8.8,8.23c-3,4.6-6.2,9.36-10.55,9.13c-4.47-0.23-7.06-5.33-9.56-10.26
				c-2.26-4.46-4.61-9.07-7.98-9.28c-3.58-0.27-6.53,4.38-9.44,8.83c-3.21,4.89-6.56,9.93-11.14,9.63
				c-4.33-0.31-6.78-5.15-9.15-9.84c-2.11-4.18-4.29-8.5-7.49-8.71c-3.38-0.25-6.21,4.17-8.98,8.41c-3.09,4.72-6.35,9.58-10.79,9.35
				c-4.43-0.25-6.99-5.28-9.45-10.15c-1.45-2.85-2.93-5.75-4.7-7.5c0.91,2.84,1.9,5.35,3.01,7.45c4.03,7.64,9.67,14.53,16.64,20.55
				c1.26-1.5,2.48-3.31,3.66-5.11C34.83,209.29,38,204.42,42.49,204.71z"/>
			<path class="st0" d="M5.38,56.48c1.58,0.1,2.92,0.81,4.1,1.89c-2.23-3.56-4-7.3-5.11-11.2c0,0,29.5-22.77,86.29-25.78l0.83-0.05
				l0.02-0.91c0.01-0.63,0.51-15.44,13.84-17.85c14.65-2.65,23.94,2.95,26.12,15.79l0.12,0.71l0.65,0.09
				c0.65,0.09,64.78,8.89,85.74,31.6c-3.13,6.14-9.67,12.85-17.38,19.27c0.31,0.59,0.61,1.19,0.91,1.79
				c2.24,4.43,4.55,9.01,7.94,9.21c3.52,0.19,6.53-4.38,9.44-8.82c0.52-0.8,1.05-1.6,1.59-2.38c-0.19-11.96-0.49-19.66-0.49-19.66
				c-19.8-22.8-79.58-31.83-86.89-32.86c-2.58-13.36-12.75-19.43-28.05-16.66C92.24,2.98,90.12,15.91,89.78,19.48
				C36.4,22.49,3.51,44.41,3.32,44c-0.39-0.84-1.01,4.37-1.58,13.38C2.86,56.75,4.06,56.4,5.38,56.48z"/>
			<path class="st0" d="M209.34,100.59c-4.51-0.27-7.08-5.36-9.57-10.28c-2.25-4.44-4.57-9.04-7.99-9.27
				c-3.71-0.23-6.87,4.6-9.96,9.3c-3.38,5.14-6.87,10.49-11.63,10.07c-2.81-0.22-4.82-2.32-6.53-5.04
				c-2.84,1.67-5.07,2.93-6.38,3.67c2.24,1.83,3.89,5.04,5.49,8.21c2.12,4.21,4.31,8.55,7.57,8.81c3.57,0.26,6.77-4.54,9.85-9.2
				c3.4-5.16,6.95-10.5,11.73-10.17c4.53,0.31,7.1,5.41,9.6,10.34c2.24,4.43,4.55,9.01,7.94,9.21c3.52,0.17,6.53-4.38,9.44-8.82
				c0.54-0.83,1.09-1.66,1.64-2.47c0.07-4.91,0.1-9.68,0.1-14.23c-0.04,0.06-0.07,0.11-0.11,0.17
				C217.32,95.8,213.99,100.88,209.34,100.59z"/>
			<path class="st0" d="M126.17,70.6c2.27,4.46,4.61,9.07,7.95,9.24c2.44,0.15,4.58-2.1,6.62-4.94c-5.31-3.93-11.19-6.35-16.42-7.83
				C124.95,68.22,125.56,69.42,126.17,70.6z"/>
			<path class="st0" d="M22.59,95.35c-4.43-0.25-6.99-5.28-9.45-10.15c-2.23-4.4-4.53-8.95-7.89-9.16c-1.57-0.1-3.04,0.78-4.45,2.17
				C0.65,83,0.54,88.12,0.47,93.45c1.47-1.17,3.07-1.87,4.9-1.76c4.47,0.29,7.03,5.34,9.5,10.23c2.22,4.37,4.51,8.9,7.82,9.08
				c3.3,0.15,6.26-4.21,9.04-8.47c3.08-4.71,6.26-9.57,10.74-9.29c4.31,0.27,6.75,5.1,9.11,9.78c2.12,4.2,4.31,8.54,7.54,8.77
				c3.53,0.3,6.46-4.33,9.36-8.75c3.23-4.91,6.58-9.96,11.2-9.71c0.3,0.02,0.6,0.06,0.89,0.13c0.89-2.84,2.89-6.01,5.8-8.77
				c-1.92-3.63-4.01-6.83-6.81-7c-0.08-0.01-0.16-0.01-0.24-0.01c-3.4,0-6.35,4.49-9.2,8.84c-0.74,1.13-1.49,2.26-2.26,3.34
				c-1.33,2.95-2.38,6.25-3.05,9.94c0,0-14.66-6.01-29.69-16.4c-0.59,0.86-1.17,1.74-1.75,2.62C30.29,90.72,27.04,95.56,22.59,95.35
				z"/>
			<path class="st0" d="M68.5,228.19c3.23-4.91,6.58-9.97,11.2-9.71c4.5,0.28,7.09,5.39,9.61,10.34c2.25,4.44,4.58,9.02,7.92,9.2
				c3.42,0.13,6.11-4.11,8.81-8.25c3-4.6,6.08-9.38,10.54-9.12c4.47,0.23,7.07,5.35,9.59,10.31c2.27,4.46,4.61,9.07,7.95,9.24
				c3.37,0.21,6.18-4.16,8.92-8.35c3.04-4.65,6.21-9.47,10.64-9.19c4.31,0.26,6.74,5.08,9.09,9.75c0.61,1.21,1.24,2.43,1.88,3.57
				c7.79-3.12,14.87-6.92,21.13-11.33c0.92-0.9,1.89-1.64,2.91-2.13c3.12-2.39,6-4.95,8.65-7.66c-1.57-2.59-3.33-4.59-5.55-4.74
				c-3.71-0.22-6.87,4.61-9.96,9.3c-3.38,5.14-6.87,10.49-11.63,10.07c-4.36-0.34-6.8-5.19-9.17-9.88c-2.1-4.17-4.28-8.48-7.47-8.67
				c-3.36-0.17-6.15,4.13-8.88,8.31c-3.05,4.66-6.14,9.5-10.66,9.24c-4.47-0.24-7.07-5.36-9.59-10.31
				c-2.27-4.46-4.61-9.07-7.95-9.24c-3.28-0.11-6.1,4.1-8.8,8.23c-3,4.6-6.2,9.39-10.55,9.13c-4.47-0.23-7.06-5.33-9.56-10.26
				c-2.26-4.46-4.61-9.07-7.98-9.28c-0.08-0.01-0.16-0.01-0.24-0.01c-3.4,0-6.35,4.49-9.2,8.84c-3.21,4.89-6.56,9.92-11.14,9.63
				c-4.33-0.31-6.78-5.15-9.15-9.84c-2.11-4.18-4.29-8.5-7.49-8.71c-3.38-0.26-6.21,4.17-8.98,8.41c-1.22,1.86-2.46,3.74-3.79,5.32
				c1.5,1.23,3.06,2.43,4.67,3.59c2.36-3.23,4.94-5.8,8.22-5.58c4.31,0.27,6.75,5.1,9.11,9.78c1.66,3.28,3.37,6.63,5.58,8.05
				c0.56,0.22,1.12,0.44,1.69,0.66c0.09,0.01,0.17,0.06,0.27,0.06C62.66,237.23,65.6,232.61,68.5,228.19z"/>
			<path class="st0" d="M42.37,220.35c-2.38-0.18-4.48,1.98-6.49,4.74c5.15,3.53,10.83,6.66,16.98,9.35c-1.09-1.62-2.05-3.51-3-5.38
				C47.74,224.87,45.56,220.55,42.37,220.35z"/>
		</g>
	</g>
</g>
</svg>
