<?xml version="1.0" encoding="utf-8"?>
<!-- Generator: Adobe Illustrator 22.1.0, SVG Export Plug-In . SVG Version: 6.00 Build 0)  -->
<svg version="1.1" id="Layer_1" xmlns="http://www.w3.org/2000/svg" xmlns:xlink="http://www.w3.org/1999/xlink" x="0px" y="0px"
	 viewBox="0 0 178.27 151.74" style="enable-background:new 0 0 178.27 151.74;" xml:space="preserve">
<style type="text/css">
	.st0{fill:#5A8461;}
	.st1{display:none;}
</style>
<g id="illu">
	<g>
		
			<rect x="65.87" y="18.93" transform="matrix(0.7159 -0.6982 0.6982 0.7159 -1.7032 62.3953)" class="st0" width="19.89" height="28.73"/>
		
			<rect x="71.65" y="56.5" transform="matrix(0.7159 -0.6982 0.6982 0.7159 -26.2986 77.0993)" class="st0" width="19.89" height="28.73"/>
		
			<rect x="32.34" y="50.55" transform="matrix(0.7159 -0.6982 0.6982 0.7159 -32.9981 48.7341)" class="st0" width="22.1" height="28.73"/>
		
			<rect x="53.94" y="72.7" transform="matrix(0.7159 -0.6982 0.6982 0.7159 -42.3234 70.1076)" class="st0" width="22.1" height="28.73"/>
		
			<rect x="75.54" y="94.84" transform="matrix(0.7159 -0.6982 0.6982 0.7159 -51.6488 91.481)" class="st0" width="22.1" height="28.73"/>
		
			<rect x="87.47" y="41.08" transform="matrix(0.7159 -0.6982 0.6982 0.7159 -11.0355 83.7658)" class="st0" width="19.89" height="28.73"/>
		<path class="st0" d="M94.55,35.1l16.61-16.2C100.78,8.26,93.42,0.71,93.42,0.71s-7.45,7.87-15.28,10.27l-3.64,3.55L94.55,35.1z"/>
		
			<rect x="26.53" y="7.47" transform="matrix(0.7159 -0.6982 0.6982 0.7159 -6.8117 32.452)" class="st0" width="19.89" height="34.25"/>
		
			<rect x="50.06" y="34.35" transform="matrix(0.7159 -0.6982 0.6982 0.7159 -16.9694 55.7358)" class="st0" width="19.89" height="28.73"/>
		<path class="st0" d="M106.06,113.37L90.24,128.8l22.37,22.94c0,0,6.55-6.7,15.5-15.76L106.06,113.37z"/>
		<path class="st0" d="M33.22,3.86l23.91,24.52L71.37,14.5l-7.12-7.31C60.19,9.49,44.42,17.04,37.18,0L33.22,3.86z"/>
		
			<rect x="93.25" y="78.65" transform="matrix(0.7159 -0.6982 0.6982 0.7159 -35.6239 98.4727)" class="st0" width="19.89" height="28.73"/>
		
			<rect x="8.82" y="23.67" transform="matrix(0.7159 -0.6982 0.6982 0.7159 -22.8366 25.4603)" class="st0" width="22.1" height="34.25"/>
		<path class="st0" d="M139.29,80.98l21.68,22.24c9.52-9.28,16.79-16.01,17.3-15.5c-0.44-0.45-9.91-10.16-22.37-22.94L139.29,80.98z
			"/>
		<path class="st0" d="M96.09,36.68l20.05,20.57l16.61-16.2c-7.06-7.24-14.01-14.37-20.05-20.57L96.09,36.68z"/>
		<path class="st0" d="M137.7,82.52L123.46,96.4l21.79,22.34c4.85-4.84,9.7-9.65,14.14-13.99L137.7,82.52z"/>
		<path class="st0" d="M134.3,42.63l-16.61,16.2l20.05,20.57l16.61-16.2C148.09,56.78,141.17,49.68,134.3,42.63z"/>
		<path class="st0" d="M143.69,120.31l-21.8-22.36l-14.24,13.88l22.02,22.58C134,130.03,138.82,125.18,143.69,120.31z"/>
		
			<rect x="109.06" y="63.22" transform="matrix(0.7159 -0.6982 0.6982 0.7159 -20.3578 105.1322)" class="st0" width="19.89" height="28.73"/>
	</g>
</g>
</svg>
