<?xml version="1.0" encoding="utf-8"?>
<!-- Generator: Adobe Illustrator 22.1.0, SVG Export Plug-In . SVG Version: 6.00 Build 0)  -->
<svg version="1.1" id="Layer_1" xmlns="http://www.w3.org/2000/svg" xmlns:xlink="http://www.w3.org/1999/xlink" x="0px" y="0px"
	 viewBox="0 0 159.86 199.56" style="enable-background:new 0 0 159.86 199.56;" xml:space="preserve">
<style type="text/css">
	.st0{fill:#5A8461;}
	.st1{display:none;}
</style>
<g id="illu">
	<g>
		<path class="st0" d="M26.78,14.69C4.02,25.93-5.31,53.5,5.94,76.26s38.81,32.09,61.57,20.85S99.6,58.3,88.36,35.54
			C77.11,12.78,49.54,3.44,26.78,14.69z M82.43,36.43c-10.92-0.79-11.54-1.5-11.89-13.25C74.74,27.86,78.24,31.76,82.43,36.43z
			 M60.76,42.09c-1.9,0.53-3.59,1-5.31,1.47c-1.18-6.25-1.18-6.25,5.14-7.02C60.65,38.32,60.7,40.06,60.76,42.09z M68.69,45.68
			c-0.94,1.85-1.73,3.41-2.63,5.19c-1.87-0.51-3.54-0.97-5.25-1.43C61.4,44.42,63.63,42.92,68.69,45.68z M66.24,53.45
			c1.5,1.18,2.88,2.27,4.27,3.36c-3.63,4.84-4.28,4.81-8.37-0.38C63.43,55.49,64.72,54.56,66.24,53.45z M67.98,51.91
			c0.86-1.64,1.68-3.2,2.63-5.03c6.07,2.93,6.28,3.93,2.13,8.47c-0.3-0.07-0.68-0.06-0.9-0.24C70.58,54.1,69.34,53.05,67.98,51.91z
			 M76.67,53.62c4.49-2.64,5.12,2.89,8.47,4.59c-2.83,2.13-5.13,3.87-7.42,5.6C73.27,58.18,72.83,55.88,76.67,53.62z M71.88,38.73
			c1.65-1.58,5.86-0.47,10.1-0.61c-2.16,4.44-3.35,6.9-4.54,9.34C71.57,44.89,69.14,41.35,71.88,38.73z M59.2,27.09
			c2.91-0.91,5.56-1.73,8.97-2.79c0.36,3.44,0.66,6.41,0.97,9.37C61.32,34.67,60.93,34.42,59.2,27.09z M52.53,15.9
			c4.92,1.72,9.85,3.44,14.77,5.15C57.28,25.6,57.28,25.6,52.53,15.9z M68.52,42.97c-1.75-0.27-3.5-0.53-5.57-0.85
			c-0.11-1.82-0.21-3.53-0.31-5.22C68.94,35.87,69.9,36.9,68.52,42.97z M59.23,34.03c-1.59,0.66-3.2,1.33-5.31,2.2
			c-1.21-1.95-2.14-3.46-3.07-4.95C55.76,27.46,57.13,27.89,59.23,34.03z M55.03,25.41c-6.1,4.76-6.22,4.75-11.85-0.62
			c2.05-2.16,4.11-4.32,6.52-6.86C51.75,20.8,53.4,23.12,55.03,25.41z M40.54,42.67c-1.57-0.6-3.18-1.21-5.24-1.99
			c0.41-1.96,0.79-3.8,1.19-5.71C41.9,35.59,42.92,38.13,40.54,42.67z M38.2,32.45c2.68-5.78,4.02-6.02,8.66-1.64
			c-1.36,1.61-2.43,2.87-3.65,4.31C41.57,34.25,39.87,33.34,38.2,32.45z M33.6,40c-1.85,0.16-3.75,0.32-5.62,0.47
			c-1.15-6.61-0.17-7.53,6.42-6.01C34.15,36.18,33.9,37.91,33.6,40z M34.81,47.34c-4.59,1.93-6.87,0.79-6.92-4.24
			C32.08,41.24,34.28,42.52,34.81,47.34z M46.19,71.06c4.16,4.05,4.14,4.45-0.43,7.83C41.51,75.07,41.52,74.87,46.19,71.06z
			 M51.07,76.74c1.79,0.93,3.35,1.75,5.22,2.73c-3.1,6.1-3.33,6.16-8.82,1.89C48.62,79.89,49.76,78.42,51.07,76.74z M52.19,74.73
			c0.45-1.89,0.87-3.62,1.31-5.46c5.63,0.92,6.46,3.57,3.86,8.02C55.68,76.45,54.07,75.66,52.19,74.73z M61.1,71.95
			c1.88-0.15,3.6-0.28,5.29-0.41c1.25,6.43,0.53,7.17-6.2,6.09C60.51,75.65,60.79,73.91,61.1,71.95z M59.95,64.26
			c4.2-1.78,6.42-0.48,6.66,4.11C61.18,70.49,60.69,70.19,59.95,64.26z M48.32,40.56c-4.34-4.15-4.27-4.84,0.63-7.89
			C52.12,35.36,52.7,37.96,48.32,40.56z M47.68,15.4c-4.6,9.12-7.64,9.73-17.05,3.48C36.59,17.66,41.83,16.59,47.68,15.4z
			 M30.52,20.61c3.27,2.81,7.8,5.1,7.6,6.83c-0.57,4.89-4.8,5.34-9.66,3.7C29.01,28.28,29.6,25.31,30.52,20.61z M27.87,20.49
			c-1.13,11.26-1.97,11.98-13.56,11.59C19.16,27.93,23.1,24.56,27.87,20.49z M15.54,34.07c4,1.62,8.23-3.12,9.78,2.23
			c1.5,5.18-2.52,6.55-6.99,7.48C17.49,40.85,16.7,38.1,15.54,34.07z M22.67,74.98c-3.11-0.7-5.94-1.34-10.39-2.35
			c2.59-3.18,4.2-7.08,6.58-7.64C22.46,64.15,24.05,68.34,22.67,74.98z M21.9,56.03c1.64,1.35,3.02,2.49,4.63,3.81
			c-0.94,1.73-1.87,3.42-2.79,5.11C17.79,61.71,17.79,61.7,21.9,56.03z M27.59,77.91c3.41-1.38,8.11,1.72,7.12,4.76
			c-0.76,2.34-4.72,3.63-7.25,5.39c-0.48-0.45-0.96-0.89-1.44-1.34C26.59,83.76,22.71,79.88,27.59,77.91z M25.9,68.91
			c1.61,0.23,3.22,0.46,5.01,0.71c0.31,1.77,0.62,3.5,0.92,5.23C26.2,76.51,25.19,75.52,25.9,68.91z M28.04,67.18
			c-0.61-0.13-1.18-0.49-1.86-0.78c0.66-4.89,2.96-6.36,7.69-3.77c-0.57,1.55-1.16,3.15-1.88,5.1
			C30.32,67.51,29.17,67.42,28.04,67.18z M38.77,68.43c1.24,6.21,1.07,6.46-4.62,6.77C32.49,70.99,33.97,68.8,38.77,68.43z
			 M23.96,54.72c4.15-4.27,4.34-4.26,8.18,0.22C28.94,59.41,26.37,58.32,23.96,54.72z M25.53,43.57c0.29,0.89,0.57,1.78,0.86,2.67
			c0.3,0.92,0.6,1.85,0.97,3.01c-1.56,0.99-3.04,1.94-4.79,3.05C18.96,46.35,19.21,45.69,25.53,43.57z M16.31,59.55
			c-2.13-1.99-4.26-3.98-6.39-5.97c0-0.59-0.01-1.19-0.01-1.78c2.85-0.81,6.28-3.02,8.41-2.12C21.75,51.13,20.93,54.46,16.31,59.55z
			 M12.3,35.53c4.81,10.36,4.75,10.5-5.71,15.27C8.49,45.71,10.4,40.62,12.3,35.53z M6.57,54.76c9.14,5.71,9.62,7.84,3.23,16.38
			C8.77,65.92,7.74,60.7,6.57,54.76z M12.25,76.16c10.73,0.25,11.96,1.7,11.56,12.89C19.58,84.33,15.92,80.25,12.25,76.16z
			 M41.77,96.2c-5.12-1.75-10.24-3.5-15.36-5.24C36.83,85.95,37,86,42.39,94.35C42.18,94.97,41.98,95.59,41.77,96.2z M35.37,77.67
			c0.27-0.17,0.51-0.4,0.8-0.49c1.4-0.42,2.81-0.8,4.48-1.26c1.14,1.66,2.07,3.01,3,4.35C38.17,84.56,37.08,84.21,35.37,77.67z
			 M40.05,86.22c-0.18-0.41,2.53-3.03,3.79-2.95c2.42,0.16,4.76,1.52,8.04,2.71c-2.77,3.05-4.62,5.07-7.11,7.81
			C42.96,91.06,41.19,88.78,40.05,86.22z M46.33,96.31c5.66-8.78,7.85-9.25,17.64-3.54C57.61,94.04,52.36,95.1,46.33,96.31z
			 M55.36,86.11c3.09-6.31,6.57-8.57,9-5.74c1.6,1.87,0.61,5.96,0.84,10.06C61,88.58,58.34,87.42,55.36,86.11z M66.66,91.04
			c0.7-10.27,1.71-11.18,13.37-11.52C75.11,83.76,71.18,87.15,66.66,91.04z M78.06,77.11c-2.87,0.23-5.74,0.45-8.59,0.68
			c-0.66-6.76,0.68-9.93,4.47-9.12c2.24,0.48,3.7,4.53,5.52,6.98C78.99,76.13,78.52,76.62,78.06,77.11z M69.06,68.05
			c-0.75-1.91-1.4-3.54-2.05-5.2c1.66-1.18,3.11-2.21,4.54-3.23C75.98,64.04,75.6,65.57,69.06,68.05z M81.53,76.76
			c-4.44-9.6-4.21-10.33,3.96-15.93c0.53,0.18,1.05,0.37,1.58,0.55C85.35,66.15,83.63,70.92,81.53,76.76z M87.5,56.9
			c-9.04-6.79-9.2-7.48-3.7-17.52C85.14,45.73,86.2,50.76,87.5,56.9z"/>
		<path class="st0" d="M62.39,161.96l-1.28-0.71l5.97-10.77c-0.63-2.53-1.44-5.13-2.47-7.77l-4.98,8.98l-1.28-0.71l5.55-10.01
			c-0.72-1.71-1.55-3.44-2.46-5.17l-3.82,6.88l-1.28-0.71l4.27-7.7c-1.07-1.9-2.27-3.82-3.6-5.73l-2.15,3.88l-1.28-0.71l2.48-4.47
			c-1.76-2.4-3.72-4.8-5.95-7.18c0,0-1.58,3.61-2.65,9.54l4.63,3.05l-0.8,1.22l-4.08-2.69c-0.29,1.91-0.51,4.01-0.61,6.29l8.26,5.44
			l-0.8,1.22l-7.51-4.95c-0.03,1.93,0.03,3.96,0.21,6.08l10.11,6.66l-0.8,1.22l-9.11-6c0.29,2.45,0.75,5,1.42,7.63l11.25,7.41
			l-0.8,1.22l-9.86-6.5c2.66,9,7.87,18.78,17.41,28.31c0,0,5.16-14.29,1.22-32.61L62.39,161.96z"/>
		<path class="st0" d="M109.89,174.77l-0.8-0.34l2.89-6.75c-0.53-1.46-1.17-2.96-1.94-4.46l-2.41,5.63l-0.8-0.34l2.69-6.28
			c-0.53-0.97-1.13-1.95-1.78-2.92l-1.85,4.32l-0.8-0.34l2.07-4.83c-0.75-1.07-1.58-2.13-2.48-3.18l-1.04,2.43l-0.8-0.34l1.2-2.8
			c-1.19-1.32-2.5-2.62-3.97-3.9c0,0-0.72,2.24-0.99,5.82l2.93,1.53l-0.4,0.77l-2.59-1.35c-0.06,1.15-0.06,2.41,0.02,3.77l5.23,2.73
			l-0.4,0.77l-4.76-2.48c0.1,1.14,0.26,2.35,0.49,3.59l6.4,3.34l-0.4,0.77l-5.77-3.01c0.32,1.44,0.75,2.92,1.31,4.44l7.12,3.72
			l-0.4,0.77l-6.25-3.26c2.12,5.18,5.81,10.66,12.04,15.74c0,0,2.19-8.79-1.26-19.43L109.89,174.77z"/>
		<path class="st0" d="M131.31,161.87l-0.86,0.1l-0.86-7.29c-1.19-1.01-2.48-1.98-3.9-2.9l0.72,6.08l-0.86,0.1l-0.8-6.78
			c-0.95-0.58-1.95-1.13-2.99-1.65l0.55,4.66l-0.86,0.1l-0.61-5.22c-1.18-0.55-2.43-1.06-3.74-1.52l0.31,2.63l-0.86,0.1l-0.36-3.03
			c-1.69-0.55-3.47-1.03-5.38-1.4c0,0,0.49,2.3,2.04,5.54l3.3-0.13l0.04,0.87l-2.91,0.12c0.52,1.02,1.15,2.12,1.89,3.26l5.89-0.24
			l0.04,0.87l-5.36,0.22c0.66,0.94,1.39,1.91,2.22,2.87l7.21-0.29l0.04,0.87l-6.5,0.26c0.99,1.09,2.1,2.16,3.34,3.2l8.03-0.33
			l0.04,0.87l-7.04,0.29c4.42,3.43,10.35,6.35,18.28,7.65c0,0-2.48-8.72-10.77-16.22L131.31,161.87z"/>
		<path class="st0" d="M51.05,128.89c-2.57-7.19,0.48-29.56,0.61-30.51l0.99,0.14c-0.03,0.23-3.14,23.07-0.66,30.03L51.05,128.89z"
			/>
		<path class="st0" d="M138.68,92.57l-0.32-1.42l-12.02,2.67c-2.25-1.33-4.51-2.84-6.75-4.57l10.03-2.23l-0.32-1.42l-11.17,2.49
			c-1.44-1.18-2.86-2.46-4.26-3.83l7.68-1.71l-0.32-1.42l-8.6,1.91c-1.52-1.57-3.02-3.26-4.47-5.08l4.33-0.96l-0.32-1.42l-4.99,1.11
			c-1.81-2.37-3.55-4.93-5.2-7.74c0,0,3.91-0.49,9.9,0.17l1.61,5.3l1.4-0.42l-1.42-4.68c1.91,0.26,3.99,0.65,6.21,1.2l2.88,9.46
			l1.4-0.42l-2.62-8.6c1.86,0.52,3.79,1.15,5.77,1.92l3.53,11.58l1.4-0.42l-3.18-10.44c2.27,0.97,4.58,2.14,6.91,3.52l3.92,12.89
			l1.4-0.42l-3.44-11.3c7.88,5.1,15.78,12.87,22.21,24.71c0,0-15.17,0.9-31.62-8.08L138.68,92.57z"/>
		<path class="st0" d="M107.93,72.29c-3.65-2.63-17.55-4.72-17.69-4.75l0.15-0.99c0.58,0.09,14.28,2.15,18.13,4.92L107.93,72.29z"/>
		<path class="st0" d="M137.04,188.47l-0.87-0.01l0.07-7.34c-1.05-1.15-2.21-2.28-3.5-3.37l-0.06,6.13l-0.87-0.01l0.07-6.83
			c-0.87-0.69-1.79-1.36-2.76-2.01l-0.04,4.69l-0.87-0.01l0.05-5.25c-1.1-0.69-2.27-1.36-3.52-1.98l-0.03,2.65l-0.87-0.01l0.03-3.05
			c-1.61-0.76-3.31-1.46-5.16-2.07c0,0,0.2,2.34,1.32,5.76l3.29,0.28l-0.07,0.87l-2.91-0.25c0.39,1.08,0.87,2.25,1.47,3.47
			l5.88,0.51l-0.07,0.87l-5.34-0.46c0.53,1.02,1.14,2.07,1.84,3.13l7.19,0.62l-0.07,0.87l-6.48-0.56c0.85,1.2,1.81,2.41,2.91,3.6
			l8,0.69l-0.07,0.87l-7.02-0.61c3.95,3.96,9.46,7.61,17.17,9.9c0,0-1.36-8.96-8.63-17.45L137.04,188.47z"/>
		<path class="st0" d="M119.75,172.16c-1.88-2.76-46.14-67.74-48.32-78.89l0.98-0.19c2.14,10.96,47.7,77.85,48.16,78.52
			L119.75,172.16z"/>
		<path class="st0" d="M101.16,153.45c-1.2-1.96-29.34-48.18-30.18-58.91l1-0.08c0.82,10.49,29.75,57.98,30.04,58.46L101.16,153.45z
			"/>
		<path class="st0" d="M112.32,148.09c-0.34-0.43-34.24-43.55-42.15-55.09l0.82-0.56c7.89,11.51,41.77,54.6,42.11,55.03
			L112.32,148.09z"/>
		<path class="st0" d="M14.48,24.84C13.85,24.17-1.01,8.26,0.06,2.3c0.16-0.9,0.66-1.57,1.47-1.97c6.5-3.21,19.24,17.97,20.67,20.4
			l-0.86,0.51C17.58,14.87,6.77-1.13,1.97,1.23C1.45,1.49,1.15,1.9,1.04,2.48c-0.81,4.54,9.95,17.18,14.17,21.67L14.48,24.84z"/>
	</g>
</g>
</svg>
