<?xml version="1.0" encoding="utf-8"?>
<!-- Generator: Adobe Illustrator 22.1.0, SVG Export Plug-In . SVG Version: 6.00 Build 0)  -->
<svg version="1.1" id="Layer_1" xmlns="http://www.w3.org/2000/svg" xmlns:xlink="http://www.w3.org/1999/xlink" x="0px" y="0px"
	 viewBox="0 0 252.85 150.68" style="enable-background:new 0 0 252.85 150.68;" xml:space="preserve">
<style type="text/css">
	.st0{fill:#5A8461;}
	.st1{display:none;}
</style>
<g id="illu">
	<g>
		<path class="st0" d="M211.99,150.68c-5.45,0-11.46-1.17-17.23-4.71l-0.78-0.48l0.41-0.82c0.1-0.2,9.83-20.04,3.94-38.02
			c-7.48-0.03-64.61-0.6-79.1-10.64c-2.22,6.42-11.29,35.06,0.16,44.58l1.01,0.84l-1.08,0.75c-0.21,0.15-21.09,14.39-36.53,0.87
			l-0.52-0.45l0.24-0.65c0.13-0.35,12.96-35.41,8.5-44.32c-1.81-3.63-6.86-6.97-12.19-10.51c-7.19-4.77-15.27-10.12-17.5-17.67
			c-3.13,3.99-11.35,13.58-20.72,17.48C28.78,91.87,19.08,91.61,6,86c-3.01-1.29-4.91-3.38-5.66-6.19
			c-2.2-8.34,6.73-20.21,7.11-20.71l0.57-0.75l0.78,0.52c1.98,1.32,3.56,3.3,5.23,5.4c3.2,4.02,6.51,8.17,12.92,7.59
			c7.38-0.67,19.77-4.99,19.77-26.36c0-20.18,10.77-33.67,21.42-36.57c0.97-0.26,1.9-0.53,2.8-0.79c8.8-2.51,15.16-4.32,31.64,1.75
			c10.77,3.97,16.57,2.28,24.61-0.05c5.08-1.48,10.83-3.15,19.13-3.87c2.54-0.22,5.19-0.49,7.94-0.78
			c20.8-2.14,46.68-4.79,66.06,10.38c9.88,7.74,15.4,22.12,15.54,40.49c0.12,15.33-3.67,31.67-9.66,41.63
			c-10.85,18.08,5.48,46.63,5.65,46.91l0.51,0.88l-0.9,0.49C231.35,146.07,222.78,150.68,211.99,150.68z M196.58,144.72
			c13.97,7.98,29.21,1.77,33.03-0.03c-2.85-5.24-15.56-30.61-5.11-48.02c10.8-17.99,15.84-62.89-5.4-79.52
			c-18.75-14.68-44.19-12.07-64.63-9.97c-2.75,0.28-5.42,0.56-7.97,0.78c-8.1,0.71-13.76,2.35-18.75,3.8
			c-8.08,2.35-14.47,4.2-25.86,0.01c-15.86-5.85-21.65-4.2-30.4-1.71c-0.91,0.26-1.84,0.53-2.82,0.79
			c-9.67,2.63-19.94,15.67-19.94,34.65c0,22.96-13.53,27.62-21.59,28.36c-7.49,0.67-11.3-4.11-14.67-8.34
			c-1.33-1.67-2.6-3.27-4-4.41c-1.92,2.75-7.85,11.93-6.2,18.19c0.59,2.22,2.06,3.81,4.51,4.86c12.52,5.37,21.78,5.63,33.05,0.94
			c11.18-4.65,21.09-18.42,21.19-18.56l1.47-2.06l0.33,2.51c1.05,7.84,9.57,13.49,17.09,18.47c5.57,3.69,10.82,7.17,12.88,11.28
			c4.53,9.07-6.35,40.16-8.18,45.25c12.28,10.13,28.25,1.77,32.48-0.77c-12.31-12.42,0.15-45.75,0.7-47.2l0.51-1.35l1.08,0.96
			c12.31,10.9,78.96,11.03,79.63,11.03h0.71l0.23,0.67C205.96,122.37,198.47,140.58,196.58,144.72z"/>
		<g>
			<path class="st0" d="M114.57,73.46c-1.35,0-2.7-0.06-4.02-0.17c-9.56-0.83-20.25-4.84-21.56-13.63l1.86-0.28
				c1.16,7.7,11.02,11.26,19.87,12.03c10.16,0.89,19.52-1.71,20.88-5.76c1.28-3.83-3.04-10.82-7.21-17.57
				c-4.5-7.28-8.75-14.16-7.44-18.79c0.44-1.55,1.47-2.74,3.07-3.54c2.65-1.32,4.26-2.95,4.92-4.98c1.3-3.98-1.27-8.98-3.54-13.39
				c-0.67-1.3-1.3-2.53-1.82-3.7c-0.23-0.53-0.65-0.87-1.32-1.09C112.81,0.85,96.3,9.47,90.4,12.94l-0.95-1.62
				c0.9-0.53,22.03-12.89,29.39-10.52c1.18,0.38,2.01,1.09,2.46,2.11c0.5,1.12,1.12,2.33,1.77,3.6c2.44,4.74,5.2,10.11,3.65,14.83
				c-0.82,2.49-2.79,4.54-5.87,6.08c-1.13,0.56-1.81,1.34-2.11,2.37c-1.09,3.83,3.14,10.67,7.23,17.28
				c4.6,7.45,8.95,14.49,7.4,19.16C131.73,71.16,123.1,73.46,114.57,73.46z"/>
			<path class="st0" d="M114.57,73.96c-1.33,0-2.69-0.06-4.06-0.17c-9.76-0.85-20.66-4.98-22.01-14.05l-0.07-0.49l2.85-0.43
				l0.07,0.49c1.12,7.41,10.76,10.85,19.42,11.61c9.76,0.86,19.09-1.63,20.36-5.42c1.21-3.6-3.04-10.48-7.15-17.14
				c-4.57-7.39-8.87-14.36-7.5-19.2c0.48-1.69,1.6-2.99,3.33-3.85c2.52-1.26,4.05-2.79,4.67-4.69c1.24-3.79-1.28-8.68-3.51-13.01
				c-0.73-1.41-1.32-2.58-1.83-3.73c-0.17-0.4-0.48-0.64-1.02-0.82c-4.68-1.49-19.33,5.53-27.45,10.31l-0.43,0.25l-1.46-2.48
				l0.43-0.25c2.27-1.33,22.36-12.96,29.8-10.57c1.32,0.43,2.25,1.23,2.76,2.38c0.49,1.09,1.09,2.27,1.73,3.53
				c2.51,4.87,5.32,10.34,3.71,15.26c-0.87,2.63-2.93,4.77-6.12,6.37c-1,0.5-1.59,1.15-1.85,2.06c-1.03,3.62,3.14,10.36,7.18,16.88
				c4.67,7.57,9.07,14.69,7.45,19.58C131.98,71.98,122.3,73.96,114.57,73.96z M89.57,60.08c1.59,8.15,11.83,11.92,21.02,12.71
				c1.34,0.11,2.68,0.17,3.98,0.17c7.98,0,16.74-2.13,18.33-6.89c1.48-4.44-2.8-11.38-7.34-18.72c-4.16-6.72-8.45-13.66-7.3-17.7
				c0.35-1.19,1.12-2.06,2.37-2.68c2.95-1.47,4.84-3.42,5.62-5.79c1.49-4.53-1.23-9.8-3.62-14.44c-0.67-1.31-1.28-2.51-1.78-3.62
				c-0.39-0.89-1.12-1.5-2.16-1.84c-5.62-1.81-20.87,5.75-28.55,10.22l0.45,0.76c3.07-1.76,21.58-12.13,27.83-10.15
				c0.81,0.27,1.34,0.71,1.63,1.37c0.5,1.12,1.09,2.28,1.81,3.67c2.31,4.5,4.94,9.59,3.57,13.77c-0.7,2.16-2.4,3.89-5.17,5.27
				c-1.47,0.73-2.41,1.82-2.81,3.23c-1.25,4.42,2.94,11.21,7.38,18.39c4.24,6.86,8.61,13.94,7.26,17.99
				c-1.46,4.34-10.86,7.02-21.4,6.1c-8.85-0.77-18.7-4.32-20.23-11.96L89.57,60.08z"/>
		</g>
		<circle class="st0" cx="75.93" cy="37.15" r="3.76"/>
		<path class="st0" d="M252.6,70.3c2.87-17.23-19.76-36.8-20.72-37.62l-1.22,1.43c0.23,0.2,22.79,19.7,20.09,35.89
			c-1.34,8.01-4.81,12.75-7.59,16.56c-2.99,4.09-5.35,7.31-2.63,12c1.67,2.88,2.04,4.75,1.94,5.94c-1.43,0.26-2.95,1.74-3.74,3.87
			c-1.02,2.72-0.47,5.45,1.24,6.08c1.7,0.64,3.91-1.05,4.93-3.78c0.88-2.34,0.58-4.67-0.59-5.69c0.27-1.96-0.43-4.43-2.15-7.37
			c-2.1-3.62-0.36-6,2.52-9.94C247.42,83.9,251.19,78.75,252.6,70.3z"/>
	</g>
</g>
</svg>
