<?xml version="1.0" encoding="utf-8"?>
<!-- Generator: Adobe Illustrator 23.0.0, SVG Export Plug-In . SVG Version: 6.00 Build 0)  -->
<svg version="1.1" xmlns="http://www.w3.org/2000/svg" xmlns:xlink="http://www.w3.org/1999/xlink" x="0px" y="0px"
	 viewBox="0 0 845.46 252.7" style="enable-background:new 0 0 845.46 252.7;" xml:space="preserve">
<style type="text/css">
	.st0{clip-path:url(#SVGID_2_);}
	.st1{clip-path:url(#SVGID_6_);}
	.st2{fill:#365B3E;}
	.st3{fill:#325E4C;}
	.st4{fill:#D1A63B;}
	.st5{fill:#516D3E;}
	.st6{fill:#9B5E34;}
	.st7{fill:#B2D3B9;}
	.st8{fill:#F0D757;}
	.st9{fill:#FFFFFF;}
	.st10{opacity:0.32;fill:#95B599;}
	.st11{opacity:0.32;fill:#365B3E;}
	.st12{fill:#606060;}
	.st13{fill:#FDFDFD;}
	.st14{fill:#DBDDD9;stroke:#5A8461;stroke-width:8;stroke-miterlimit:10;}
	.st15{opacity:0.88;}
	.st16{opacity:0.69;}
	.st17{fill:#966F36;}
	.st18{fill:#513119;}
	.st19{fill:#5A8461;}
	.st20{fill:#98795D;}
	.st21{fill:#845736;}
	.st22{fill:#2A0D07;}
	.st23{fill:#7C2219;}
	.st24{fill:#AD4A00;}
	.st25{fill:#EFBC4D;}
	.st26{fill:#F9E81C;}
	.st27{fill:#EA8E50;}
	.st28{fill:#877057;}
	.st29{fill:none;stroke:#516D3E;stroke-width:2;stroke-miterlimit:10;}
	.st30{fill:none;stroke:#516D3E;stroke-width:4;stroke-miterlimit:10;}
	.st31{fill:none;stroke:#966F36;stroke-miterlimit:10;}
	.st32{fill:none;stroke:#513119;stroke-width:4;stroke-miterlimit:10;}
	.st33{fill:#C0CEB6;}
	.st34{fill:none;stroke:#5A8461;stroke-width:6;stroke-miterlimit:10;}
	.st35{fill:none;stroke:#325E4C;stroke-width:7;stroke-miterlimit:10;}
	.st36{fill:#5A8461;stroke:#5A8461;stroke-width:9;stroke-miterlimit:10;}
	.st37{fill:none;stroke:#5A8461;stroke-width:2;stroke-miterlimit:10;}
	.st38{fill:#5A8461;stroke:#5A8461;stroke-miterlimit:10;}
	.st39{fill:none;stroke:#5A8461;stroke-miterlimit:10;}
	.st40{clip-path:url(#SVGID_12_);fill:#5A8461;}
	.st41{clip-path:url(#SVGID_14_);fill:#5A8461;}
	.st42{fill:#CEC8BC;}
	.st43{fill:none;stroke:#95B599;stroke-miterlimit:10;}
	.st44{fill:none;stroke:#95B599;stroke-width:2;stroke-miterlimit:10;}
	.st45{clip-path:url(#SVGID_16_);fill:#5A8461;}
	.st46{opacity:0.56;fill:#5A8461;}
	.st47{fill:none;stroke:#98795D;stroke-width:5;stroke-miterlimit:10;}
	.st48{fill:#95B599;}
	.st49{fill:#C6C5C4;}
	.st50{fill:#FDFAF6;}
	.st51{fill:#572B1F;}
	.st52{display:none;}
	.st53{display:inline;}
	.st54{fill:#FCEF03;}
</style>
<g id="background">
</g>
<g id="Vrstva_10">
</g>
<g id="footer">
</g>
<g id="foto">
</g>
<g id="navbar">
</g>
<g id="hory">
</g>
<g id="illu">
</g>
<g id="text">
	<g>
		<path class="st19" d="M160.07,71.04c-9.25,0-16.78-8.09-16.8-18.05c-2.29,0.13-4.9,0.32-7.64,0.52
			c-17.27,1.25-25.5,1.53-26.38-1.31c-0.52-1.67,1.51-3.11,3.56-4.31c5.85-3.41,12.78-6.68,18.9-9.56
			c8.17-3.85,18.33-8.63,18.03-10.72c-0.54-3.81,2.35-17.73,6.26-19.12c0.71-0.25,2.09-0.37,3.33,1.69c0.54,0.9,0.86,1.02,0.89,1.04
			c0-0.01,0.27-0.16,0.66-0.96c1-2.06,2.3-2.02,2.98-1.81c3.89,1.19,7.18,15.47,6.65,19.16c-0.3,2.09,9.86,6.88,18.03,10.72
			c6.12,2.88,13.05,6.15,18.9,9.56c2.05,1.2,4.08,2.64,3.56,4.31c-0.88,2.84-9.11,2.56-26.38,1.31c-2.78-0.2-5.42-0.39-7.73-0.52
			C176.85,62.94,169.32,71.04,160.07,71.04z M145.35,50.88l-0.06,1.11c-0.02,0.32-0.03,0.64-0.03,0.96c0,8.88,6.64,16.1,14.8,16.1
			s14.8-7.22,14.8-16.1c0-0.32-0.01-0.64-0.03-0.96l-0.06-1.11l1.11,0.06c2.57,0.13,5.62,0.35,8.85,0.58
			c8.46,0.61,22.53,1.64,24.28,0.11c-0.13-0.22-0.63-0.86-2.61-2.01c-5.77-3.37-12.66-6.61-18.74-9.48
			c-12.92-6.09-19.64-9.42-19.16-12.82c0.42-2.93-2.06-13.39-4.62-16.43c-0.43-0.51-0.66-0.54-0.66-0.54c0,0-0.24,0.09-0.57,0.78
			c-0.24,0.5-0.98,2.02-2.38,2.08c-1.43,0.05-2.38-1.49-2.68-2c-0.17-0.29-0.61-0.96-0.95-0.83c-2.28,0.81-5.51,13.02-4.95,16.95
			c0.49,3.39-6.24,6.73-19.16,12.82c-6.08,2.86-12.97,6.11-18.74,9.48c-1.98,1.15-2.48,1.79-2.61,2.01
			c1.75,1.52,15.82,0.5,24.28-0.11c3.2-0.23,6.22-0.45,8.77-0.58L145.35,50.88z"/>
		<path class="st19" d="M71.13,81.94c-9.27,0-16.81-8.12-16.81-18.09c0-0.41,0.01-0.82,0.04-1.25c-2.3,0.11-4.93,0.27-7.7,0.44
			c-19.24,1.18-25.74,1.16-26.4-1.3c-0.41-1.54,1.51-2.73,3.65-3.79c5.84-2.9,12.78-5.68,18.9-8.13c7.6-3.04,18.01-7.21,17.98-8.92
			c-0.53-3.16,2.19-14.78,6.04-16.36c0.73-0.3,2.17-0.53,3.5,1.36c0.6,0.85,0.92,0.87,0.93,0.87l0,0c0.07,0,0.33-0.15,0.7-0.79
			c1.12-1.96,2.56-1.7,3.12-1.5c3.57,1.28,7.04,13.04,6.48,16.42c-0.03,1.7,10.38,5.87,17.98,8.91c6.12,2.45,13.05,5.23,18.9,8.13
			c2.14,1.06,4.05,2.25,3.64,3.79c-0.66,2.47-7.17,2.49-26.4,1.3c-2.8-0.17-5.46-0.34-7.78-0.45c0.03,0.42,0.04,0.84,0.04,1.25
			C87.93,73.82,80.4,81.94,71.13,81.94z M56.61,60.49l-0.14,1.17c-0.09,0.76-0.14,1.47-0.14,2.18c0,8.88,6.64,16.09,14.81,16.09
			c8.16,0,14.8-7.22,14.8-16.09c0-0.71-0.05-1.44-0.14-2.18l-0.15-1.17l1.18,0.05c2.59,0.11,5.69,0.3,8.97,0.5
			c8.2,0.51,21.69,1.34,24.16,0.19c-0.27-0.26-0.92-0.75-2.41-1.49c-5.77-2.86-12.67-5.63-18.75-8.06
			c-13.33-5.34-19.72-8.04-19.21-11.1c0.52-3.07-2.93-13.41-5.18-14.21c-0.07-0.02-0.3-0.11-0.71,0.61
			c-0.66,1.15-1.45,1.75-2.34,1.79c-0.93,0.04-1.81-0.52-2.65-1.71c-0.61-0.87-0.96-0.72-1.11-0.67
			c-2.49,1.02-5.34,11.19-4.83,14.18c0.51,3.06-5.87,5.76-19.21,11.1c-6.08,2.44-12.98,5.2-18.75,8.06
			c-1.5,0.74-2.14,1.23-2.41,1.49c2.47,1.15,15.96,0.32,24.16-0.19c3.24-0.2,6.31-0.39,8.88-0.5L56.61,60.49z"/>
		<path class="st19" d="M335.65,71.04c-9.25,0-16.78-8.09-16.8-18.05c-2.29,0.13-4.9,0.32-7.64,0.52
			c-17.27,1.25-25.5,1.53-26.38-1.31c-0.52-1.67,1.51-3.11,3.56-4.31c5.85-3.41,12.78-6.68,18.9-9.56
			c8.17-3.85,18.33-8.63,18.03-10.72c-0.54-3.81,2.35-17.73,6.26-19.12c0.71-0.25,2.09-0.37,3.33,1.69c0.54,0.9,0.86,1.02,0.89,1.04
			c0-0.01,0.27-0.16,0.66-0.96c1-2.06,2.3-2.02,2.98-1.81c3.89,1.19,7.18,15.47,6.65,19.16c-0.3,2.09,9.86,6.88,18.03,10.72
			c6.12,2.88,13.05,6.15,18.9,9.56c2.05,1.2,4.08,2.64,3.56,4.31c-0.88,2.84-9.11,2.56-26.38,1.31c-2.78-0.2-5.42-0.39-7.73-0.52
			C352.44,62.94,344.91,71.04,335.65,71.04z M320.94,50.88l-0.06,1.11c-0.02,0.32-0.03,0.63-0.03,0.95c0,8.88,6.64,16.1,14.8,16.1
			c8.16,0,14.81-7.22,14.81-16.1c0-0.32-0.01-0.64-0.03-0.96l-0.06-1.11l1.11,0.06c2.57,0.13,5.62,0.35,8.85,0.58
			c8.46,0.61,22.53,1.64,24.28,0.11c-0.13-0.22-0.63-0.86-2.61-2.01c-5.77-3.37-12.66-6.61-18.74-9.48
			c-12.92-6.09-19.64-9.42-19.16-12.82c0.42-2.93-2.06-13.39-4.62-16.43c-0.43-0.51-0.66-0.54-0.66-0.54c0,0-0.24,0.09-0.57,0.78
			c-0.24,0.5-0.98,2.02-2.38,2.08c-1.48,0.07-2.37-1.49-2.68-2c-0.17-0.29-0.6-0.96-0.95-0.83c-2.28,0.81-5.51,13.02-4.95,16.95
			c0.49,3.39-6.24,6.73-19.16,12.82c-6.08,2.87-12.97,6.11-18.74,9.48c-1.98,1.15-2.48,1.79-2.61,2.01
			c1.75,1.52,15.81,0.5,24.28-0.11c3.2-0.23,6.22-0.45,8.77-0.58L320.94,50.88z"/>
		<path class="st19" d="M246.72,81.94c-9.27,0-16.8-8.12-16.8-18.09c0-0.41,0.01-0.83,0.04-1.25c-2.3,0.11-4.93,0.27-7.7,0.44
			c-19.23,1.18-25.74,1.16-26.4-1.3c-0.41-1.54,1.51-2.73,3.64-3.79l0,0c5.84-2.9,12.78-5.68,18.9-8.13
			c7.6-3.04,18.01-7.21,17.98-8.91c-0.53-3.16,2.19-14.78,6.04-16.36c0.73-0.3,2.17-0.53,3.5,1.36c0.6,0.85,0.92,0.87,0.93,0.87l0,0
			c0.07,0,0.33-0.15,0.7-0.79c1.13-1.96,2.56-1.71,3.12-1.5c3.57,1.28,7.04,13.04,6.48,16.42c-0.03,1.7,10.38,5.87,17.98,8.91
			c6.12,2.45,13.05,5.23,18.9,8.13c2.14,1.06,4.06,2.25,3.65,3.79c-0.66,2.47-7.17,2.49-26.4,1.3c-2.8-0.17-5.46-0.34-7.78-0.45
			c0.03,0.42,0.04,0.84,0.04,1.25C263.52,73.82,255.98,81.94,246.72,81.94z M232.2,60.49l-0.15,1.17c-0.09,0.74-0.14,1.47-0.14,2.18
			c0,8.88,6.64,16.09,14.8,16.09s14.8-7.22,14.8-16.09c0-0.71-0.05-1.44-0.14-2.18l-0.15-1.17l1.18,0.05
			c2.59,0.11,5.69,0.3,8.97,0.5c8.2,0.51,21.69,1.34,24.16,0.19c-0.27-0.26-0.92-0.75-2.41-1.49c-5.77-2.86-12.67-5.62-18.75-8.06
			c-13.33-5.34-19.72-8.04-19.21-11.1c0.52-3.07-2.93-13.41-5.18-14.21c-0.07-0.02-0.3-0.11-0.71,0.61
			c-0.66,1.15-1.44,1.75-2.34,1.79c-0.93,0.04-1.81-0.52-2.66-1.71c-0.61-0.87-0.96-0.72-1.1-0.67c-2.49,1.02-5.34,11.19-4.83,14.18
			c0.51,3.06-5.87,5.76-19.21,11.1c-6.08,2.44-12.98,5.2-18.75,8.06l0,0c-1.5,0.74-2.14,1.23-2.41,1.49
			c2.47,1.15,15.96,0.32,24.16-0.19c3.24-0.2,6.31-0.39,8.88-0.5L232.2,60.49z"/>
		<path class="st19" d="M511.24,71.04c-9.25,0-16.78-8.09-16.81-18.05c-2.29,0.13-4.9,0.32-7.64,0.52
			c-17.27,1.25-25.5,1.53-26.38-1.31c-0.52-1.67,1.51-3.11,3.56-4.31c5.85-3.41,12.78-6.68,18.9-9.56
			c8.17-3.85,18.33-8.63,18.03-10.72c-0.54-3.81,2.35-17.73,6.26-19.12c0.71-0.25,2.09-0.37,3.33,1.69c0.54,0.9,0.86,1.02,0.89,1.04
			c0-0.01,0.27-0.16,0.66-0.96c1-2.06,2.3-2.02,2.98-1.81c3.89,1.19,7.18,15.47,6.65,19.16c-0.3,2.09,9.86,6.88,18.03,10.72
			c6.12,2.88,13.05,6.15,18.9,9.56c2.05,1.2,4.08,2.64,3.56,4.31c-0.88,2.84-9.11,2.56-26.38,1.31c-2.78-0.2-5.42-0.39-7.73-0.52
			C528.02,62.94,520.49,71.04,511.24,71.04z M496.52,50.88l-0.06,1.11c-0.02,0.32-0.03,0.63-0.03,0.95c0,8.88,6.64,16.1,14.81,16.1
			c8.16,0,14.8-7.22,14.8-16.1c0-0.32-0.01-0.64-0.03-0.96l-0.06-1.11l1.11,0.06c2.57,0.13,5.62,0.35,8.85,0.58
			c8.46,0.61,22.53,1.63,24.28,0.11c-0.13-0.22-0.63-0.86-2.61-2.01c-5.77-3.37-12.66-6.61-18.75-9.48
			c-12.92-6.09-19.64-9.42-19.16-12.82c0.42-2.93-2.06-13.39-4.62-16.43c-0.43-0.51-0.66-0.54-0.66-0.54c0,0-0.24,0.09-0.57,0.78
			c-0.24,0.5-0.98,2.02-2.39,2.08c-1.43,0.07-2.37-1.49-2.68-2c-0.17-0.29-0.6-0.96-0.95-0.83c-2.28,0.81-5.51,13.02-4.95,16.95
			c0.49,3.39-6.24,6.73-19.16,12.82c-6.08,2.86-12.97,6.11-18.74,9.48c-1.98,1.15-2.48,1.79-2.61,2.01
			c1.75,1.52,15.82,0.5,24.28-0.11c3.2-0.23,6.22-0.45,8.77-0.58L496.52,50.88z"/>
		<path class="st19" d="M422.3,81.94c-9.27,0-16.8-8.12-16.8-18.09c0-0.41,0.01-0.83,0.04-1.25c-2.3,0.11-4.93,0.27-7.7,0.44
			c-19.23,1.18-25.74,1.16-26.4-1.3c-0.41-1.54,1.51-2.73,3.64-3.79l0,0c5.84-2.9,12.78-5.68,18.9-8.13
			c7.6-3.04,18.01-7.21,17.98-8.91c-0.53-3.16,2.19-14.77,6.04-16.36c0.73-0.3,2.17-0.53,3.5,1.36c0.6,0.85,0.92,0.87,0.93,0.87l0,0
			c0.07,0,0.34-0.15,0.7-0.79c1.12-1.96,2.56-1.7,3.12-1.5c3.57,1.28,7.04,13.04,6.48,16.42c-0.03,1.7,10.38,5.87,17.98,8.91
			c6.12,2.45,13.05,5.23,18.9,8.13c2.14,1.06,4.06,2.25,3.65,3.79c-0.66,2.47-7.17,2.49-26.4,1.3c-2.8-0.17-5.46-0.34-7.78-0.45
			c0.03,0.42,0.04,0.84,0.04,1.25C439.11,73.82,431.57,81.94,422.3,81.94z M407.78,60.49l-0.15,1.17c-0.09,0.74-0.14,1.47-0.14,2.18
			c0,8.88,6.64,16.09,14.8,16.09s14.8-7.22,14.8-16.09c0-0.71-0.05-1.44-0.14-2.18l-0.15-1.17l1.18,0.05
			c2.59,0.11,5.69,0.3,8.97,0.5c8.2,0.51,21.68,1.34,24.16,0.19c-0.27-0.26-0.92-0.75-2.42-1.49c-5.77-2.86-12.67-5.62-18.75-8.06
			c-13.33-5.34-19.72-8.04-19.21-11.1c0.52-3.07-2.93-13.41-5.18-14.21c-0.07-0.02-0.3-0.11-0.71,0.61
			c-0.66,1.15-1.44,1.75-2.34,1.79c-0.93,0.04-1.81-0.52-2.66-1.71c-0.61-0.87-0.96-0.72-1.11-0.67
			c-2.49,1.02-5.33,11.19-4.83,14.18c0.51,3.06-5.87,5.76-19.21,11.1c-6.08,2.44-12.98,5.2-18.75,8.06l0,0
			c-1.5,0.74-2.14,1.23-2.41,1.49c2.47,1.15,15.96,0.32,24.16-0.19c3.24-0.2,6.31-0.39,8.88-0.5L407.78,60.49z"/>
		<path class="st19" d="M686.82,71.04c-9.25,0-16.78-8.09-16.8-18.05c-2.29,0.13-4.9,0.32-7.65,0.52
			c-17.27,1.25-25.5,1.53-26.38-1.31c-0.52-1.67,1.51-3.11,3.56-4.31c5.85-3.41,12.78-6.68,18.9-9.56
			c8.17-3.85,18.33-8.63,18.03-10.72c-0.54-3.81,2.35-17.73,6.26-19.12c0.71-0.26,2.09-0.37,3.33,1.69c0.54,0.9,0.86,1.02,0.89,1.04
			c0-0.01,0.27-0.16,0.66-0.96c1-2.06,2.3-2.02,2.98-1.81c3.89,1.19,7.18,15.47,6.65,19.16c-0.3,2.09,9.86,6.88,18.03,10.72
			c6.12,2.88,13.05,6.15,18.9,9.56c2.05,1.2,4.08,2.64,3.56,4.31c-0.88,2.84-9.11,2.56-26.38,1.31c-2.78-0.2-5.42-0.39-7.73-0.52
			C703.61,62.94,696.08,71.04,686.82,71.04z M672.11,50.88l-0.06,1.11c-0.02,0.32-0.03,0.64-0.03,0.96c0,8.88,6.64,16.1,14.8,16.1
			s14.8-7.22,14.8-16.1c0-0.32-0.01-0.64-0.03-0.96l-0.06-1.11l1.11,0.06c2.57,0.13,5.62,0.35,8.85,0.58
			c8.46,0.61,22.53,1.64,24.28,0.11c-0.13-0.22-0.63-0.86-2.61-2.01c-5.77-3.37-12.66-6.61-18.74-9.48
			c-12.92-6.09-19.64-9.42-19.16-12.82c0.42-2.93-2.06-13.39-4.62-16.43c-0.43-0.51-0.66-0.54-0.66-0.54c0,0-0.24,0.09-0.57,0.78
			c-0.24,0.5-0.98,2.02-2.38,2.08c-1.49,0.07-2.37-1.49-2.68-2c-0.17-0.29-0.62-0.95-0.95-0.83c-2.28,0.81-5.51,13.02-4.95,16.95
			c0.48,3.39-6.24,6.73-19.16,12.82c-6.08,2.87-12.97,6.11-18.74,9.48c-1.98,1.15-2.48,1.79-2.61,2.01
			c1.75,1.52,15.82,0.5,24.28-0.11c3.2-0.23,6.22-0.45,8.77-0.58L672.11,50.88z"/>
		<path class="st19" d="M597.89,81.94c-9.27,0-16.8-8.12-16.8-18.09c0-0.41,0.01-0.83,0.04-1.25c-2.3,0.11-4.93,0.27-7.7,0.44
			c-19.23,1.18-25.74,1.16-26.4-1.3c-0.41-1.54,1.51-2.73,3.65-3.79l0,0c5.84-2.9,12.78-5.68,18.9-8.13
			c7.6-3.04,18.01-7.21,17.98-8.91c-0.53-3.16,2.19-14.77,6.04-16.36c0.73-0.3,2.17-0.53,3.5,1.36c0.6,0.85,0.92,0.87,0.93,0.87l0,0
			c0.07,0,0.34-0.15,0.7-0.79c1.12-1.96,2.56-1.7,3.12-1.5c3.57,1.28,7.04,13.04,6.47,16.42c-0.03,1.7,10.38,5.87,17.98,8.91
			c6.12,2.45,13.05,5.23,18.9,8.13c2.14,1.06,4.06,2.25,3.65,3.79c-0.66,2.47-7.17,2.49-26.4,1.3c-2.8-0.17-5.46-0.34-7.78-0.45
			c0.03,0.42,0.04,0.84,0.04,1.25C614.69,73.82,607.15,81.94,597.89,81.94z M583.37,60.49l-0.15,1.17
			c-0.09,0.74-0.14,1.47-0.14,2.18c0,8.88,6.64,16.09,14.8,16.09s14.8-7.22,14.8-16.09c0-0.71-0.05-1.44-0.14-2.18l-0.15-1.17
			l1.18,0.05c2.59,0.11,5.69,0.3,8.97,0.5c8.2,0.51,21.69,1.34,24.16,0.19c-0.27-0.26-0.92-0.75-2.41-1.49
			c-5.77-2.86-12.67-5.63-18.75-8.06c-13.33-5.34-19.72-8.04-19.21-11.1c0.52-3.07-2.93-13.41-5.17-14.21
			c-0.07-0.02-0.3-0.11-0.71,0.61c-0.66,1.15-1.44,1.75-2.34,1.79c-0.93,0.04-1.81-0.52-2.66-1.71c-0.61-0.87-0.96-0.72-1.11-0.67
			c-2.49,1.02-5.33,11.19-4.83,14.18c0.51,3.06-5.87,5.76-19.21,11.1c-6.08,2.44-12.98,5.2-18.75,8.06l0,0
			c-1.5,0.74-2.14,1.23-2.41,1.49c2.47,1.15,15.96,0.32,24.16-0.19c3.24-0.2,6.31-0.39,8.88-0.5L583.37,60.49z"/>
		<path class="st19" d="M773.47,81.94c-9.27,0-16.81-8.12-16.81-18.09c0-0.41,0.01-0.82,0.04-1.25c-2.3,0.11-4.93,0.27-7.7,0.44
			c-19.24,1.18-25.74,1.16-26.4-1.3c-0.41-1.54,1.51-2.73,3.65-3.79c5.84-2.9,12.78-5.68,18.9-8.13c7.6-3.04,18.01-7.21,17.98-8.91
			c-0.53-3.16,2.19-14.77,6.04-16.36c0.74-0.3,2.17-0.53,3.5,1.36c0.6,0.85,0.92,0.87,0.93,0.87l0,0c0.07,0,0.33-0.15,0.7-0.79
			c1.12-1.96,2.56-1.7,3.12-1.5c3.57,1.28,7.04,13.04,6.47,16.42c-0.03,1.7,10.38,5.87,17.98,8.91c6.12,2.45,13.05,5.23,18.9,8.13
			c2.14,1.06,4.06,2.25,3.65,3.79c-0.66,2.47-7.17,2.49-26.4,1.3c-2.8-0.17-5.46-0.34-7.78-0.45c0.03,0.42,0.04,0.84,0.04,1.25
			C790.28,73.82,782.74,81.94,773.47,81.94z M758.95,60.49l-0.14,1.17c-0.09,0.76-0.14,1.47-0.14,2.18
			c0,8.88,6.64,16.09,14.81,16.09c8.16,0,14.8-7.22,14.8-16.09c0-0.71-0.05-1.44-0.14-2.18l-0.15-1.17l1.18,0.05
			c2.59,0.11,5.69,0.3,8.97,0.5c8.2,0.51,21.69,1.34,24.16,0.19c-0.27-0.26-0.92-0.75-2.41-1.49l0,0
			c-5.77-2.86-12.67-5.63-18.75-8.06c-13.33-5.34-19.72-8.04-19.21-11.1c0.52-3.07-2.93-13.41-5.18-14.21
			c-0.08-0.02-0.3-0.11-0.71,0.61c-0.66,1.15-1.44,1.75-2.34,1.79c-0.93,0.04-1.81-0.52-2.66-1.71c-0.61-0.87-0.96-0.72-1.11-0.67
			c-2.49,1.02-5.33,11.19-4.83,14.18c0.51,3.06-5.87,5.76-19.21,11.1c-6.08,2.44-12.98,5.2-18.75,8.06
			c-1.5,0.74-2.14,1.23-2.41,1.49c2.47,1.15,15.96,0.32,24.16-0.19c3.24-0.2,6.31-0.39,8.88-0.5L758.95,60.49z"/>
		<path class="st19" d="M814.53,241.28h-37.76l-3.3-29.68l-3.3,29.68h-37.76l29.42-88.27l1.84-45.49l-20.9,15.68l10.93,24.43
			l-11.83,11.09l-16.82-34.83l-20.14-16.31l-0.6,27.42l26.32,61.19h-23.81l-2.58,37.42h-6.35l-3.87-37.42H679.7l-3.87,37.42h-6.35
			l-2.58-37.42H643.1L669.41,135l-0.6-27.42l-24.04,19.46l-15.29,31.67l-11.83-11.09l10.93-24.44l-20.9-15.67l1.84,45.49
			l29.42,88.27h-37.76l-3.3-29.68l-3.3,29.68h-37.76l29.42-88.27l1.84-45.49l-20.9,15.67l10.93,24.44l-11.83,11.09l-16.82-34.83
			l-20.14-16.31l-0.6,27.42l26.32,61.19h-23.81l-2.58,37.42h-6.35l-3.87-37.42h-14.32l-3.87,37.42h-6.35l-2.58-37.42h-23.81
			L493.83,135l-0.6-27.42l-24.04,19.46l-15.29,31.67l-11.83-11.09l10.93-24.44l-20.9-15.67l1.84,45.49l29.42,88.27H425.6l-3.3-29.68
			l-3.3,29.68h-37.76l29.42-88.27l1.84-45.49l-20.9,15.67l10.93,24.44l-11.83,11.09l-16.82-34.83l-20.14-16.31l-0.6,27.42
			l26.32,61.19h-23.81l-2.58,37.42h-6.35l-3.87-37.42h-14.32l-3.87,37.42h-6.35l-2.58-37.42h-23.81L318.24,135l-0.6-27.42
			l-24.04,19.46l-15.29,31.67l-11.83-11.09l10.93-24.44l-20.9-15.67l1.84,45.49l29.42,88.27h-37.76l-3.3-29.68l-3.3,29.68h-37.76
			l29.42-88.27l1.84-45.49l-20.9,15.67l10.93,24.44l-11.83,11.09l-16.82-34.83l-20.14-16.31L177.57,135l26.32,61.19h-23.81
			l-2.58,37.42h-6.35l-3.87-37.42h-14.32l-3.87,37.42h-6.35l-2.58-37.42h-23.81L142.66,135l-0.59-27.42l-24.04,19.46l-15.29,31.67
			l-11.83-11.09l10.93-24.44l-20.9-15.67l1.84,45.49l29.42,88.27H74.43l-3.3-29.68l-3.3,29.68H30.07l29.42-88.27l1.84-45.49
			l-20.9,15.67l10.93,24.44l-11.83,11.09L20.55,119.4l35.03-31.73h31.09l21.99,19.92l37.2-32.11h28.48l35.98,31.06l20.83-18.87
			h31.09l21.99,19.92l37.2-32.11h28.48l35.98,31.06l20.83-18.87h31.09l21.99,19.92l37.2-32.11h28.48l35.99,31.06l20.83-18.87h31.09
			l21.99,19.92l37.2-32.11h28.48l35.99,31.06l20.83-18.87h31.09l35.03,31.73l-18.98,39.31l-11.83-11.09l10.93-24.44l-20.9-15.67
			l1.84,45.49L814.53,241.28z M778.56,239.28h33.2l-28.63-85.91l-2.03-49.98l25.55,19.16l-11,24.59l8.81,8.26l17.15-35.52
			l-33.35-30.2H758.7l-21.57,19.54l-36.76-31.73h-27l-37.98,32.78l-22.73-20.59h-29.55l-21.57,19.54l-36.76-31.73h-26.99
			l-37.98,32.78l-22.73-20.59h-29.55l-21.57,19.54l-36.76-31.73h-27l-37.98,32.78l-22.73-20.59h-29.55l-21.57,19.54l-36.76-31.73
			h-27l-37.98,32.78L85.9,89.68H56.36l-33.35,30.2l17.15,35.52l8.81-8.26l-11-24.59l25.55-19.16l-2.07,50.12l-28.59,85.77h33.2
			l5.09-45.79l5.09,45.79h33.2l-28.63-85.91l-2.03-49.98l25.55,19.16l-11,24.59l8.81,8.26l14.3-29.63l27.56-22.31l0.69,31.93
			l-25.29,58.8h22.64l2.58,37.42h2.68l3.87-37.42h17.93l3.87,37.42h2.68l2.58-37.42h22.64l-25.29-58.8l0.69-31.93l23.66,19.15
			l0.1,0.2l15.73,32.58l8.81-8.26l-11-24.59l25.55-19.16l-2.07,50.12l-28.59,85.77h33.2l5.09-45.79l5.09,45.79H285l-28.63-85.91
			l-2.03-49.98l25.55,19.16l-11,24.59l8.81,8.26l14.3-29.63l0.17-0.14l27.38-22.17l0.7,31.93l-25.29,58.8h22.64l2.58,37.42h2.68
			l3.87-37.42h17.93l3.87,37.42h2.68l2.58-37.42h22.64l-25.29-58.8l0.7-31.93l23.66,19.15l15.83,32.78l8.81-8.26l-11-24.59
			l25.55-19.16l-2.07,50.12l-28.59,85.77h33.2l5.09-45.79l5.09,45.79h33.2l-28.63-85.91l-2.03-49.98l25.55,19.16l-11,24.59
			l8.81,8.26l14.3-29.63l27.56-22.31l0.7,31.93l-25.29,58.8h22.64l2.58,37.42h2.68l3.87-37.42h17.93l3.87,37.42h2.68l2.58-37.42
			h22.64l-25.29-58.8l0.7-31.93l23.66,19.15l15.83,32.78l8.81-8.26l-11-24.59l25.55-19.16l-2.07,50.12l-28.59,85.77h33.2l5.09-45.79
			l5.09,45.79h33.2l-28.63-85.91l-2.03-49.98l25.55,19.16l-11,24.59l8.81,8.26l14.3-29.63l27.56-22.31l0.7,31.93l-25.29,58.8h22.64
			l2.58,37.42h2.68l3.87-37.42h17.93l3.87,37.42h2.68l2.58-37.42h22.64l-25.29-58.8l0.7-31.93l23.66,19.15l15.83,32.78l8.81-8.26
			l-11-24.59l25.55-19.16l-2.07,50.12l-28.59,85.77h33.2l5.09-45.79L778.56,239.28z"/>
	</g>
</g>
<g id="ILU">
</g>
<g id="Vrstva_9" class="st52">
</g>
</svg>
