<?xml version="1.0" encoding="utf-8"?>
<!-- Generator: Adobe Illustrator 23.0.0, SVG Export Plug-In . SVG Version: 6.00 Build 0)  -->
<svg version="1.1" xmlns="http://www.w3.org/2000/svg" xmlns:xlink="http://www.w3.org/1999/xlink" x="0px" y="0px"
	 viewBox="0 0 826.46 265.7" style="enable-background:new 0 0 826.46 265.7;" xml:space="preserve">
<style type="text/css">
	.st0{clip-path:url(#SVGID_2_);}
	.st1{clip-path:url(#SVGID_6_);}
	.st2{fill:#365B3E;}
	.st3{fill:#325E4C;}
	.st4{fill:#D1A63B;}
	.st5{fill:#516D3E;}
	.st6{fill:#9B5E34;}
	.st7{fill:#B2D3B9;}
	.st8{fill:#F0D757;}
	.st9{fill:#FFFFFF;}
	.st10{opacity:0.32;fill:#95B599;}
	.st11{opacity:0.32;fill:#365B3E;}
	.st12{fill:#606060;}
	.st13{fill:#FDFDFD;}
	.st14{fill:#DBDDD9;stroke:#5A8461;stroke-width:8;stroke-miterlimit:10;}
	.st15{opacity:0.88;}
	.st16{opacity:0.69;}
	.st17{fill:#966F36;}
	.st18{fill:#513119;}
	.st19{fill:#5A8461;}
	.st20{fill:#98795D;}
	.st21{fill:#845736;}
	.st22{fill:#2A0D07;}
	.st23{fill:#7C2219;}
	.st24{fill:#AD4A00;}
	.st25{fill:#EFBC4D;}
	.st26{fill:#F9E81C;}
	.st27{fill:#EA8E50;}
	.st28{fill:#877057;}
	.st29{fill:none;stroke:#516D3E;stroke-width:2;stroke-miterlimit:10;}
	.st30{fill:none;stroke:#516D3E;stroke-width:4;stroke-miterlimit:10;}
	.st31{fill:none;stroke:#966F36;stroke-miterlimit:10;}
	.st32{fill:none;stroke:#513119;stroke-width:4;stroke-miterlimit:10;}
	.st33{fill:#C0CEB6;}
	.st34{fill:none;stroke:#5A8461;stroke-width:6;stroke-miterlimit:10;}
	.st35{fill:none;stroke:#325E4C;stroke-width:7;stroke-miterlimit:10;}
	.st36{fill:#5A8461;stroke:#5A8461;stroke-width:9;stroke-miterlimit:10;}
	.st37{fill:none;stroke:#5A8461;stroke-width:2;stroke-miterlimit:10;}
	.st38{fill:#5A8461;stroke:#5A8461;stroke-miterlimit:10;}
	.st39{fill:none;stroke:#5A8461;stroke-miterlimit:10;}
	.st40{clip-path:url(#SVGID_12_);fill:#5A8461;}
	.st41{clip-path:url(#SVGID_14_);fill:#5A8461;}
	.st42{fill:#CEC8BC;}
	.st43{fill:none;stroke:#95B599;stroke-miterlimit:10;}
	.st44{fill:none;stroke:#95B599;stroke-width:2;stroke-miterlimit:10;}
	.st45{clip-path:url(#SVGID_16_);fill:#5A8461;}
	.st46{opacity:0.56;fill:#5A8461;}
	.st47{fill:none;stroke:#98795D;stroke-width:5;stroke-miterlimit:10;}
	.st48{fill:#95B599;}
	.st49{fill:#C6C5C4;}
	.st50{fill:#FDFAF6;}
	.st51{fill:#572B1F;}
	.st52{display:none;}
	.st53{display:inline;}
	.st54{fill:#FCEF03;}
</style>
<g id="background">
</g>
<g id="Vrstva_10">
</g>
<g id="footer">
</g>
<g id="foto">
</g>
<g id="navbar">
</g>
<g id="hory">
</g>
<g id="illu">
</g>
<g id="text">
	<g>
		<path class="st37" d="M137.29,57.93c-0.02,0.33-0.03,0.67-0.03,1.01c0,9.44,7.08,17.1,15.8,17.1s15.81-7.65,15.81-17.1
			c0-0.34-0.01-0.68-0.03-1.01c14.23,0.72,43.91,4.3,31.08-3.18c-15.48-9.03-38.06-16.77-37.42-21.29s-4.6-23.22-7.74-16.77
			c-1.01,2.07-2.12,1.98-3.31,0c-3.87-6.45-8.39,12.26-7.74,16.77c0.65,4.52-21.93,12.26-37.42,21.29
			C93.5,62.22,123.03,58.66,137.29,57.93z"/>
		<path class="st37" d="M48.47,67.54c-0.09,0.75-0.15,1.52-0.15,2.3c0,9.44,7.08,17.1,15.81,17.1s15.8-7.65,15.8-17.1
			c0-0.78-0.05-1.55-0.15-2.3c14.18,0.6,44.06,3.68,31.2-2.7c-15.48-7.68-38.06-14.26-37.42-18.1c0.65-3.84-4.6-19.74-7.74-14.26
			c-1.01,1.76-2.12,1.68-3.31,0C58.65,27,54.13,42.9,54.78,46.74c0.65,3.84-21.93,10.42-37.42,18.1
			C4.52,71.21,34.26,68.15,48.47,67.54z"/>
		<path class="st37" d="M312.88,57.93c-0.02,0.33-0.03,0.67-0.03,1.01c0,9.44,7.08,17.1,15.8,17.1s15.81-7.65,15.81-17.1
			c0-0.34-0.01-0.68-0.03-1.01c14.23,0.72,43.91,4.3,31.08-3.18c-15.48-9.03-38.06-16.77-37.42-21.29s-4.6-23.22-7.74-16.77
			c-1.01,2.07-2.12,1.98-3.31,0c-3.87-6.45-8.39,12.26-7.74,16.77c0.65,4.52-21.93,12.26-37.42,21.29
			C269.08,62.22,298.62,58.66,312.88,57.93z"/>
		<path class="st37" d="M192.95,64.84c-12.84,6.37,16.9,3.31,31.11,2.7c-0.09,0.75-0.15,1.52-0.15,2.3c0,9.44,7.08,17.1,15.8,17.1
			s15.8-7.65,15.8-17.1c0-0.78-0.05-1.55-0.15-2.3c14.18,0.6,44.06,3.68,31.2-2.7c-15.48-7.68-38.06-14.26-37.42-18.1
			c0.65-3.84-4.6-19.74-7.74-14.26c-1.01,1.76-2.12,1.68-3.31,0c-3.87-5.48-8.39,10.42-7.74,14.26
			C231.01,50.58,208.43,57.16,192.95,64.84z"/>
		<path class="st37" d="M488.46,57.93c-0.02,0.33-0.03,0.67-0.03,1.01c0,9.44,7.08,17.1,15.81,17.1c8.73,0,15.8-7.65,15.8-17.1
			c0-0.34-0.01-0.68-0.03-1.01c14.23,0.72,43.91,4.3,31.08-3.18c-15.48-9.03-38.06-16.77-37.42-21.29s-4.6-23.22-7.74-16.77
			c-1.01,2.07-2.12,1.98-3.31,0c-3.87-6.45-8.39,12.26-7.74,16.77s-21.93,12.26-37.42,21.29C444.67,62.22,474.2,58.66,488.46,57.93z
			"/>
		<path class="st37" d="M368.53,64.84c-12.84,6.37,16.9,3.31,31.11,2.7c-0.09,0.75-0.15,1.52-0.15,2.3c0,9.44,7.08,17.1,15.8,17.1
			s15.81-7.65,15.81-17.1c0-0.78-0.05-1.55-0.15-2.3c14.18,0.6,44.06,3.68,31.2-2.7c-15.48-7.68-38.06-14.26-37.42-18.1
			c0.65-3.84-4.6-19.74-7.74-14.26c-1.01,1.76-2.12,1.68-3.31,0c-3.87-5.48-8.39,10.42-7.74,14.26
			C406.59,50.58,384.01,57.16,368.53,64.84z"/>
		<path class="st37" d="M664.05,57.93c-0.02,0.33-0.03,0.67-0.03,1.01c0,9.44,7.08,17.1,15.81,17.1s15.8-7.65,15.8-17.1
			c0-0.34-0.01-0.68-0.03-1.01c14.23,0.72,43.91,4.3,31.08-3.18c-15.48-9.03-38.06-16.77-37.42-21.29
			c0.65-4.52-4.6-23.22-7.74-16.77c-1.01,2.07-2.12,1.98-3.31,0c-3.87-6.45-8.39,12.26-7.74,16.77s-21.93,12.26-37.42,21.29
			C620.25,62.22,649.79,58.66,664.05,57.93z"/>
		<path class="st37" d="M544.12,64.84c-12.84,6.37,16.9,3.31,31.11,2.7c-0.09,0.75-0.15,1.52-0.15,2.3c0,9.44,7.08,17.1,15.81,17.1
			c8.73,0,15.8-7.65,15.8-17.1c0-0.78-0.05-1.55-0.15-2.3c14.18,0.6,44.06,3.68,31.2-2.7c-15.48-7.68-38.06-14.26-37.42-18.1
			c0.65-3.84-4.6-19.74-7.74-14.26c-1.01,1.76-2.12,1.68-3.31,0c-3.87-5.48-8.39,10.42-7.74,14.26
			C582.18,50.58,559.6,57.16,544.12,64.84z"/>
		<path class="st37" d="M813.33,64.84c-15.48-7.68-38.06-14.26-37.42-18.1c0.65-3.84-4.6-19.74-7.74-14.26
			c-1.01,1.76-2.12,1.68-3.31,0c-3.87-5.48-8.39,10.42-7.74,14.26c0.65,3.84-21.93,10.42-37.42,18.1
			c-12.84,6.37,16.9,3.31,31.11,2.7c-0.09,0.75-0.15,1.52-0.15,2.3c0,9.44,7.08,17.1,15.81,17.1s15.8-7.65,15.8-17.1
			c0-0.78-0.05-1.55-0.15-2.3C796.31,68.14,826.19,71.22,813.33,64.84z"/>
		<polygon class="st37" points="797.76,163.06 815.82,125.64 781.63,94.68 766.79,94.68 766.15,94.68 751.31,94.68 730.11,113.88 
			693.74,82.49 666,82.49 628.41,114.93 606.05,94.68 591.21,94.68 590.56,94.68 575.73,94.68 554.52,113.88 518.15,82.49 
			490.41,82.49 452.82,114.93 430.46,94.68 415.62,94.68 414.98,94.68 400.14,94.68 378.94,113.88 342.57,82.49 314.83,82.49 
			277.24,114.93 254.88,94.68 240.04,94.68 239.39,94.68 224.56,94.68 203.35,113.88 166.98,82.49 139.24,82.49 101.65,114.93 
			79.29,94.68 64.45,94.68 63.81,94.68 48.97,94.68 14.78,125.64 32.84,163.06 43.16,153.38 32.2,128.87 55.42,111.45 53.49,159.19 
			24.46,246.28 59.94,246.28 64.13,208.54 68.32,246.28 103.8,246.28 74.77,159.19 72.84,111.45 96.06,128.87 85.1,153.38 
			95.42,163.06 110.21,132.41 136.02,111.52 136.66,141.19 110.86,201.19 134.08,201.19 136.66,238.6 141.18,238.6 145.05,201.19 
			161.17,201.19 165.04,238.6 169.56,238.6 172.14,201.19 195.36,201.19 169.56,141.19 170.21,111.52 192.11,129.25 208.43,163.06 
			218.75,153.38 207.78,128.87 231.01,111.45 229.07,159.19 200.04,246.28 235.52,246.28 239.72,208.54 243.91,246.28 
			279.39,246.28 250.36,159.19 248.42,111.45 271.65,128.87 260.68,153.38 271,163.06 285.8,132.41 311.6,111.52 312.25,141.19 
			286.44,201.19 309.67,201.19 312.25,238.6 316.76,238.6 320.63,201.19 336.76,201.19 340.63,238.6 345.15,238.6 347.73,201.19 
			370.95,201.19 345.15,141.19 345.79,111.52 367.69,129.25 384.01,163.06 394.34,153.38 383.37,128.87 406.59,111.45 
			404.66,159.19 375.63,246.28 411.11,246.28 415.3,208.54 419.49,246.28 454.97,246.28 425.95,159.19 424.01,111.45 447.23,128.87 
			436.27,153.38 446.59,163.06 461.39,132.41 487.19,111.52 487.83,141.19 462.03,201.19 485.25,201.19 487.83,238.6 492.35,238.6 
			496.22,201.19 512.35,201.19 516.22,238.6 520.73,238.6 523.31,201.19 546.54,201.19 520.73,141.19 521.38,111.52 543.28,129.25 
			559.6,163.06 569.92,153.38 558.95,128.87 582.18,111.45 580.24,159.19 551.21,246.28 586.69,246.28 590.89,208.54 595.08,246.28 
			630.56,246.28 601.53,159.19 599.6,111.45 622.82,128.87 611.85,153.38 622.17,163.06 636.97,132.41 662.77,111.52 663.42,141.19 
			637.61,201.19 660.84,201.19 663.42,238.6 667.93,238.6 671.8,201.19 687.93,201.19 691.8,238.6 696.32,238.6 698.9,201.19 
			722.12,201.19 696.32,141.19 696.96,111.52 718.86,129.25 735.18,163.06 745.51,153.38 734.54,128.87 757.76,111.45 
			755.83,159.19 726.8,246.28 762.28,246.28 766.47,208.54 770.67,246.28 806.15,246.28 777.12,159.19 775.18,111.45 798.4,128.87 
			787.44,153.38 		"/>
	</g>
</g>
<g id="ILU">
</g>
<g id="Vrstva_9" class="st52">
</g>
</svg>
