<?xml version="1.0" encoding="utf-8"?>
<!-- Generator: Adobe Illustrator 23.0.0, SVG Export Plug-In . SVG Version: 6.00 Build 0)  -->
<svg version="1.1" xmlns="http://www.w3.org/2000/svg" xmlns:xlink="http://www.w3.org/1999/xlink" x="0px" y="0px"
	 viewBox="0 0 163.46 147.7" style="enable-background:new 0 0 163.46 147.7;" xml:space="preserve">
<style type="text/css">
	.st0{clip-path:url(#SVGID_2_);}
	.st1{clip-path:url(#SVGID_6_);}
	.st2{fill:#365B3E;}
	.st3{fill:#325E4C;}
	.st4{fill:#D1A63B;}
	.st5{fill:#516D3E;}
	.st6{fill:#9B5E34;}
	.st7{fill:#B2D3B9;}
	.st8{fill:#F0D757;}
	.st9{fill:#FFFFFF;}
	.st10{opacity:0.32;fill:#95B599;}
	.st11{opacity:0.32;fill:#365B3E;}
	.st12{fill:#606060;}
	.st13{fill:#FDFDFD;}
	.st14{fill:#DBDDD9;stroke:#5A8461;stroke-width:8;stroke-miterlimit:10;}
	.st15{opacity:0.88;}
	.st16{opacity:0.69;}
	.st17{fill:#966F36;}
	.st18{fill:#513119;}
	.st19{fill:#5A8461;}
	.st20{fill:#98795D;}
	.st21{fill:#845736;}
	.st22{fill:#2A0D07;}
	.st23{fill:#7C2219;}
	.st24{fill:#AD4A00;}
	.st25{fill:#EFBC4D;}
	.st26{fill:#F9E81C;}
	.st27{fill:#EA8E50;}
	.st28{fill:#877057;}
	.st29{fill:none;stroke:#516D3E;stroke-width:2;stroke-miterlimit:10;}
	.st30{fill:none;stroke:#516D3E;stroke-width:4;stroke-miterlimit:10;}
	.st31{fill:none;stroke:#966F36;stroke-miterlimit:10;}
	.st32{fill:none;stroke:#513119;stroke-width:4;stroke-miterlimit:10;}
	.st33{fill:#C0CEB6;}
	.st34{fill:none;stroke:#5A8461;stroke-width:6;stroke-miterlimit:10;}
	.st35{fill:none;stroke:#325E4C;stroke-width:7;stroke-miterlimit:10;}
	.st36{fill:#5A8461;stroke:#5A8461;stroke-width:9;stroke-miterlimit:10;}
	.st37{fill:none;stroke:#5A8461;stroke-width:2;stroke-miterlimit:10;}
	.st38{fill:#5A8461;stroke:#5A8461;stroke-miterlimit:10;}
	.st39{fill:none;stroke:#5A8461;stroke-miterlimit:10;}
	.st40{clip-path:url(#SVGID_12_);fill:#5A8461;}
	.st41{clip-path:url(#SVGID_14_);fill:#5A8461;}
	.st42{fill:#CEC8BC;}
	.st43{fill:none;stroke:#95B599;stroke-miterlimit:10;}
	.st44{fill:none;stroke:#95B599;stroke-width:2;stroke-miterlimit:10;}
	.st45{clip-path:url(#SVGID_16_);fill:#5A8461;}
	.st46{opacity:0.56;fill:#5A8461;}
	.st47{fill:none;stroke:#98795D;stroke-width:5;stroke-miterlimit:10;}
	.st48{fill:#95B599;}
	.st49{fill:#C6C5C4;}
	.st50{fill:#FDFAF6;}
	.st51{fill:#572B1F;}
	.st52{display:none;}
	.st53{display:inline;}
	.st54{fill:#FCEF03;}
</style>
<g id="background">
</g>
<g id="Vrstva_10">
</g>
<g id="footer">
</g>
<g id="foto">
</g>
<g id="navbar">
</g>
<g id="hory">
</g>
<g id="illu">
</g>
<g id="text">
	<g>
		<path class="st19" d="M132.74,15.16c-14-5.98-27.17-3.61-39.12,5.68c-3.58,2.78-6.52,6.25-9.75,9.4c-2.52,2.46-2.49,2.48-4.9,0.05
			c-2.3-2.31-4.58-4.62-6.92-6.89c-7.4-7.18-16.28-10.88-26.56-11C24.59,12.17,7.95,28.67,7.82,49.65
			c0.01,8.15,2.35,15.58,7.05,22.23c3.27,4.62,7.26,8.66,11.21,12.66c17.93,18.14,36.01,36.13,54.01,54.21
			c1.32,1.33,2.22,1.41,3.58,0.04c20.12-20.18,40.26-40.34,60.43-60.46c8.59-8.57,12.91-18.9,11.85-30.95
			C154.63,32.21,146.77,21.14,132.74,15.16z M81.67,109.55L52.43,80.31l3.54-3.54l23.27,23.27V43.35h5v56.57l21.94-21.94l3.54,3.54
			L81.67,109.55z"/>
	</g>
</g>
<g id="ILU">
</g>
<g id="Vrstva_9" class="st52">
</g>
</svg>
