<?xml version="1.0" encoding="utf-8"?>
<!-- Generator: Adobe Illustrator 23.0.0, SVG Export Plug-In . SVG Version: 6.00 Build 0)  -->
<svg version="1.1" xmlns="http://www.w3.org/2000/svg" xmlns:xlink="http://www.w3.org/1999/xlink" x="0px" y="0px"
	 viewBox="0 0 1034.46 973.7" style="enable-background:new 0 0 1034.46 973.7;" xml:space="preserve">
<style type="text/css">
	.st0{clip-path:url(#SVGID_2_);}
	.st1{clip-path:url(#SVGID_6_);}
	.st2{fill:#365B3E;}
	.st3{fill:#325E4C;}
	.st4{fill:#D1A63B;}
	.st5{fill:#516D3E;}
	.st6{fill:#9B5E34;}
	.st7{fill:#B2D3B9;}
	.st8{fill:#F0D757;}
	.st9{fill:#FFFFFF;}
	.st10{opacity:0.32;fill:#95B599;}
	.st11{opacity:0.32;fill:#365B3E;}
	.st12{fill:#606060;}
	.st13{fill:#FDFDFD;}
	.st14{fill:#DBDDD9;stroke:#5A8461;stroke-width:8;stroke-miterlimit:10;}
	.st15{opacity:0.88;}
	.st16{opacity:0.69;}
	.st17{fill:#966F36;}
	.st18{fill:#513119;}
	.st19{fill:#5A8461;}
	.st20{fill:#98795D;}
	.st21{fill:#845736;}
	.st22{fill:#2A0D07;}
	.st23{fill:#7C2219;}
	.st24{fill:#AD4A00;}
	.st25{fill:#EFBC4D;}
	.st26{fill:#F9E81C;}
	.st27{fill:#EA8E50;}
	.st28{fill:#877057;}
	.st29{fill:none;stroke:#516D3E;stroke-width:2;stroke-miterlimit:10;}
	.st30{fill:none;stroke:#516D3E;stroke-width:4;stroke-miterlimit:10;}
	.st31{fill:none;stroke:#966F36;stroke-miterlimit:10;}
	.st32{fill:none;stroke:#513119;stroke-width:4;stroke-miterlimit:10;}
	.st33{fill:#C0CEB6;}
	.st34{fill:none;stroke:#5A8461;stroke-width:6;stroke-miterlimit:10;}
	.st35{fill:none;stroke:#325E4C;stroke-width:7;stroke-miterlimit:10;}
	.st36{fill:#5A8461;stroke:#5A8461;stroke-width:9;stroke-miterlimit:10;}
	.st37{fill:none;stroke:#5A8461;stroke-width:2;stroke-miterlimit:10;}
	.st38{fill:#5A8461;stroke:#5A8461;stroke-miterlimit:10;}
	.st39{fill:none;stroke:#5A8461;stroke-miterlimit:10;}
	.st40{clip-path:url(#SVGID_12_);fill:#5A8461;}
	.st41{clip-path:url(#SVGID_14_);fill:#5A8461;}
	.st42{fill:#CEC8BC;}
	.st43{fill:none;stroke:#95B599;stroke-miterlimit:10;}
	.st44{fill:none;stroke:#95B599;stroke-width:2;stroke-miterlimit:10;}
	.st45{clip-path:url(#SVGID_16_);fill:#5A8461;}
	.st46{clip-path:url(#SVGID_20_);fill:#5A8461;}
	.st47{opacity:0.56;fill:#5A8461;}
	.st48{fill:none;stroke:#98795D;stroke-width:5;stroke-miterlimit:10;}
	.st49{fill:#95B599;}
	.st50{fill:#C6C5C4;}
	.st51{fill:#FDFAF6;}
	.st52{fill:#572B1F;}
	.st53{display:none;}
	.st54{display:inline;}
	.st55{fill:#FCEF03;}
</style>
<g id="background">
</g>
<g id="Vrstva_10">
</g>
<g id="footer">
</g>
<g id="foto">
</g>
<g id="navbar">
</g>
<g id="hory">
</g>
<g id="illu">
	<g>
		<path class="st19" d="M108.51,282.38l-0.45-0.29c-3.94-2.52-7.71-5.23-11.2-8.05c-13.69-0.93-44.93-5.52-51.08-27.7
			c-5.14-18.53,7.88-26.49,16.98-29.71c-0.43-3.36-0.51-5.87-0.56-7.29c-0.02-0.46-0.02-0.78-0.04-0.95l-0.18-1.49l124.5-14.82
			l0.18,1.49c0.02,0.17,0.09,0.48,0.18,0.93c5.78,28-3.99,56.94-27.51,81.48l-0.37,0.39L108.51,282.38z M65.2,209.55
			c0.06,1.59,0.17,4.31,0.69,7.9l0.18,1.25l-1.21,0.39c-9.85,3.18-20.66,10.35-16.2,26.45l0,0c5.71,20.59,36.07,24.72,48.86,25.54
			l0.48,0.03l0.37,0.3c3.38,2.75,7.03,5.4,10.85,7.87l48.3-5.75c22.46-23.63,31.84-51.34,26.43-78.12L65.2,209.55z M87.53,261.35
			l-3.44-0.13c-12.43-0.48-20.85-2.99-25.03-7.45c-5.39-5.76-7.81-13.15-6.31-19.28c0.94-3.84,3.84-9.04,12.33-12.02l1.58-0.55
			l0.38,1.63c2.96,12.71,9.1,24.55,18.25,35.19L87.53,261.35z M64.53,225.91c-4.81,2.05-7.86,5.24-8.85,9.3
			c-1.26,5.16,0.88,11.48,5.58,16.51c3.2,3.42,9.92,5.58,19.54,6.31C72.93,248.2,67.46,237.42,64.53,225.91z"/>
	</g>
	<path class="st19" d="M319.41,263.94c0.29-5.26-0.09-8.69-0.07-9.47l-122.33-3.65c-0.09,2.87-7.94,41.85,34.01,78.49l49.7,1.48
		c3.94-3.05,7.48-6.14,10.66-9.24c12.67-1.95,43.6-8.93,47.66-30.98C342.37,272.45,329.07,266.14,319.41,263.94z M326.75,298.52
		c-4.3,5.5-14.63,7.96-23.28,9.07c10.1-14.09,13.94-27.49,15.33-37.33C334.78,274.32,334.36,288.78,326.75,298.52z"/>
	<g>
		<path class="st19" d="M651.42,612.85c-2.82-1.42-5-3.29-6.53-5.62c-7.34-11.15-9.47-21.5-6.34-30.76
			c3.94-11.64,15.91-21.03,35.58-27.92c6.5-2.28,12.58-4.23,17.94-5.95c27.85-8.94,43.19-13.87,57.62-42.6l42.65-84.89l64.31,32.32
			l-0.41,0.88c-2.02,4.29-49.57,105.26-60.71,120.78c-8.09,11.28-86.79,47.82-128.23,46.98
			C660.74,615.95,655.43,614.87,651.42,612.85z M793.23,417.8l-41.76,83.1c-14.81,29.48-31.37,34.8-58.8,43.61
			c-5.35,1.72-11.41,3.66-17.89,5.93c-19.06,6.67-30.62,15.65-34.34,26.67c-2.92,8.65-0.87,18.41,6.11,29.02
			c3.33,5.07,10.32,7.74,20.78,7.95c39.84,0.8,118.82-35.35,126.57-46.15c10.49-14.62,55.29-109.39,60.1-119.59L793.23,417.8z"/>
		<polygon class="st19" points="831.9,459.93 828.67,449.85 818.86,453.21 815.82,443.73 806.2,447.02 803.29,437.93 794.46,440.95 
			791.74,432.46 784.27,435.01 783.62,433.12 793.02,429.9 795.74,438.4 804.58,435.38 807.49,444.47 817.1,441.17 820.14,450.66 
			829.95,447.3 833.18,457.38 843.58,453.82 847.31,465.46 845.4,466.07 842.3,456.37 		"/>
		<polygon class="st19" points="826.76,471.88 823.44,461.76 813.53,465.07 810.41,455.54 800.7,458.79 797.7,449.66 788.79,452.64 
			785.99,444.1 778.42,446.63 777.79,444.74 787.26,441.57 790.06,450.11 798.98,447.12 801.97,456.26 811.68,453.01 814.81,462.54 
			824.71,459.23 828.03,469.35 838.53,465.84 842.36,477.52 840.46,478.14 837.26,468.37 		"/>
		<polygon class="st19" points="820.92,483.5 817.6,473.38 807.7,476.69 804.57,467.16 794.86,470.41 791.87,461.27 782.95,464.26 
			780.15,455.72 772.59,458.25 771.95,456.35 781.43,453.18 784.22,461.72 793.14,458.74 796.14,467.87 805.84,464.63 
			808.97,474.16 818.88,470.84 822.2,480.97 832.7,477.46 836.53,489.13 834.63,489.75 831.42,479.99 		"/>
		<polygon class="st19" points="815.09,495.12 811.77,484.99 801.86,488.31 798.73,478.78 789.03,482.02 786.03,472.89 
			777.11,475.87 774.32,467.33 766.75,469.86 766.11,467.97 775.59,464.8 778.39,473.34 787.3,470.36 790.3,479.49 800.01,476.24 
			803.13,485.77 813.04,482.46 816.36,492.58 826.86,489.07 830.69,500.75 828.79,501.37 825.59,491.61 		"/>
		<path class="st19" d="M806.19,547.94l-45.83-15.71l-22.04,66.14c0,0,50.25-22.12,54.56-27.89
			C797.19,564.72,806.19,547.94,806.19,547.94z"/>
		<path class="st19" d="M658.39,556.67c-21.27,12.16-26.23,29.4-12.66,50.01c5.93,9.02,21.82,9.99,41.14,6.64L658.39,556.67z"/>
	</g>
	<g>
		<path class="st19" d="M559.69,912.38c-1.95,0.75-4.21,1.34-6.78,1.75c-28.92,4.65-87.57-13.18-94.33-20.27
			c-9.32-9.78-52.57-75.87-54.4-78.67l-0.27-0.41l41.57-28.74l38.12,55.14c12.99,18.79,24.26,20.74,44.71,24.29
			c3.93,0.68,8.38,1.45,13.16,2.41c14.4,2.88,23.67,8.25,27.54,15.96c3.08,6.12,2.6,13.53-1.42,22.01
			C566.25,908.68,563.6,910.87,559.69,912.38z M405.28,815.05c3.74,5.71,45.14,68.81,54.02,78.12c6.51,6.83,65.55,24.46,93.44,19.97
			c7.39-1.19,12.07-3.79,13.94-7.73c3.88-8.19,4.36-15.29,1.43-21.13c-3.73-7.42-12.76-12.61-26.84-15.43
			c-4.77-0.95-9.21-1.72-13.13-2.4c-20.04-3.47-32.14-5.57-45.37-24.7l-37.56-54.32L405.28,815.05z"/>
		<polygon class="st19" points="413.14,826.64 412.16,826.47 413.59,818.15 421.23,819.63 422.5,812.25 429.71,813.64 
			430.91,806.69 437.98,808.05 439.12,801.39 445.61,802.65 446.68,796.42 453.38,797.71 453.19,798.7 447.49,797.6 446.42,803.82 
			439.93,802.57 438.79,809.23 431.72,807.86 430.52,814.81 423.31,813.42 422.04,820.8 414.4,819.33 		"/>
		<polygon class="st19" points="417.79,834.62 416.81,834.44 418.31,826.09 426.02,827.51 427.35,820.09 434.62,821.44 
			435.87,814.45 443,815.77 444.2,809.08 450.74,810.29 451.87,804.03 458.61,805.28 458.43,806.27 452.67,805.2 451.55,811.46 
			445.01,810.24 443.8,816.94 436.68,815.62 435.42,822.61 428.15,821.26 426.82,828.68 419.12,827.25 		"/>
		<polygon class="st19" points="423.03,842.19 422.04,842.01 423.54,833.65 431.25,835.08 432.58,827.66 439.85,829.01 
			441.11,822.02 448.23,823.34 449.43,816.65 455.98,817.86 457.1,811.6 463.85,812.85 463.66,813.83 457.91,812.77 456.78,819.03 
			450.24,817.81 449.04,824.51 441.91,823.19 440.66,830.17 433.39,828.83 432.05,836.25 424.35,834.82 		"/>
		<polygon class="st19" points="428.26,849.76 427.27,849.58 428.78,841.22 436.48,842.65 437.81,835.23 445.08,836.58 
			446.34,829.59 453.46,830.91 454.67,824.22 461.21,825.43 462.33,819.17 469.08,820.42 468.9,821.4 463.14,820.34 462.01,826.6 
			455.47,825.38 454.27,832.08 447.14,830.76 445.89,837.74 438.62,836.4 437.29,843.82 429.58,842.39 		"/>
		<path class="st19" d="M488.93,905.58c0,0-24.91-7.25-28.5-10.87c-3.59-3.61-11.55-14.5-11.55-14.5l20.69-14.27"/>
		<path class="st19" d="M553.35,871.81c16.11,6.44,21.27,18.03,13.79,33.82c-3.27,6.91-14.32,9.15-28.19,8.7L553.35,871.81z"/>
	</g>
	<g>
		<path class="st19" d="M308.25,487.84c0,0-0.74-7.71,3.91-10.35c4.65-2.64,10.97-2.23,14.32,0c3.35,2.23,5.02,9.54,5.02,9.54
			L308.25,487.84z"/>
		<g>
			<path class="st19" d="M407.38,633.78c-4.03-0.24-6.34-4.8-8.56-9.2c-2.01-3.98-4.09-8.09-7.15-8.3
				c-3.32-0.19-6.15,4.12-8.92,8.32c-3.03,4.6-6.15,9.37-10.41,9.01c-3.9-0.31-6.09-4.65-8.2-8.84c-1.88-3.73-3.83-7.59-6.68-7.76
				c-3-0.15-5.5,3.69-7.95,7.44c-2.73,4.17-5.49,8.48-9.54,8.26c-4-0.21-6.33-4.8-8.58-9.23c-2.03-3.99-4.13-8.11-7.12-8.27
				c-2.94-0.11-5.46,3.67-7.87,7.37c-2.69,4.12-5.55,8.4-9.44,8.17c-4-0.21-6.31-4.77-8.56-9.18c-2.03-3.99-4.12-8.12-7.15-8.3
				c-3.2-0.24-5.84,3.92-8.45,7.9c-2.88,4.38-5.87,8.87-9.97,8.62c-3.88-0.27-6.07-4.61-8.18-8.8c-1.89-3.74-3.84-7.61-6.7-7.79
				c-3.02-0.22-5.56,3.73-8.04,7.52c-2.77,4.22-5.68,8.56-9.66,8.36c-3.97-0.22-6.25-4.73-8.46-9.08c-1.99-3.93-4.06-8-7.06-8.2
				c-0.79-0.05-1.56,0.17-2.3,0.6c0.4,4.08,0.87,8,1.42,11.69c0.32-0.04,0.65-0.06,0.99-0.04c4,0.26,6.29,4.78,8.51,9.15
				c1.98,3.91,4.03,7.96,7,8.13c2.95,0.15,5.6-3.77,8.09-7.58c2.76-4.21,5.6-8.58,9.61-8.31c3.86,0.24,6.04,4.57,8.15,8.75
				c1.9,3.76,3.86,7.64,6.75,7.84c0.08,0.01,0.16,0.01,0.24,0.01c2.99,0,5.61-3.98,8.14-7.84c2.89-4.4,5.89-8.93,10.02-8.69
				c4.02,0.25,6.35,4.83,8.6,9.26c2.01,3.97,4.1,8.07,7.08,8.23c0.06,0,0.12,0,0.17,0c2.9,0,5.35-3.75,7.71-7.38
				c2.68-4.12,5.44-8.38,9.43-8.16c4,0.21,6.33,4.79,8.58,9.22c2.03,3.99,4.13,8.11,7.12,8.27c3.02,0.19,5.53-3.72,7.99-7.48
				c2.72-4.16,5.56-8.46,9.52-8.23c3.86,0.23,6.03,4.55,8.14,8.72c1.9,3.76,3.86,7.65,6.78,7.89c3.2,0.25,6.06-4.06,8.81-8.23
				c3.05-4.62,6.22-9.39,10.5-9.11c4.05,0.28,6.36,4.84,8.59,9.25c2,3.96,4.07,8.06,7.1,8.24c0.28,0.01,0.55-0.05,0.82-0.09
				c1.6-3.69,2.93-8.56,4.03-14.25C410.85,633.04,409.23,633.88,407.38,633.78z"/>
			<path class="st19" d="M291.25,555.52c-3.2-0.24-5.84,3.92-8.45,7.9c-2.88,4.38-5.87,8.88-9.97,8.62
				c-3.88-0.27-6.07-4.61-8.18-8.8c-1.89-3.74-3.84-7.61-6.7-7.79c-3.02-0.2-5.56,3.73-8.04,7.52c-2.77,4.22-5.68,8.58-9.66,8.36
				c-3.97-0.22-6.25-4.73-8.46-9.08c-1.99-3.93-4.06-8-7.06-8.2c-1.52-0.1-2.94,0.83-4.3,2.27c-0.04,4.33-0.05,8.8-0.01,13.34
				c1.32-1.07,2.77-1.7,4.42-1.6c4,0.26,6.29,4.78,8.51,9.16c1.98,3.91,4.03,7.96,7,8.13c2.95,0.16,5.6-3.77,8.09-7.58
				c2.76-4.21,5.6-8.57,9.61-8.31c3.86,0.24,6.04,4.57,8.15,8.75c1.9,3.76,3.86,7.64,6.75,7.84c3.16,0.27,5.78-3.87,8.38-7.83
				c2.89-4.4,5.89-8.91,10.02-8.69c4.02,0.25,6.35,4.83,8.6,9.26c2.01,3.97,4.1,8.07,7.08,8.23c0.06,0,0.12,0,0.17,0
				c2.9,0,5.35-3.75,7.71-7.38c2.68-4.12,5.44-8.39,9.43-8.16c4,0.21,6.33,4.79,8.58,9.22c2.03,3.99,4.13,8.11,7.12,8.27
				c3.02,0.16,5.53-3.72,7.99-7.48c2.72-4.16,5.56-8.48,9.52-8.23c3.86,0.23,6.03,4.55,8.14,8.72c1.9,3.76,3.86,7.65,6.78,7.89
				c3.2,0.23,6.06-4.06,8.81-8.23c3.05-4.62,6.22-9.4,10.5-9.11c4.05,0.28,6.36,4.84,8.59,9.25c2,3.96,4.07,8.06,7.1,8.24
				c3.15,0.14,5.85-3.92,8.45-7.89c0.36-0.55,0.72-1.1,1.09-1.64c0.15-4.41,0.26-8.79,0.33-13.08c-2.87,4.37-5.84,8.86-9.98,8.61
				c-4.03-0.24-6.34-4.8-8.56-9.2c-2.01-3.98-4.09-8.09-7.15-8.3c-3.32-0.19-6.15,4.12-8.92,8.32c-3.03,4.6-6.15,9.38-10.41,9.01
				c-3.9-0.31-6.09-4.65-8.2-8.84c-1.88-3.73-3.83-7.59-6.68-7.76c-3-0.15-5.5,3.69-7.95,7.44c-2.73,4.17-5.49,8.5-9.54,8.26
				c-4-0.21-6.33-4.8-8.58-9.23c-0.79-1.56-1.6-3.13-2.46-4.48c-3.18,0.03-6.63,0.05-10.1,0.05c-0.83,1.09-1.64,2.31-2.44,3.53
				c-2.69,4.12-5.55,8.38-9.44,8.17c-4-0.21-6.31-4.77-8.56-9.18c-0.49-0.96-0.98-1.93-1.49-2.85c-0.76-0.04-1.36-0.09-1.74-0.14
				c-2.75-0.37-3.79-2.47-3.42-5.2C291.58,555.6,291.42,555.53,291.25,555.52z"/>
			<path class="st19" d="M407.38,591.78c-4.03-0.24-6.34-4.8-8.56-9.2c-2.01-3.98-4.09-8.09-7.15-8.3
				c-3.32-0.19-6.15,4.12-8.92,8.32c-3.03,4.6-6.15,9.37-10.41,9.01c-3.9-0.31-6.09-4.65-8.2-8.84c-1.88-3.73-3.83-7.59-6.68-7.76
				c-3-0.15-5.5,3.69-7.95,7.44c-2.73,4.17-5.49,8.49-9.54,8.26c-4-0.21-6.33-4.8-8.58-9.23c-2.03-3.99-4.13-8.11-7.12-8.27
				c-2.94-0.12-5.46,3.67-7.87,7.37c-2.69,4.12-5.55,8.4-9.44,8.17c-4-0.21-6.31-4.77-8.56-9.18c-2.03-3.99-4.12-8.12-7.15-8.3
				c-3.2-0.22-5.84,3.92-8.45,7.9c-2.88,4.38-5.87,8.9-9.97,8.62c-3.88-0.27-6.07-4.61-8.18-8.8c-1.89-3.74-3.84-7.61-6.7-7.79
				c-3.02-0.21-5.56,3.73-8.04,7.52c-2.77,4.22-5.68,8.56-9.66,8.36c-3.97-0.22-6.25-4.73-8.46-9.08c-1.99-3.93-4.06-8-7.06-8.2
				c-1.51-0.09-2.93,0.83-4.28,2.25c0.04,3.78,0.12,7.59,0.24,11.4c1.25-0.94,2.62-1.49,4.16-1.4c4,0.26,6.29,4.78,8.51,9.16
				c1.98,3.91,4.03,7.96,7,8.13c2.95,0.15,5.6-3.77,8.09-7.58c2.76-4.21,5.6-8.58,9.61-8.31c3.86,0.24,6.04,4.57,8.15,8.75
				c1.9,3.76,3.86,7.64,6.75,7.84c3.16,0.26,5.78-3.87,8.38-7.83c2.89-4.4,5.89-8.93,10.02-8.69c4.02,0.25,6.35,4.83,8.6,9.26
				c2.01,3.97,4.1,8.07,7.08,8.23c0.06,0,0.12,0,0.17,0c2.9,0,5.35-3.75,7.71-7.38c2.68-4.12,5.44-8.4,9.43-8.16
				c4,0.21,6.33,4.79,8.58,9.22c2.03,3.99,4.13,8.11,7.12,8.27c3.02,0.19,5.53-3.72,7.99-7.48c2.72-4.16,5.56-8.46,9.52-8.23
				c3.86,0.23,6.03,4.55,8.14,8.72c1.9,3.76,3.86,7.65,6.78,7.89c3.2,0.24,6.06-4.06,8.81-8.23c3.05-4.62,6.22-9.39,10.5-9.11
				c4.05,0.28,6.36,4.84,8.59,9.25c2,3.96,4.07,8.06,7.1,8.24c3.15,0.16,5.85-3.92,8.45-7.89c0.13-0.2,0.26-0.4,0.4-0.6
				c0.23-3.86,0.41-7.77,0.57-11.67C414.17,587.99,411.29,592,407.38,591.78z"/>
			<path class="st19" d="M233.36,647.21c1.98,3.91,4.03,7.96,7,8.13c2.95,0.14,5.6-3.77,8.09-7.58c2.76-4.21,5.6-8.56,9.61-8.31
				c3.86,0.24,6.04,4.57,8.15,8.75c1.9,3.76,3.86,7.64,6.75,7.84c3.16,0.27,5.78-3.87,8.38-7.83c2.89-4.4,5.89-8.91,10.02-8.69
				c4.02,0.25,6.35,4.83,8.6,9.26c2.01,3.97,4.1,8.07,7.08,8.23c0.06,0,0.12,0,0.17,0c2.9,0,5.35-3.75,7.71-7.38
				c2.68-4.12,5.44-8.39,9.43-8.16c4,0.21,6.33,4.79,8.58,9.22c2.03,3.99,4.13,8.11,7.12,8.27c3.02,0.17,5.53-3.72,7.99-7.48
				c2.72-4.16,5.56-8.48,9.52-8.23c3.86,0.23,6.03,4.55,8.14,8.72c1.9,3.76,3.86,7.65,6.78,7.89c3.2,0.25,6.06-4.06,8.81-8.23
				c3.05-4.62,6.22-9.41,10.5-9.11c4.05,0.28,6.36,4.84,8.59,9.25c0.68,1.34,1.36,2.68,2.09,3.9c1.83-2.47,3.47-5.05,4.88-7.73
				c0.03-0.05,0.06-0.12,0.08-0.17c-0.02,0-0.04,0-0.06,0c-4.03-0.24-6.34-4.8-8.56-9.2c-2.01-3.98-4.09-8.09-7.15-8.3
				c-3.32-0.21-6.15,4.12-8.92,8.32c-3.03,4.6-6.15,9.37-10.41,9.01c-3.9-0.31-6.09-4.64-8.2-8.84c-1.88-3.73-3.83-7.59-6.68-7.76
				c-3-0.14-5.5,3.69-7.95,7.44c-2.73,4.17-5.49,8.5-9.54,8.26c-4-0.21-6.33-4.8-8.58-9.23c-2.03-3.99-4.13-8.11-7.12-8.27
				c-2.94-0.11-5.46,3.67-7.87,7.37c-2.69,4.12-5.55,8.39-9.44,8.17c-4-0.21-6.31-4.77-8.56-9.18c-2.03-3.99-4.12-8.12-7.15-8.3
				c-0.07-0.01-0.14-0.01-0.21-0.01c-3.05,0-5.68,4.02-8.24,7.91c-2.88,4.38-5.87,8.89-9.97,8.62c-3.88-0.27-6.07-4.61-8.18-8.8
				c-1.89-3.74-3.84-7.61-6.7-7.79c-3.02-0.22-5.56,3.73-8.04,7.52c-2.77,4.22-5.68,8.58-9.66,8.36c-3.97-0.22-6.25-4.73-8.46-9.08
				c-1.99-3.93-4.06-8-7.06-8.2c-0.2-0.01-0.41-0.01-0.61,0.02c0.74,4.69,1.62,8.98,2.65,12.74
				C229.64,639.88,231.53,643.59,233.36,647.21z"/>
			<path class="st19" d="M307.04,571.26c0.06,0,0.12,0,0.17,0c2.9,0,5.35-3.75,7.71-7.38c0.57-0.87,1.14-1.74,1.72-2.58
				c-6.91-0.01-13.57-0.09-17.71-0.24c0.34,0.65,0.68,1.31,1.02,1.97C301.97,567,304.06,571.1,307.04,571.26z"/>
			<path class="st19" d="M407.38,605.78c-4.03-0.24-6.34-4.8-8.56-9.2c-2.01-3.98-4.09-8.09-7.15-8.3c-3.32-0.2-6.15,4.12-8.92,8.32
				c-3.03,4.6-6.15,9.38-10.41,9.01c-3.9-0.31-6.09-4.64-8.2-8.84c-1.88-3.73-3.83-7.59-6.68-7.76c-3-0.13-5.5,3.69-7.95,7.44
				c-2.73,4.17-5.49,8.51-9.54,8.26c-4-0.21-6.33-4.8-8.58-9.23c-2.03-3.99-4.13-8.11-7.12-8.27c-2.94-0.11-5.46,3.67-7.87,7.37
				c-2.69,4.12-5.55,8.39-9.44,8.17c-4-0.21-6.31-4.77-8.56-9.18c-2.03-3.99-4.12-8.12-7.15-8.3c-3.2-0.24-5.84,3.92-8.45,7.9
				c-2.88,4.38-5.87,8.89-9.97,8.62c-3.88-0.27-6.07-4.61-8.18-8.8c-1.89-3.74-3.84-7.61-6.7-7.79c-3.02-0.22-5.56,3.73-8.04,7.52
				c-2.77,4.22-5.68,8.58-9.66,8.36c-3.97-0.22-6.25-4.73-8.46-9.08c-1.99-3.93-4.06-8-7.06-8.2c-1.4-0.1-2.71,0.68-3.98,1.93
				c0.13,3.8,0.3,7.59,0.51,11.32c1.09-0.69,2.27-1.07,3.58-1c4,0.26,6.29,4.78,8.51,9.15c1.98,3.91,4.03,7.96,7,8.13
				c2.95,0.14,5.6-3.77,8.09-7.58c2.76-4.21,5.6-8.56,9.61-8.31c3.86,0.24,6.04,4.57,8.15,8.75c1.9,3.76,3.86,7.64,6.75,7.84
				c3.16,0.28,5.78-3.87,8.38-7.83c2.89-4.4,5.89-8.94,10.02-8.69c4.02,0.25,6.35,4.83,8.6,9.26c2.01,3.97,4.1,8.07,7.08,8.23
				c0.06,0,0.12,0,0.17,0c2.9,0,5.35-3.75,7.71-7.38c2.68-4.12,5.44-8.41,9.43-8.16c4,0.21,6.33,4.79,8.58,9.22
				c2.03,3.99,4.13,8.11,7.12,8.27c3.02,0.18,5.53-3.72,7.99-7.48c2.72-4.16,5.56-8.49,9.52-8.23c3.86,0.23,6.03,4.55,8.14,8.72
				c1.9,3.76,3.86,7.65,6.78,7.89c3.2,0.24,6.06-4.06,8.81-8.23c3.05-4.62,6.22-9.41,10.5-9.11c4.05,0.28,6.36,4.84,8.59,9.25
				c2,3.96,4.07,8.06,7.1,8.24c2.82,0.13,5.29-3.13,7.64-6.67c0.38-3.99,0.71-8.12,0.99-12.33
				C413.61,602.72,410.92,605.99,407.38,605.78z"/>
			<path class="st19" d="M233.36,619.21c1.98,3.91,4.03,7.96,7,8.13c2.95,0.16,5.6-3.77,8.09-7.58c2.76-4.21,5.6-8.57,9.61-8.31
				c3.86,0.24,6.04,4.57,8.15,8.75c1.9,3.76,3.86,7.64,6.75,7.84c3.16,0.26,5.78-3.87,8.38-7.83c2.89-4.4,5.89-8.92,10.02-8.69
				c4.02,0.25,6.35,4.83,8.6,9.26c2.01,3.97,4.1,8.07,7.08,8.23c0.06,0,0.12,0,0.17,0c2.9,0,5.35-3.75,7.71-7.38
				c2.68-4.12,5.44-8.38,9.43-8.16c4,0.21,6.33,4.79,8.58,9.22c2.03,3.99,4.13,8.11,7.12,8.27c3.02,0.16,5.53-3.72,7.99-7.48
				c2.72-4.16,5.56-8.47,9.52-8.23c3.86,0.23,6.03,4.55,8.14,8.72c1.9,3.76,3.86,7.65,6.78,7.89c3.2,0.25,6.06-4.06,8.81-8.23
				c3.05-4.62,6.22-9.4,10.5-9.11c4.05,0.28,6.36,4.84,8.59,9.25c2,3.96,4.07,8.06,7.1,8.24c1.96,0.1,3.74-1.44,5.44-3.58
				c0.71-4.18,1.32-8.73,1.84-13.51c-2.13,2.83-4.47,5.02-7.38,4.84c-4.03-0.24-6.34-4.8-8.56-9.2c-2.01-3.98-4.09-8.09-7.15-8.3
				c-3.32-0.22-6.15,4.12-8.92,8.32c-3.03,4.6-6.15,9.38-10.41,9.01c-3.9-0.31-6.09-4.65-8.2-8.84c-1.88-3.73-3.83-7.59-6.68-7.76
				c-3-0.16-5.5,3.69-7.95,7.44c-2.73,4.17-5.49,8.49-9.54,8.26c-4-0.21-6.33-4.8-8.58-9.23c-2.03-3.99-4.13-8.11-7.12-8.27
				c-2.94-0.11-5.46,3.67-7.87,7.37c-2.69,4.12-5.55,8.38-9.44,8.17c-4-0.21-6.31-4.77-8.56-9.18c-2.03-3.99-4.12-8.12-7.15-8.3
				c-0.07-0.01-0.14-0.01-0.21-0.01c-3.05,0-5.68,4.02-8.24,7.91c-2.88,4.38-5.87,8.88-9.97,8.62c-3.88-0.27-6.07-4.61-8.18-8.8
				c-1.89-3.74-3.84-7.61-6.7-7.79c-3.02-0.22-5.56,3.73-8.04,7.52c-2.77,4.22-5.68,8.57-9.66,8.36c-3.97-0.22-6.25-4.73-8.46-9.08
				c-1.99-3.93-4.06-8-7.06-8.2c-1.17-0.07-2.28,0.46-3.34,1.35c0.24,3.88,0.52,7.69,0.87,11.38c0.81-0.35,1.67-0.53,2.59-0.48
				C228.85,610.31,231.14,614.83,233.36,619.21z"/>
			<path class="st19" d="M345.92,555.98c0.23,2.56-0.83,4.5-3.46,4.85c-1.42,0.19-5.87,0.32-11.5,0.4c0.69,1.18,1.34,2.45,1.98,3.71
				c2.03,3.99,4.13,8.11,7.12,8.27c3.02,0.19,5.53-3.72,7.99-7.48c2.72-4.16,5.56-8.48,9.52-8.23c0.6,0.04,1.15,0.2,1.68,0.42
				c-1.12-5.02-3.03-9.2-5.45-12.67c-1.5,1.44-2.9,3.57-4.28,5.68C348.35,552.72,347.19,554.51,345.92,555.98z"/>
			<path class="st19" d="M291.25,679.77c-2.71-0.21-5,2.73-7.23,6.05c4.73,1.25,9.65,2.25,14.74,2.99
				c-0.12-0.24-0.25-0.49-0.37-0.73C296.37,684.08,294.27,679.96,291.25,679.77z"/>
			<path class="st19" d="M364.14,679.02c-1.88-3.73-3.83-7.59-6.68-7.76c-3-0.14-5.5,3.69-7.95,7.44c-2.73,4.17-5.49,8.48-9.54,8.26
				c-4-0.21-6.33-4.8-8.58-9.23c-2.03-3.99-4.13-8.11-7.12-8.27c-2.94-0.08-5.46,3.67-7.87,7.37c-2.69,4.12-5.55,8.39-9.44,8.17
				c-4-0.21-6.31-4.77-8.56-9.18c-2.03-3.99-4.12-8.12-7.15-8.3c-3.2-0.23-5.84,3.92-8.45,7.9c-2.13,3.24-4.32,6.53-6.97,7.93
				c2.09,0.71,4.23,1.38,6.42,1.99c2.62-3.91,5.41-7.52,9.11-7.32c4.02,0.25,6.35,4.83,8.6,9.26c0.31,0.61,0.62,1.22,0.94,1.82
				c4.12,0.54,8.34,0.9,12.66,1.09c0.46-0.68,0.92-1.37,1.37-2.06c2.68-4.12,5.44-8.39,9.43-8.16c4,0.21,6.33,4.79,8.58,9.22
				c0.06,0.12,0.12,0.24,0.18,0.35c5.95-0.61,11.67-1.55,17.13-2.81c2.1-2.87,4.4-5.15,7.31-4.98c1.49,0.09,2.73,0.8,3.81,1.87
				c1.48-0.49,2.93-1.02,4.36-1.56C365.18,681.08,364.66,680.05,364.14,679.02z"/>
			<path class="st19" d="M353.01,686.07c2.18-0.55,4.32-1.16,6.41-1.82c-0.61-0.44-1.26-0.71-1.96-0.75
				C355.86,683.42,354.4,684.5,353.01,686.07z"/>
			<path class="st19" d="M312.05,539.12c4.38-0.98,8.05-1.34,8.05-1.34s7.57,1,14.25,4.16c5.79,2.74,9.75,7.68,11.09,11.84
				c0.89-1.16,1.75-2.48,2.61-3.78c1.47-2.26,2.98-4.55,4.69-6.15c-1.63-2.09-3.44-3.9-5.37-5.47c-2.1,2.91-4.4,5.25-7.4,5.09
				c-4-0.21-6.33-4.8-8.58-9.23c-0.81-1.59-1.64-3.2-2.52-4.58c-3.67-0.87-6.8-1.23-8.78-1.38c-1.28,1.39-2.5,3.23-3.69,5.06
				C315.03,535.43,313.62,537.55,312.05,539.12z"/>
			<path class="st19" d="M372.48,558.37c3.2,0.25,6.06-4.06,8.81-8.23c3.05-4.62,6.22-9.4,10.5-9.11c4.05,0.28,6.36,4.84,8.59,9.25
				c2,3.96,4.07,8.06,7.1,8.24c3.15,0.16,5.85-3.92,8.45-7.89c0.51-0.79,1.03-1.57,1.56-2.34c-0.01-4.47-0.05-8.65-0.1-12.45
				c0,0,0,0,0,0c-2.88,4.39-5.86,8.92-10.02,8.68c-4.03-0.24-6.34-4.8-8.56-9.2c-0.21-0.42-0.42-0.83-0.63-1.25
				c-10.19,8.28-22.27,15.92-30.18,20.63C369.28,556.72,370.7,558.23,372.48,558.37z"/>
			<path class="st19" d="M298.78,533.08c-2.76,1.29-5.53,2.91-8.11,4.95c0.22-0.02,0.45-0.02,0.69-0.01
				c3.28,0.2,5.44,3.29,7.34,6.83c1.36-1.11,2.88-2.11,4.58-2.92c0.62-0.3,1.28-0.57,1.96-0.83
				C302.46,539.98,300.56,536.57,298.78,533.08z"/>
			<path class="st19" d="M317.83,528.2c0.01-0.01,0.02-0.02,0.03-0.04c-0.01,0-0.03,0-0.03,0L317.83,528.2z"/>
			<path class="st19" d="M240.35,538.09c0.59,0.03,1.17-0.14,1.74-0.41c-3.66-3.14-7.11-6.57-10.05-10.25
				c0.45,0.83,0.88,1.68,1.31,2.53C235.34,533.87,237.39,537.92,240.35,538.09z"/>
			<path class="st19" d="M307.04,539.76c0.06,0,0.12,0,0.17,0c2.9,0,5.35-3.75,7.71-7.38c0.93-1.42,1.86-2.86,2.86-4.12
				c-3.3,0.24-10.2,1.09-17.4,4.11C302.27,536.06,304.27,539.62,307.04,539.76z"/>
			<path class="st19" d="M224.74,522.55c-1.14-0.07-2.23,0.43-3.28,1.3c-0.23,4.03-0.45,8.78-0.63,14.01
				c1.21-0.88,2.53-1.39,4.02-1.31c4,0.26,6.29,4.78,8.51,9.16c1.98,3.91,4.03,7.96,7,8.13c2.95,0.14,5.6-3.77,8.09-7.58
				c0.53-0.81,1.06-1.62,1.6-2.4c-2.18-1.55-4.35-3.2-6.47-4.95c-1.03,0.63-2.12,0.99-3.32,0.92c-3.97-0.22-6.25-4.73-8.46-9.08
				C229.8,526.81,227.74,522.74,224.74,522.55z"/>
			<path class="st19" d="M324.27,681.71c-2.94-0.11-5.46,3.67-7.87,7.37c-0.26,0.4-0.52,0.79-0.78,1.19
				c1.06,0.03,2.13,0.06,3.21,0.07c4.25-0.05,8.39-0.26,12.44-0.62C329.26,685.82,327.19,681.87,324.27,681.71z"/>
			<path class="st19" d="M258.06,653.45c3.86,0.24,6.04,4.57,8.15,8.75c1.9,3.76,3.86,7.64,6.75,7.84c3.16,0.26,5.78-3.87,8.38-7.83
				c2.89-4.4,5.89-8.93,10.02-8.69c4.02,0.25,6.35,4.83,8.6,9.26c2.01,3.97,4.1,8.07,7.08,8.23c0.06,0,0.12,0,0.17,0
				c2.9,0,5.35-3.75,7.71-7.38c2.68-4.12,5.44-8.4,9.43-8.16c4,0.21,6.33,4.79,8.58,9.22c2.03,3.99,4.13,8.11,7.12,8.27
				c3.02,0.15,5.53-3.72,7.99-7.48c2.72-4.16,5.56-8.47,9.52-8.23c3.86,0.23,6.03,4.55,8.14,8.72c1.9,3.76,3.86,7.65,6.78,7.89
				c3.2,0.23,6.06-4.06,8.81-8.23c3.05-4.62,6.22-9.4,10.5-9.11c2.61,0.18,4.49,2.14,6.1,4.69c1.21-1.31,2.36-2.65,3.45-4.03
				c-0.9-1.42-1.72-3.02-2.52-4.61c-2.01-3.98-4.09-8.09-7.15-8.3c-3.32-0.18-6.15,4.12-8.92,8.32c-3.03,4.6-6.15,9.38-10.41,9.01
				c-3.9-0.31-6.09-4.65-8.2-8.84c-1.88-3.73-3.83-7.59-6.68-7.76c-3-0.17-5.5,3.69-7.95,7.44c-2.73,4.17-5.49,8.48-9.54,8.26
				c-4-0.21-6.33-4.8-8.58-9.23c-2.03-3.99-4.13-8.11-7.12-8.27c-2.94-0.1-5.46,3.67-7.87,7.37c-2.69,4.12-5.55,8.38-9.44,8.17
				c-4-0.21-6.31-4.77-8.56-9.18c-2.03-3.99-4.12-8.12-7.15-8.3c-3.2-0.24-5.84,3.92-8.45,7.9c-2.88,4.38-5.87,8.89-9.97,8.62
				c-3.88-0.27-6.07-4.61-8.18-8.8c-1.89-3.74-3.84-7.61-6.7-7.79c-3.02-0.23-5.56,3.73-8.04,7.52c-2.77,4.22-5.68,8.57-9.66,8.36
				c-3.97-0.22-6.25-4.73-8.46-9.08c-1.29-2.55-2.62-5.14-4.21-6.71c0.81,2.55,1.7,4.79,2.69,6.66c3.6,6.84,8.66,13,14.89,18.39
				c1.13-1.34,2.22-2.96,3.27-4.57C251.2,657.55,254.05,653.2,258.06,653.45z"/>
			<path class="st19" d="M224.85,520.8c1.42,0.09,2.61,0.72,3.67,1.69c-2-3.19-3.58-6.53-4.57-10.02c0,0,26.4-20.38,77.22-23.07
				l0.74-0.04l0.02-0.81c0.01-0.56,0.46-13.81,12.39-15.97c13.11-2.37,21.42,2.64,23.37,14.13l0.11,0.63l0.58,0.08
				c0.58,0.08,57.97,7.95,76.73,28.28c-2.8,5.5-8.66,11.5-15.55,17.25c0.27,0.53,0.55,1.06,0.82,1.6c2,3.96,4.07,8.06,7.1,8.24
				c3.15,0.17,5.85-3.92,8.45-7.89c0.47-0.71,0.94-1.43,1.42-2.13c-0.17-10.7-0.44-17.59-0.44-17.59
				c-17.72-20.41-71.22-28.49-77.76-29.4c-2.3-11.96-11.41-17.39-25.1-14.91c-11.46,2.07-13.36,13.65-13.67,16.84
				c-47.78,2.7-77.22,22.31-77.38,21.95c-0.35-0.75-0.9,3.91-1.41,11.97C222.6,521.04,223.67,520.73,224.85,520.8z"/>
			<path class="st19" d="M407.38,560.28c-4.03-0.24-6.34-4.8-8.56-9.2c-2.01-3.98-4.09-8.09-7.15-8.3c-3.32-0.2-6.15,4.12-8.92,8.32
				c-3.03,4.6-6.15,9.39-10.41,9.01c-2.51-0.2-4.31-2.08-5.84-4.51c-2.54,1.5-4.53,2.63-5.71,3.28c2,1.64,3.48,4.51,4.91,7.35
				c1.9,3.76,3.86,7.65,6.78,7.89c3.2,0.23,6.06-4.06,8.81-8.23c3.05-4.62,6.22-9.4,10.5-9.11c4.05,0.28,6.36,4.84,8.59,9.25
				c2,3.96,4.07,8.06,7.1,8.24c3.15,0.15,5.85-3.92,8.45-7.89c0.48-0.74,0.97-1.48,1.47-2.21c0.06-4.39,0.09-8.66,0.09-12.73
				c-0.03,0.05-0.07,0.1-0.1,0.15C414.52,555.99,411.53,560.53,407.38,560.28z"/>
			<path class="st19" d="M332.94,533.44c2.03,3.99,4.13,8.11,7.12,8.27c2.18,0.14,4.1-1.88,5.92-4.42
				c-4.75-3.51-10.01-5.68-14.7-7.01C331.86,531.31,332.4,532.38,332.94,533.44z"/>
			<path class="st19" d="M240.26,555.58c-3.97-0.22-6.25-4.73-8.46-9.08c-1.99-3.93-4.06-8-7.06-8.2c-1.4-0.09-2.72,0.69-3.98,1.94
				c-0.13,4.29-0.23,8.87-0.29,13.64c1.31-1.05,2.75-1.67,4.39-1.58c4,0.26,6.29,4.78,8.51,9.15c1.98,3.91,4.03,7.96,7,8.13
				c2.95,0.13,5.6-3.77,8.09-7.58c2.76-4.21,5.6-8.56,9.61-8.31c3.86,0.24,6.04,4.57,8.15,8.75c1.9,3.76,3.86,7.64,6.75,7.84
				c3.16,0.26,5.78-3.87,8.38-7.83c2.89-4.4,5.89-8.91,10.02-8.69c0.27,0.02,0.54,0.06,0.79,0.11c0.8-2.54,2.59-5.38,5.19-7.85
				c-1.72-3.25-3.59-6.11-6.09-6.27c-0.07-0.01-0.14-0.01-0.21-0.01c-3.05,0-5.68,4.02-8.24,7.91c-0.66,1.01-1.33,2.03-2.02,2.99
				c-1.19,2.64-2.13,5.59-2.73,8.89c0,0-13.11-5.38-26.57-14.68c-0.53,0.77-1.05,1.56-1.57,2.35
				C247.15,551.44,244.23,555.78,240.26,555.58z"/>
			<path class="st19" d="M281.34,674.46c2.89-4.4,5.89-8.92,10.02-8.69c4.02,0.25,6.35,4.83,8.6,9.26c2.01,3.97,4.1,8.07,7.08,8.23
				c3.06,0.11,5.47-3.68,7.89-7.38c2.68-4.12,5.44-8.39,9.43-8.16c4,0.21,6.33,4.79,8.58,9.22c2.03,3.99,4.13,8.11,7.12,8.27
				c3.02,0.19,5.53-3.72,7.99-7.48c2.72-4.16,5.56-8.48,9.52-8.23c3.86,0.23,6.03,4.55,8.14,8.72c0.55,1.09,1.11,2.17,1.69,3.19
				c6.97-2.79,13.31-6.19,18.9-10.14c0.83-0.81,1.69-1.47,2.6-1.91c2.79-2.14,5.37-4.43,7.74-6.85c-1.41-2.32-2.98-4.11-4.96-4.24
				c-3.32-0.2-6.15,4.12-8.92,8.32c-3.03,4.6-6.15,9.39-10.41,9.01c-3.9-0.31-6.09-4.65-8.2-8.84c-1.88-3.73-3.83-7.59-6.68-7.76
				c-3-0.16-5.5,3.69-7.95,7.44c-2.73,4.17-5.49,8.5-9.54,8.26c-4-0.21-6.33-4.8-8.58-9.23c-2.03-3.99-4.13-8.11-7.12-8.27
				c-2.94-0.1-5.46,3.67-7.87,7.37c-2.69,4.12-5.55,8.4-9.44,8.17c-4-0.21-6.31-4.77-8.56-9.18c-2.03-3.99-4.12-8.12-7.15-8.3
				c-0.07-0.01-0.14-0.01-0.21-0.01c-3.05,0-5.68,4.02-8.24,7.91c-2.88,4.38-5.87,8.88-9.97,8.62c-3.88-0.27-6.07-4.61-8.18-8.8
				c-1.89-3.74-3.84-7.61-6.7-7.79c-3.02-0.23-5.56,3.73-8.04,7.52c-1.09,1.66-2.2,3.34-3.39,4.76c1.34,1.11,2.74,2.18,4.18,3.21
				c2.11-2.89,4.42-5.19,7.36-4.99c3.86,0.24,6.04,4.57,8.15,8.75c1.48,2.94,3.01,5.93,4.99,7.2c0.5,0.2,1.01,0.4,1.52,0.59
				c0.08,0.01,0.16,0.05,0.24,0.06C276.11,682.55,278.74,678.42,281.34,674.46z"/>
			<path class="st19" d="M257.95,667.45c-2.13-0.16-4.01,1.77-5.81,4.24c4.61,3.15,9.69,5.96,15.19,8.37
				c-0.97-1.45-1.84-3.14-2.68-4.82C262.76,671.5,260.81,667.63,257.95,667.45z"/>
		</g>
	</g>
	<g>
		<path class="st37" d="M710.65,172.15c5.64,3.76,8.46,14.1,18.8,13.16c10.34-0.94,20.68-7.62,20.68-27.36s10.7-32.89,20.68-35.61
			c10.34-2.82,15.98-5.64,33.83,0.94c17.86,6.58,22.56-1.98,44.17-3.86s51.69-7.52,73.3,9.4c21.62,16.92,16.92,62.03,5.64,80.82
			s5.64,47.93,5.64,47.93s-18.8,10.34-35.71,0c0,0,10.34-20.68,3.76-39.47c0,0-67.55,0-80.29-11.28c0,0-13.57,35.71,0,46.99
			c0,0-20.27,14.1-35.3,0.94c0,0,13.16-35.71,8.46-45.11c-4.7-9.4-28.19-15.98-30.07-30.07c0,0-10.04,14.08-21.62,18.9
			c-11.28,4.7-20.68,4.7-33.83-0.94C695.61,191.89,710.65,172.15,710.65,172.15z"/>
		<path class="st38" d="M816.95,185.91c-1.35,0-2.7-0.06-4.02-0.17c-9.56-0.83-20.25-4.84-21.56-13.63l1.86-0.28
			c1.16,7.7,11.02,11.26,19.87,12.03c10.16,0.89,19.52-1.71,20.88-5.76c1.28-3.83-3.04-10.82-7.21-17.57
			c-4.5-7.28-8.75-14.16-7.44-18.79c0.44-1.55,1.47-2.74,3.07-3.54c2.65-1.32,4.26-2.95,4.92-4.98c1.3-3.98-1.27-8.98-3.54-13.39
			c-0.67-1.3-1.3-2.53-1.82-3.7c-0.23-0.53-0.65-0.87-1.32-1.09c-5.45-1.74-21.96,6.88-27.86,10.35l-0.95-1.62
			c0.9-0.53,22.03-12.89,29.39-10.52c1.18,0.38,2.01,1.09,2.46,2.11c0.5,1.12,1.12,2.33,1.77,3.6c2.44,4.74,5.2,10.11,3.65,14.83
			c-0.82,2.49-2.79,4.54-5.87,6.08c-1.13,0.56-1.81,1.34-2.11,2.37c-1.09,3.83,3.14,10.67,7.23,17.28c4.6,7.45,8.95,14.49,7.4,19.16
			C834.11,183.61,825.49,185.91,816.95,185.91z"/>
		<circle class="st19" cx="778.31" cy="149.6" r="3.76"/>
		<path class="st19" d="M954.98,182.75c2.87-17.23-19.76-36.8-20.72-37.62l-1.22,1.43c0.23,0.2,22.79,19.7,20.09,35.89
			c-1.34,8.01-4.81,12.75-7.59,16.56c-2.99,4.09-5.35,7.31-2.63,12c1.67,2.88,2.04,4.75,1.94,5.94c-1.43,0.26-2.95,1.74-3.74,3.87
			c-1.02,2.72-0.47,5.45,1.24,6.08c1.7,0.64,3.91-1.05,4.93-3.78c0.88-2.34,0.58-4.67-0.59-5.69c0.27-1.96-0.43-4.43-2.15-7.37
			c-2.1-3.62-0.36-6,2.52-9.94C949.8,196.35,953.57,191.2,954.98,182.75z"/>
	</g>
	<g>
		<path class="st19" d="M519.41,72.75c-44.1,0-79.84,35.75-79.84,79.84c0,44.1,35.75,79.84,79.84,79.84s79.84-35.75,79.84-79.84
			C599.26,108.5,563.51,72.75,519.41,72.75z M589.34,149.42c-16.39-9.63-16.82-11.21-8.32-29.78
			C583.96,130.17,586.41,138.93,589.34,149.42z M551.25,141.57c-3.36-0.64-6.36-1.21-9.4-1.79c2.98-10.64,2.98-10.64,13.41-6.98
			C553.97,135.62,552.71,138.36,551.25,141.57z M560.83,153.26c-2.89,2.16-5.32,3.98-8.09,6.06c-2.52-2.24-4.76-4.23-7.07-6.27
			C550.45,145.7,555.07,145.08,560.83,153.26z M551.02,163.48c1.42,2.99,2.74,5.75,4.06,8.51c-9.38,4.74-10.36,4.19-12.74-7.03
			C545.08,164.49,547.81,164.03,551.02,163.48z M554.93,162.41c2.6-1.89,5.08-3.7,7.97-5.8c7.19,9.23,6.76,10.96-3.2,14.83
			c-0.42-0.34-1.01-0.61-1.22-1.06C557.28,167.83,556.17,165.23,554.93,162.41z M567.14,171.77c9.02-0.65,5.75,8.44,9.65,13.66
			c-6.05,1.15-10.96,2.08-15.86,3.01C558.34,176.26,559.42,172.33,567.14,171.77z M571.15,144.9c3.79-1.18,9.49,3.77,16.2,6.82
			c-6.78,5.25-10.53,8.16-14.26,11.06C565.91,154.24,564.86,146.86,571.15,144.9z M560.34,117.01c5.24,0.83,9.99,1.58,16.11,2.55
			c-2.09,5.62-3.9,10.49-5.7,15.33C557.82,130.44,557.41,129.76,560.34,117.01z M558.57,94.46c6.34,6.46,12.69,12.93,19.03,19.39
			C558.5,113.22,558.5,113.22,558.57,94.46z M562.64,148.91c-2.51-1.76-5.04-3.52-8.02-5.61c1.23-2.91,2.4-5.66,3.55-8.37
			C568.76,138.18,569.47,140.52,562.64,148.91z M555.05,127.84c-2.98-0.2-6.01-0.4-9.96-0.66c-0.38-3.97-0.68-7.04-0.97-10.07
			C554.71,114.95,556.52,116.67,555.05,127.84z M555.15,111.19c-13.16,2.72-13.35,2.61-17.97-10.08c4.86-1.78,9.72-3.57,15.44-5.67
			C553.59,101.48,554.37,106.37,555.15,111.19z M519.3,126.9c-1.98-2.14-4.02-4.33-6.62-7.13c2.14-2.74,4.16-5.31,6.24-7.97
			C526.87,116.92,526.5,121.68,519.3,126.9z M523.52,109.19c8.62-6.95,10.89-6.28,14.75,4.12c-3.37,1.46-5.99,2.61-8.99,3.91
			C527.39,114.58,525.44,111.87,523.52,109.19z M510.55,117.42c-3-1.18-6.08-2.39-9.12-3.59c3.29-11.18,5.53-11.85,14.63-4.42
			C514.35,111.88,512.63,114.39,510.55,117.42z M506.79,129.78c-8.64-0.53-11.31-4.06-7.51-11.93
			C507.22,118.18,509.67,121.87,506.79,129.78z M506.26,175.48c3.36,9.52,3.03,10.12-6.69,11.86
			C495.88,178.12,496.05,177.81,506.26,175.48z M509.49,188.07c2.06,2.83,3.87,5.31,6.03,8.27c-9.52,7.12-9.92,7.03-15.19-3.84
			C503.24,191.09,506.16,189.68,509.49,188.07z M512.77,185.8c2.16-2.6,4.13-4.97,6.24-7.5c8.06,5.76,7.32,10.53-0.15,15.46
			C516.88,191.17,514.99,188.7,512.77,185.8z M528.79,188.32c3.03,1.22,5.82,2.34,8.56,3.43c-2.99,10.97-4.69,11.58-14.34,4.71
			C525.02,193.64,526.79,191.15,528.79,188.32z M532.92,175.47c7.91,0.46,10.37,4.18,7.21,11.53
			C530.04,186.13,529.51,185.27,532.92,175.47z M533.05,129.61c-3.56-9.8-2.93-10.82,7.05-11.81
			C542.96,124.44,541.86,128.93,533.05,129.61z M551.42,89.94c-14.18,10.67-19.39,9.27-29.23-7.7
			C532.4,84.92,541.38,87.29,551.42,89.94z M520.67,84.85c2.93,6.9,8.22,13.94,6.57,16.49c-4.65,7.18-11.58,4.62-17.89-1.66
			C512.43,95.63,515.62,91.46,520.67,84.85z M516.64,82.62c-10.43,16.66-12.28,17.13-30.04,7.61
			C497.36,87.51,506.08,85.3,516.64,82.62z M486.99,94.28c4.99,5.59,15.22,1.47,13.51,10.99c-1.65,9.21-8.97,8.26-16.64,6.28
			C484.81,106.35,485.69,101.44,486.99,94.28z M466.62,163.48c-4.31-3.49-8.22-6.66-14.37-11.65c6.48-2.96,11.98-7.8,16.13-6.83
			C474.62,146.46,473.88,154.2,466.62,163.48z M480,133.37c1.51,3.36,2.79,6.19,4.28,9.5c-2.8,1.97-5.54,3.89-8.28,5.82
			C469.23,139.06,469.24,139.04,480,133.37z M472.02,171.82c6.37,0.48,11.3,8.92,7.41,12.89c-2.99,3.05-10.14,2.03-15.44,2.82
			c-0.4-1.07-0.81-2.13-1.21-3.2C465.96,180.16,462.9,171.14,472.02,171.82z M476.31,156.51c2.33,1.6,4.66,3.19,7.25,4.96
			c-0.88,3-1.73,5.94-2.58,8.85C470.93,168.57,470.12,166.26,476.31,156.51z M480.98,155.47c-0.86-0.67-1.46-1.67-2.3-2.65
			c4.79-7.11,9.51-7.63,14.88,0.05c-2.08,1.97-4.24,4.02-6.86,6.5C484.27,157.73,482.55,156.7,480.98,155.47z M496.73,165.67
			c-2.85,10.63-3.31,10.88-12.41,6.98C484.98,164.82,488.97,162.54,496.73,165.67z M484.21,132.91c9.75-3.45,10.03-3.3,12.57,6.64
			C488.36,144.05,485.2,140.38,484.21,132.91z M495.24,116.77c-0.24,1.61-0.48,3.22-0.72,4.83c-0.25,1.67-0.49,3.34-0.8,5.44
			c-3.19,0.35-6.22,0.68-9.81,1.07C482.87,116.03,483.76,115.19,495.24,116.77z M468.58,134.56c-1.79-4.74-3.57-9.48-5.36-14.21
			c0.45-0.93,0.9-1.85,1.35-2.78c5.06,0.93,12.1,0.13,14.72,3.17C483.53,125.64,479.7,130.18,468.58,134.56z M480.82,94.06
			c-0.49,19.83-0.68,20.01-20.64,19.39C467.06,106.98,473.94,100.52,480.82,94.06z M457.11,119.6c9.83,15.92,8.95,19.62-7.58,27.98
			C451.94,138.67,454.36,129.76,457.11,119.6z M449.49,157.3c16.52,8.64,17.32,11.85,8.07,28.97
			C454.61,175.67,452.05,166.48,449.49,157.3z M480.02,211.23c-6.63-6.66-13.25-13.32-19.88-19.98
			c20.08,0.21,20.31,0.43,22.28,17.57C481.62,209.62,480.82,210.42,480.02,211.23z M484.33,177.44c0.54-0.06,1.11-0.23,1.63-0.14
			c2.5,0.42,4.98,0.92,7.95,1.48c0.5,3.46,0.91,6.28,1.32,9.08C483.38,190.32,481.95,188.95,484.33,177.44z M485.02,194.36
			c0.03-0.77,6.27-2.78,8.17-1.68c3.65,2.11,6.25,6.03,10.43,10.4c-6.66,2.61-11.09,4.34-17.09,6.69
			C485.83,204.12,484.83,199.22,485.02,194.36z M487.04,214.89c15.56-9.32,19.34-8.36,30.2,8.06
			C506.35,220.05,497.36,217.65,487.04,214.89z M508.96,205.96c9.67-7.44,16.82-8.29,18.43-2.01c1.06,4.14-3.63,9.76-6.43,16.31
			C515.84,214.16,512.6,210.3,508.96,205.96z M522.77,222.34c8.99-15.46,11.26-16.1,29.68-7.65
			C541.53,217.5,532.78,219.76,522.77,222.34z M551.23,209.41c-4.64-1.85-9.28-3.71-13.9-5.55c4.18-11.04,8.7-14.95,13.97-10.76
			c3.11,2.47,2.28,9.9,3.22,15.11C553.43,208.6,552.33,209.01,551.23,209.41z M544.19,188.39c0.3-3.55,0.55-6.58,0.81-9.67
			c3.5-0.56,6.55-1.05,9.56-1.54C558.05,187.46,556.28,189.56,544.19,188.39z M556.9,211.54c0.47-18.37,1.4-19.33,18.42-21.76
			c0.68,0.69,1.36,1.38,2.04,2.07C571.02,197.96,564.66,204.07,556.9,211.54z M581.48,185.21c-8.86-17.53-8.57-18.72,7.72-30.13
			C586.41,166,584.19,174.64,581.48,185.21z"/>
		<path class="st19" d="M461.53,329.49l-1.44-2.08l17.58-12.17c0.96-4.43,1.7-9.1,2.13-14l-14.67,10.16l-1.44-2.08l16.34-11.32
			c0.19-3.22,0.24-6.54,0.14-9.95l-11.24,7.78l-1.44-2.08l12.58-8.71c-0.2-3.79-0.59-7.69-1.2-11.69l-6.34,4.39l-1.44-2.08l7.3-5.05
			c-0.89-5.1-2.09-10.34-3.75-15.75c0,0-5.24,4.41-11.46,12.82l4.86,8.31l-2.19,1.28l-4.29-7.33c-1.92,2.75-3.88,5.86-5.79,9.33
			l8.67,14.83l-2.19,1.28l-7.89-13.48c-1.53,2.98-3,6.18-4.35,9.62l10.61,18.15l-2.19,1.28l-9.56-16.36
			c-1.44,4.04-2.68,8.36-3.66,12.97l11.81,20.2l-2.19,1.28l-10.36-17.71c-2.78,16.06-2.2,35.3,5.32,57.47
			c0,0,19.03-18.29,26.99-49.86L461.53,329.49z"/>
		<path class="st19" d="M525.65,385.99l-0.98-1.15l9.69-8.29c0.3-2.69,0.46-5.5,0.42-8.44l-8.09,6.92l-0.98-1.15l9.01-7.71
			c-0.08-1.92-0.26-3.9-0.52-5.91l-6.2,5.3l-0.98-1.15l6.94-5.93c-0.35-2.24-0.82-4.53-1.42-6.86l-3.49,2.99l-0.98-1.15l4.02-3.44
			c-0.84-2.97-1.87-6.01-3.18-9.12c0,0-2.84,2.93-6.02,8.3l3.39,4.63l-1.22,0.89l-2.99-4.09c-0.97,1.75-1.95,3.71-2.87,5.88
			l6.04,8.27l-1.22,0.89l-5.5-7.52c-0.73,1.86-1.4,3.85-2,5.97l7.4,10.13l-1.22,0.89l-6.67-9.12c-0.61,2.48-1.08,5.12-1.38,7.92
			l8.23,11.27l-1.22,0.89l-7.22-9.88c-0.68,9.7,0.84,21.08,6.65,33.78c0,0,10.18-12,12.99-31.22L525.65,385.99z"/>
		<path class="st19" d="M568.93,382.39l-1.42-0.51l4.28-12.01c-1.08-2.48-2.34-5-3.84-7.52l-3.57,10.03l-1.42-0.51l3.98-11.17
			c-1.03-1.63-2.16-3.25-3.4-4.87l-2.73,7.68l-1.42-0.51l3.06-8.6c-1.42-1.77-2.96-3.52-4.65-5.24l-1.54,4.33l-1.42-0.51l1.78-4.99
			c-2.21-2.16-4.61-4.28-7.3-6.33c0,0-1,3.96-1.09,10.2l5.24,2.33l-0.61,1.38l-4.63-2.06c0.03,2,0.16,4.19,0.44,6.53l9.36,4.16
			l-0.61,1.38l-8.51-3.78c0.29,1.97,0.7,4.04,1.24,6.17l11.46,5.1l-0.61,1.38l-10.33-4.59c0.71,2.45,1.61,4.98,2.74,7.56l12.75,5.67
			l-0.61,1.38l-11.18-4.97c4.24,8.75,11.23,17.86,22.59,25.98c0,0,2.85-15.48-4.29-33.54L568.93,382.39z"/>
		<path class="st39" d="M494.47,222.73c0,0-22.75,33.53-24.28,46.65"/>
		<path class="st19" d="M633.74,280.14l0.6-2.46l-20.77-5.08c-2.48-3.79-4.84-7.89-7-12.31l17.33,4.24l0.6-2.46l-19.31-4.72
			c-1.33-2.94-2.56-6.03-3.69-9.24l13.28,3.25l0.6-2.46l-14.86-3.64c-1.17-3.61-2.19-7.39-3.06-11.35l7.49,1.83l0.6-2.46l-8.62-2.11
			c-0.99-5.08-1.74-10.4-2.14-16.05c0,0,6.47,2.24,15.29,7.88l-1.57,9.5l2.5,0.41l1.38-8.38c2.77,1.88,5.72,4.08,8.75,6.64
			l-2.8,16.95l2.5,0.41l2.54-15.41c2.49,2.23,5.01,4.7,7.5,7.43l-3.42,20.75l2.5,0.41l3.08-18.69c2.78,3.26,5.49,6.85,8.06,10.81
			l-3.81,23.09l2.5,0.41l3.34-20.24c8.34,14,14.67,32.18,15.58,55.58c0,0-24.31-10.27-43.03-36.91L633.74,280.14z"/>
		<path class="st39" d="M578.05,203.19c0,0,20.37,14.13,24.17,21.31"/>
		<path class="st19" d="M557.38,428.21l-1.35-0.68l5.76-11.38c-0.76-2.6-1.69-5.25-2.86-7.95l-4.81,9.49l-1.35-0.68l5.35-10.58
			c-0.82-1.74-1.74-3.5-2.75-5.26l-3.68,7.27l-1.35-0.68l4.12-8.14c-1.18-1.93-2.5-3.86-3.95-5.79l-2.08,4.1l-1.35-0.68l2.39-4.72
			c-1.92-2.42-4.04-4.83-6.44-7.2c0,0-1.5,3.8-2.37,9.98l4.91,2.98l-0.78,1.29l-4.33-2.63c-0.22,1.99-0.37,4.18-0.39,6.54l8.76,5.31
			l-0.78,1.29l-7.97-4.83c0.04,2,0.18,4.09,0.46,6.28l10.72,6.5l-0.78,1.29l-9.66-5.86c0.39,2.52,0.97,5.15,1.77,7.84l11.93,7.24
			l-0.78,1.29l-10.46-6.34c3.1,9.21,8.88,19.13,19.13,28.62c0,0,4.78-15-0.02-33.81L557.38,428.21z"/>
		<path class="st39" d="M543.87,389.39c0,0-19.76-140.59-14.55-159.69"/>
		<path class="st39" d="M529.32,346c0,0-8.68-97.2-1.74-114.56"/>
		<path class="st39" d="M550.82,346.13c0,0-19.76-93.86-23.23-118.16"/>
		<path class="st39" d="M493.27,78.83c0,0-14.29-47-2.14-47s15.62,46.86,15.62,46.86"/>
	</g>
	<g>
		<defs>
			<path id="SVGID_19_" d="M662.42,830.53c31.44-33.55,45.74,3.9,82.97-35.03c37.23-38.93,35.74-105.57,85.61-107.67
				c49.88-2.1,102.22-25.94,137-12.92c34.78,13.02,60.27,65.98,23.65,88.15c-36.62,22.17-101.24-20.63-110.9,49.12
				c-14.42,104.11-68.62,132.91-99.05,123.41c-30.43-9.5-41.85-64.75-4.19-84.64c37.65-19.89,80.48-43.51,89.98-73.94
				c9.5-30.43,74.91-13.5,95.59-43.52s-69.16-52.32-76.79-11.75c-7.63,40.57-58.1,89.65-78.38,93.39
				c-20.28,3.74-59.38,32.53-115.04,40.02L662.42,830.53z"/>
		</defs>
		<clipPath id="SVGID_2_">
			<use xlink:href="#SVGID_19_"  style="overflow:visible;"/>
		</clipPath>
		<path style="clip-path:url(#SVGID_2_);fill:#5A8461;" d="M851.79,660.59c-35.03-13.66-62.3-52.68-75.07-4.81
			s-65.42,89.47-27.98,109.78c37.43,20.31,26.75-4.03,53.39-34.35s49.14-25.3,65.77-31.31c16.63-6.01-14.58-45.5-14.58-45.5
			L851.79,660.59z"/>
		<path style="clip-path:url(#SVGID_2_);fill:#5A8461;" d="M971.39,643.14c-19.65,17.19-37.64,35-15.9,52.58
			c21.74,17.58,65.01,43.21,66.65,13.62s-47-30.81-44.73-46.95C979.67,646.24,971.39,643.14,971.39,643.14z"/>
		<path style="clip-path:url(#SVGID_2_);fill:#5A8461;" d="M862.79,721.44c-8.47,17.6-48.83,19.49-34.74,47.42
			s49.5,54.4,65.21,22.52c15.71-31.88-38.08,0.85-37.27-21.5C856.81,747.52,862.79,721.44,862.79,721.44z"/>
		<path style="clip-path:url(#SVGID_2_);fill:#5A8461;" d="M844.89,890.33c-19.03,11.35-39.11,13.68-41.58,35.42
			c-2.47,21.73,25.51,83.18,51.37,64.54c25.86-18.64,5.57-30.01-9.34-35.59c-14.9-5.58-13.05-10.55,23.99-28.78
			C906.37,907.68,854.62,884.53,844.89,890.33z"/>
		<path style="clip-path:url(#SVGID_2_);fill:#5A8461;" d="M752.7,861.2c6.41,11.74,7.35,23.91,20.4,25.9s50.76-13.47,40.12-29.5
			s-17.98-4.05-21.68,4.81c-3.71,8.86-6.66,7.63-16.81-15.13C764.58,824.51,749.42,855.2,752.7,861.2z"/>
		<path style="clip-path:url(#SVGID_2_);fill:#5A8461;" d="M784.3,799.52c4.62,8.46,5.3,17.22,14.7,18.66
			c9.4,1.43,36.57-9.7,28.9-21.25c-7.67-11.55-12.95-2.92-15.62,3.47c-2.67,6.38-4.8,5.49-12.11-10.9
			C792.86,773.09,781.94,795.2,784.3,799.52z"/>
	</g>
	<path class="st19" d="M781.95,937.03c-14.71-5.33-25.73-21.2-27.67-40.12c-2.07-20.27,6.9-37.89,24-47.15
		c41.65-22.55,79.74-45.16,88.37-73.81c5-16.62,24.91-20.11,45.99-23.8c19.58-3.43,39.82-6.98,49.38-21.17
		c3.45-5.13,3.58-10.14,0.37-14.89c-7.77-11.52-33.03-18.61-51.99-14.59c-8.8,1.87-19.78,6.82-22.09,19.81
		c-3.26,18.33-15.74,40.83-34.24,61.72c-16.14,18.22-34.06,31.84-44.58,33.89c-7.02,1.37-16.42,5.91-28.34,11.66
		c-21.27,10.27-50.41,24.33-86.38,29.54l-0.75,0.11l-32.78-25.95l1.29-1.4c15.5-16.89,27.51-16.68,39.12-16.49
		c12.25,0.21,24.93,0.42,43.49-19.4c14.13-15.08,22.36-34.06,30.31-52.43c12.27-28.3,23.85-55.02,55.39-56.67
		c19.3-1.01,38.92-5.3,57.91-9.45c29.76-6.51,57.87-12.66,79.65-4.76c22.18,8.04,40.68,31.27,43.04,54.03
		c1.62,15.62-4.83,28.78-18.17,37.04c-9.06,5.61-18.95,10.25-29.42,15.16c-30.91,14.49-65.94,30.92-87.04,78.87
		c-26.88,61.1-60.84,90.55-93.16,80.82C783.09,937.43,782.52,937.24,781.95,937.03z M946.21,701.04
		c8.41,3.05,15.42,7.59,19.11,13.07c4.03,5.98,3.9,12.5-0.37,18.84c-10.4,15.43-31.39,19.12-51.7,22.68
		c-19.97,3.5-38.84,6.81-43.21,21.34c-9.01,29.94-47.75,52.99-90.07,75.9c-15.8,8.55-24.08,24.88-22.16,43.68
		c1.87,18.25,12.64,33.37,26.88,37.67c29.97,9.02,63.2-20.46,88.9-78.86c21.64-49.17,57.31-65.89,88.78-80.65
		c10.37-4.86,20.17-9.46,29.06-14.96c15.53-9.62,17.55-23.62,16.51-33.66c-2.19-21.15-20.08-43.59-40.73-51.07
		c-20.81-7.55-48.44-1.51-77.69,4.89c-19.12,4.18-38.89,8.51-58.48,9.53c-29.35,1.54-40,26.1-52.33,54.55
		c-8.08,18.64-16.43,37.91-30.98,53.44c-19.64,20.96-33.71,20.72-46.13,20.52c-10.99-0.19-21.38-0.36-35.16,13.96l28.58,22.63
		c35.09-5.22,63.68-19.02,84.6-29.12c12.14-5.86,21.73-10.49,29.2-11.94c19.39-3.78,68.88-52.55,76.02-92.76
		c2.07-11.65,10.89-19.7,24.84-22.65C921.38,695.56,935.04,696.99,946.21,701.04z"/>
	<g>
		
			<rect x="91.29" y="686.12" transform="matrix(0.7159 -0.6982 0.6982 0.7159 -460.2917 269.6542)" class="st19" width="19.89" height="28.73"/>
		
			<rect x="97.07" y="723.69" transform="matrix(0.7159 -0.6982 0.6982 0.7159 -484.8833 284.3613)" class="st19" width="19.89" height="28.73"/>
		
			<rect x="57.75" y="717.74" transform="matrix(0.7159 -0.6982 0.6982 0.7159 -491.5829 255.996)" class="st19" width="22.1" height="28.73"/>
		
			<rect x="79.35" y="739.89" transform="matrix(0.7159 -0.6982 0.6982 0.7159 -500.9105 277.3656)" class="st19" width="22.1" height="28.73"/>
		
			<rect x="100.95" y="762.04" transform="matrix(0.7159 -0.6982 0.6982 0.7159 -510.238 298.7352)" class="st19" width="22.1" height="28.73"/>
		
			<rect x="112.89" y="708.27" transform="matrix(0.7159 -0.6982 0.6982 0.7159 -469.6193 291.0238)" class="st19" width="19.89" height="28.73"/>
		<path class="st19" d="M119.96,702.28l16.61-16.2c-10.38-10.64-17.74-18.19-17.74-18.19s-7.45,7.87-15.28,10.27l-3.64,3.55
			L119.96,702.28z"/>
		
			<rect x="51.94" y="674.66" transform="matrix(0.7159 -0.6982 0.6982 0.7159 -465.3953 239.7141)" class="st19" width="19.89" height="34.25"/>
		
			<rect x="75.47" y="701.55" transform="matrix(0.7159 -0.6982 0.6982 0.7159 -475.5557 262.9916)" class="st19" width="19.89" height="28.73"/>
		<path class="st19" d="M131.48,780.55l-15.82,15.43l22.37,22.94c0,0,6.55-6.7,15.5-15.76L131.48,780.55z"/>
		<path class="st19" d="M58.63,671.04l23.91,24.52l14.24-13.88l-7.12-7.31c-4.06,2.3-19.83,9.85-27.07-7.19L58.63,671.04z"/>
		
			<rect x="118.66" y="745.84" transform="matrix(0.7159 -0.6982 0.6982 0.7159 -494.2108 305.7309)" class="st19" width="19.89" height="28.73"/>
		
			<rect x="34.23" y="690.86" transform="matrix(0.7159 -0.6982 0.6982 0.7159 -481.4225 232.7184)" class="st19" width="22.1" height="34.25"/>
		<path class="st19" d="M164.7,748.16l21.68,22.24c9.52-9.28,16.79-16.02,17.3-15.5c-0.44-0.45-9.91-10.16-22.37-22.94L164.7,748.16
			z"/>
		<path class="st19" d="M121.5,703.86l20.05,20.57l16.61-16.2c-7.06-7.24-14.01-14.37-20.05-20.57L121.5,703.86z"/>
		<path class="st19" d="M163.12,749.7l-14.24,13.88l21.79,22.34c4.85-4.84,9.7-9.65,14.14-13.99L163.12,749.7z"/>
		<path class="st19" d="M159.71,709.81l-16.61,16.2l20.05,20.57l16.61-16.2C173.51,723.96,166.58,716.86,159.71,709.81z"/>
		<path class="st19" d="M169.1,787.49l-21.8-22.36l-14.24,13.88l22.02,22.58C159.42,797.21,164.23,792.36,169.1,787.49z"/>
		
			<rect x="134.48" y="730.41" transform="matrix(0.7159 -0.6982 0.6982 0.7159 -478.9468 312.3934)" class="st19" width="19.89" height="28.73"/>
	</g>
</g>
<g id="text">
</g>
<g id="ILU">
</g>
<g id="Vrstva_9" class="st53">
</g>
</svg>
