<?xml version="1.0" encoding="utf-8"?>
<!-- Generator: Adobe Illustrator 22.1.0, SVG Export Plug-In . SVG Version: 6.00 Build 0)  -->
<svg version="1.1" id="Vrstva_1" xmlns="http://www.w3.org/2000/svg" xmlns:xlink="http://www.w3.org/1999/xlink" x="0px" y="0px"
	 viewBox="0 0 1280 260" style="enable-background:new 0 0 1280 260;" xml:space="preserve">
<style type="text/css">
	.st0{fill:#FFFFFF;}
</style>
<path class="st0" d="M1280,111c0,0-5-1-9,3c-4.18,4.18,0.83,13.52-6,15s-11.17-1.91-18,4s0.12,10.57-5,15s-11.02-1.12-17.85,0.36
	s-1.71,13.3-8.54,13.3s-5.12-5.91-10.25-7.39s-3.42,5.91-11.96,7.39c-8.54,1.48-6.83-5.91-13.67-5.91c-6.83,0-6.83,2.96-15.37,2.96
	s-15.37-10.35-22.21-8.87c-6.83,1.48-3.42,2.96-10.25-2.96c-6.83-5.91-17.08-1.48-20.5-1.48s-10.25-4.43-15.37-1.48
	c-5.12,2.96-11.96-4.43-15.37-5.91c-3.42-1.48-11.96-1.48-20.5-1.48s-8.54-7.39-17.08-10.35c-8.54-2.96-15.37,2.96-18.79,2.96
	c-3.42,0-10.25-2.96-17.08-2.96s-8.54,5.91-11.96,7.39c-3.42,1.48-6.83,1.48-13.67,0c-6.83-1.48-5.12,10.35-10.25,10.35
	s-13.67,0-18.79,4.43s-15.37,2.96-23.91,4.43c-8.54,1.48,0,5.91-13.67,7.39s-6.83,7.39-15.37,11.82c-8.54,4.43-11.96,1.48-18.79,0
	c-6.83-1.48-6.83,10.35-13.67,10.35c-6.83,0-13.67-4.43-13.67,1.48c0,5.91-13.67,4.43-23.91,5.91c-10.25,1.48-10.25,0-20.5,4.43
	s-17.08,2.96-23.91,2.96c-6.83,0-8.54,5.91-13.67,7.39s-8.54-1.48-17.08,0c-8.54,1.48-6.83,7.39-15.37,10.35s-5.12-5.91-18.79,1.48
	s-11.96,1.48-18.79,4.43c-6.83,2.96-5.12,11.82-15.37,11.82s-10.25-5.91-17.08-5.91s-3.42,10.35-10.25,13.3
	c-6.83,2.96-11.96-4.43-15.37-2.96c-3.42,1.48-3.42,4.43-10.25,4.43s-6.83-8.87-11.96-7.39s-5.12,7.39-6.83,5.91
	s-8.54-10.35-13.67-10.35s-6.83,2.96-10.25,2.96s-6.83-8.87-10.25-8.87s-3.42,7.39-8.54,5.91s-10.25-8.87-18.79-7.39
	s-11.96,2.96-17.08,2.96s3.42-4.43-11.96-5.91c-15.37-1.48-11.96,2.96-20.5,1.48c-8.54-1.48-11.96-2.96-18.79-10.35
	c-6.83-7.39-18.79-1.48-27.33-2.96c-8.54-1.48-13.67-7.39-20.5-7.39s-8.54,1.48-18.79,0s-10.25-4.43-17.08-7.39s-18.79,0-22.21,0
	c-3.42,0-10.25-8.87-17.08-13.3c-6.83-4.43-6.83,1.48-18.79,0c-11.96-1.48-13.67-8.87-17.08-10.35c-3.42-1.48-8.54-1.48-18.79-4.43
	c-10.25-2.96-5.12-7.39-11.96-11.82c-6.83-4.43-13.67,0-20.5-1.48s-5.12-8.87-17.08-8.87c-11.96,0-8.54-4.43-10.25-7.39
	s-13.67-1.48-20.5-1.48s-15.37-5.91-18.79-8.87c-3.42-2.96-13.67-1.48-20.5,0s-1.71-8.87-20.5-8.87s-13.67-2.96-22.21-2.96
	s-11.96,2.96-20.5,4.43c-8.54,1.48-11.96-2.96-22.21-4.43c-10.25-1.48-15.37,2.96-20.5,5.91c-5.12,2.96-11.96-5.91-27.33-4.43
	s-18.79-1.48-25.62-2.96s-10.25,1.48-18.79,2.96C1.1,115.84,4,112,0,111l0.03,149H1280V111z"/>
</svg>
