<?xml version="1.0" encoding="utf-8"?>
<!-- Generator: Adobe Illustrator 22.1.0, SVG Export Plug-In . SVG Version: 6.00 Build 0)  -->
<svg version="1.1" id="Vrstva_1" xmlns="http://www.w3.org/2000/svg" xmlns:xlink="http://www.w3.org/1999/xlink" x="0px" y="0px"
	 viewBox="0 0 1280 363" style="enable-background:new 0 0 1280 363;" xml:space="preserve">
<style type="text/css">
	.st0{fill:#5A8461;}
</style>
<path class="st0" d="M0,203c2-1,89.29-35.21,114.53-51.51c33.88-21.89,36.16-18.63,41.3-22.89c31.76-26.38,32.56-54.52,48.18-48.64
	c10.32,3.89,29.25,17.51,48.18,31.13c18.93,13.62,41.3,23.35,51.62,21.4s44.74-27.24,60.22-38.91c15.49-11.67,27.53-23.35,41.3-1.95
	s18.93,46.69,34.41,38.91c15.49-7.78,68.83-64.2,75.71-83.66c6.88-19.46,13.77-48.64,24.09-46.69s20.65,42.8,30.97,46.69
	c10.32,3.89,18.93,46.69,30.97,52.53c12.04,5.84,55.06-31.13,68.83-21.4s51.62,56.42,75.71,77.82c24.09,21.4,29.25-5.84,34.41-5.84
	c5.16,0,41.3-7.78,63.66,31.13s70.55,38.91,92.92,35.02c22.37-3.89,75.71-50.58,82.59-58.37c6.88-7.78,34.41-44.75,77.43-7.78
	c43.02,36.97,61.94,56.42,77.43,52.53c15.49-3.89,15.49,19.84,29.25,19.46C1239,221,1280,203,1280,203v160H0V203z"/>
</svg>
