<?xml version="1.0" encoding="utf-8"?>
<!-- Generator: Adobe Illustrator 22.1.0, SVG Export Plug-In . SVG Version: 6.00 Build 0)  -->
<svg version="1.1" id="Vrstva_1" xmlns="http://www.w3.org/2000/svg" xmlns:xlink="http://www.w3.org/1999/xlink" x="0px" y="0px"
	 viewBox="0 0 1280.04 260" style="enable-background:new 0 0 1280.04 260;" xml:space="preserve">
<style type="text/css">
	.st0{fill:#C0CEB6;}
</style>
<path class="st0" d="M1161.16,165.94c-66.78,4.09-128.42-12.26-164.37-14.31c-35.96-2.04-121.57,3.07-166.09,5.11
	c-44.52,2.04-80.47,26.57-143.83,25.55c-63.36-1.02-210.6-100.14-311.62-78.68C274.23,125.06,217.73,122,192.04,122
	s-53.08-19.41-90.75-21.45C63.63,98.5,20.5,102.13,0,112.91V213v10v52h1280.04v-52v-10V112.91
	C1253.5,127.14,1214,161.49,1161.16,165.94z M892.79,186.37l0.03,0.08h-0.07L892.79,186.37z"/>
</svg>
