<?xml version="1.0" encoding="utf-8"?>
<!-- Generator: Adobe Illustrator 22.1.0, SVG Export Plug-In . SVG Version: 6.00 Build 0)  -->
<svg version="1.1" id="Layer_1" xmlns="http://www.w3.org/2000/svg" xmlns:xlink="http://www.w3.org/1999/xlink" x="0px" y="0px"
	 viewBox="0 0 262.45 157.52" style="enable-background:new 0 0 262.45 157.52;" xml:space="preserve">
<style type="text/css">
	.st0{fill:#5A8461;}
	.st1{display:none;}
</style>
<g id="background">
</g>
<g id="Vrstva_10">
</g>
<g id="footer">
</g>
<g id="foto">
</g>
<g id="navbar">
</g>
<g id="hory">
</g>
<g id="illu">
	<g>
		<path class="st0" d="M61.88,87.46l-0.44-0.28c-3.82-2.44-7.46-5.07-10.85-7.8C37.33,78.47,7.07,74.04,1.11,52.55
			C-3.87,34.6,8.74,26.9,17.55,23.78c-0.42-3.26-0.5-5.69-0.54-7.06c-0.02-0.44-0.02-0.75-0.04-0.92l-0.17-1.44L137.39,0l0.17,1.44
			c0.02,0.17,0.09,0.47,0.18,0.9c5.6,27.12-3.87,55.15-26.64,78.92l-0.36,0.38L61.88,87.46z M19.93,16.92
			c0.05,1.54,0.17,4.18,0.67,7.65l0.18,1.21l-1.17,0.38C10.07,29.24-0.4,36.19,3.92,51.78l0,0c5.53,19.94,34.94,23.94,47.33,24.73
			l0.46,0.03l0.36,0.29c3.28,2.67,6.81,5.23,10.51,7.62l46.78-5.57c21.76-22.89,30.84-49.73,25.59-75.66L19.93,16.92z M41.57,67.1
			l-3.33-0.13C26.2,66.5,18.05,64.08,14,59.76c-5.22-5.58-7.56-12.73-6.11-18.67c0.91-3.72,3.72-8.76,11.94-11.64l1.53-0.54
			l0.37,1.58c2.86,12.31,8.81,23.78,17.67,34.08L41.57,67.1z M19.28,32.77c-4.66,1.99-7.61,5.08-8.58,9.01
			c-1.22,4.99,0.85,11.12,5.41,15.99c3.1,3.31,9.61,5.4,18.93,6.11C27.42,54.36,22.13,43.91,19.28,32.77z"/>
	</g>
	<path class="st0" d="M242.94,92.88c0.28-5.1-0.09-8.42-0.07-9.17l-118.48-3.53c-0.08,2.78-7.69,40.53,32.94,76.02l48.13,1.44
		c3.82-2.95,7.24-5.94,10.33-8.95c12.27-1.89,42.23-8.65,46.16-30C265.17,101.13,252.29,95.01,242.94,92.88z M250.04,126.37
		c-4.16,5.32-14.17,7.71-22.55,8.79c9.78-13.64,13.5-26.62,14.84-36.16C257.82,102.93,257.41,116.95,250.04,126.37z"/>
</g>
<g id="text">
</g>
<g id="ILU">
</g>
<g id="Vrstva_9" class="st1">
</g>
</svg>
