<?xml version="1.0" encoding="utf-8"?>
<!-- Generator: Adobe Illustrator 23.0.0, SVG Export Plug-In . SVG Version: 6.00 Build 0)  -->
<svg version="1.1" xmlns="http://www.w3.org/2000/svg" xmlns:xlink="http://www.w3.org/1999/xlink" x="0px" y="0px"
	 viewBox="0 0 233.46 235.7" style="enable-background:new 0 0 233.46 235.7;" xml:space="preserve">
<style type="text/css">
	.st0{clip-path:url(#SVGID_2_);}
	.st1{clip-path:url(#SVGID_6_);}
	.st2{fill:#365B3E;}
	.st3{fill:#325E4C;}
	.st4{fill:#D1A63B;}
	.st5{fill:#516D3E;}
	.st6{fill:#9B5E34;}
	.st7{fill:#B2D3B9;}
	.st8{fill:#F0D757;}
	.st9{fill:#FFFFFF;}
	.st10{opacity:0.32;fill:#95B599;}
	.st11{opacity:0.32;fill:#365B3E;}
	.st12{fill:#606060;}
	.st13{fill:#FDFDFD;}
	.st14{fill:#DBDDD9;stroke:#5A8461;stroke-width:8;stroke-miterlimit:10;}
	.st15{opacity:0.88;}
	.st16{opacity:0.69;}
	.st17{fill:#966F36;}
	.st18{fill:#513119;}
	.st19{fill:#5A8461;}
	.st20{fill:#98795D;}
	.st21{fill:#845736;}
	.st22{fill:#2A0D07;}
	.st23{fill:#7C2219;}
	.st24{fill:#AD4A00;}
	.st25{fill:#EFBC4D;}
	.st26{fill:#F9E81C;}
	.st27{fill:#EA8E50;}
	.st28{fill:#877057;}
	.st29{fill:none;stroke:#516D3E;stroke-width:2;stroke-miterlimit:10;}
	.st30{fill:none;stroke:#516D3E;stroke-width:4;stroke-miterlimit:10;}
	.st31{fill:none;stroke:#966F36;stroke-miterlimit:10;}
	.st32{fill:none;stroke:#513119;stroke-width:4;stroke-miterlimit:10;}
	.st33{fill:#C0CEB6;}
	.st34{fill:none;stroke:#5A8461;stroke-width:6;stroke-miterlimit:10;}
	.st35{fill:none;stroke:#325E4C;stroke-width:7;stroke-miterlimit:10;}
	.st36{fill:#5A8461;stroke:#5A8461;stroke-width:9;stroke-miterlimit:10;}
	.st37{fill:none;stroke:#5A8461;stroke-width:2;stroke-miterlimit:10;}
	.st38{fill:#5A8461;stroke:#5A8461;stroke-miterlimit:10;}
	.st39{fill:none;stroke:#5A8461;stroke-miterlimit:10;}
	.st40{clip-path:url(#SVGID_12_);fill:#5A8461;}
	.st41{clip-path:url(#SVGID_14_);fill:#5A8461;}
	.st42{fill:#CEC8BC;}
	.st43{fill:none;stroke:#95B599;stroke-miterlimit:10;}
	.st44{fill:none;stroke:#95B599;stroke-width:2;stroke-miterlimit:10;}
	.st45{clip-path:url(#SVGID_16_);fill:#5A8461;}
	.st46{opacity:0.56;fill:#5A8461;}
	.st47{fill:none;stroke:#98795D;stroke-width:5;stroke-miterlimit:10;}
	.st48{fill:#95B599;}
	.st49{fill:#C6C5C4;}
	.st50{fill:#FDFAF6;}
	.st51{fill:#572B1F;}
	.st52{display:none;}
	.st53{display:inline;}
	.st54{fill:#FCEF03;}
</style>
<g id="background">
</g>
<g id="Vrstva_10">
</g>
<g id="footer">
</g>
<g id="foto">
</g>
<g id="navbar">
</g>
<g id="hory">
</g>
<g id="illu">
</g>
<g id="text">
	<g>
		<circle class="st34" cx="116.91" cy="119.56" r="95.21"/>
		<path class="st36" d="M43.73,175.85c0,0,4.94-9.48,9.7-20.59s-9.52-15.87-7.14-29.36c2.38-13.49,19.04-14.28,22.22-23.8
			s-3.17-20.63-11.9-20.63S39.73,70.85,39.73,70.85S4.61,124.45,43.73,175.85z"/>
		<path class="st36" d="M181.17,75.13c-3.97,0-29.36-11.11-30.94-7.93c-1.59,3.17-14.28,15.07-15.87,19.83
			c-1.59,4.76-4.76,21.42,4.76,23.8c9.52,2.38,24.6-2.38,34.12,0c9.52,2.38,29.23,4.03,33.49,20.02c4,15,2-21,2-21l-4-22
			l-12.44-21.14c-0.7-1.2-2.47-1.07-2.99,0.22C187.68,70.93,185.48,75.13,181.17,75.13z"/>
		<path class="st36" d="M179.73,187.85c0,0-8.87,3.11-12.05,3.11s-12.69,1.59-23.01,3.17c-10.31,1.59-22.22,0.79-28.56,1.59
			c-6.35,0.79-4.76,17.45-4.76,17.45S154.73,217.85,179.73,187.85z"/>
	</g>
</g>
<g id="ILU">
</g>
<g id="Vrstva_9" class="st52">
</g>
</svg>
