<?xml version="1.0" encoding="utf-8"?>
<!-- Generator: Adobe Illustrator 22.1.0, SVG Export Plug-In . SVG Version: 6.00 Build 0)  -->
<svg version="1.1" id="Layer_1" xmlns="http://www.w3.org/2000/svg" xmlns:xlink="http://www.w3.org/1999/xlink" x="0px" y="0px"
	 viewBox="0 0 189.94 197.22" style="enable-background:new 0 0 189.94 197.22;" xml:space="preserve">
<style type="text/css">
	.st0{fill:#5A8461;}
	.st1{display:none;}
</style>
<g id="illu">
	<g>
		<path class="st0" d="M15.87,195.69c-2.73-1.05-4.92-2.58-6.55-4.59c-7.81-9.63-10.73-18.99-8.69-27.84
			c2.56-11.12,12.76-20.9,30.3-29.08c5.8-2.7,11.23-5.07,16.02-7.15c24.9-10.83,38.62-16.8,49.31-44.67L127.84,0l62.4,23.93
			l-0.3,0.85c-1.47,4.15-36.09,101.82-44.95,117.2c-6.43,11.16-75.78,52.19-114.15,55.24C24.78,197.7,19.77,197.19,15.87,195.69z
			 M128.91,2.41L97.99,83.04c-10.97,28.6-25.77,35.04-50.31,45.71c-4.78,2.08-10.2,4.44-15.98,7.13
			c-16.99,7.92-26.84,17.28-29.27,27.81c-1.9,8.26,0.9,17.09,8.33,26.25c3.55,4.37,10.25,6.2,19.93,5.43
			c36.88-2.93,106.52-43.62,112.69-54.31c8.34-14.48,41-106.17,44.5-116.04L128.91,2.41z"/>
		<polygon class="st0" points="168.52,37.76 164.61,28.75 155.85,32.76 152.17,24.27 143.59,28.2 140.06,20.07 132.18,23.68 
			128.89,16.08 122.21,19.13 121.44,17.44 129.84,13.6 133.13,21.2 141.01,17.59 144.54,25.72 153.12,21.8 156.8,30.28 
			165.56,26.27 169.47,35.28 178.75,31.03 183.27,41.45 181.57,42.19 177.8,33.51 		"/>
		<polygon class="st0" points="164.88,49.28 160.88,40.23 152.03,44.21 148.26,35.69 139.59,39.58 135.98,31.42 128.02,35 
			124.65,27.37 117.89,30.41 117.13,28.71 125.59,24.91 128.96,32.54 136.92,28.97 140.53,37.13 149.2,33.23 152.97,41.75 
			161.82,37.77 165.82,46.82 175.2,42.61 179.81,53.04 178.12,53.79 174.26,45.07 		"/>
		<polygon class="st0" points="160.56,60.55 156.55,51.5 147.71,55.48 143.94,46.96 135.27,50.86 131.66,42.69 123.7,46.27 
			120.32,38.64 113.57,41.68 112.81,39.98 121.27,36.18 124.64,43.81 132.6,40.24 136.21,48.4 144.88,44.5 148.65,53.02 
			157.5,49.04 161.5,58.09 170.88,53.88 175.49,64.31 173.79,65.07 169.93,56.34 		"/>
		<polygon class="st0" points="156.23,71.82 152.23,62.77 143.39,66.75 139.62,58.23 130.95,62.13 127.34,53.97 119.38,57.54 
			116,49.91 109.24,52.95 108.48,51.25 116.94,47.45 120.32,55.08 128.28,51.51 131.89,59.67 140.56,55.77 144.33,64.29 
			153.18,60.32 157.18,69.36 166.56,65.15 171.17,75.58 169.47,76.34 165.61,67.61 		"/>
		<path class="st0" d="M152.88,121.44l-43.79-10.29L94.82,174.3c0,0,44.38-25.08,47.84-30.8
			C146.12,137.78,152.88,121.44,152.88,121.44z"/>
		<path class="st0" d="M17.13,143.14c-18.53,13.2-21.52,29.58-7.09,47.38c6.32,7.79,21.08,7.22,38.63,2.34L17.13,143.14z"/>
	</g>
</g>
</svg>
