<?xml version="1.0" encoding="utf-8"?>
<!-- Generator: Adobe Illustrator 23.0.0, SVG Export Plug-In . SVG Version: 6.00 Build 0)  -->
<svg version="1.1" id="Vrstva_1" xmlns="http://www.w3.org/2000/svg" xmlns:xlink="http://www.w3.org/1999/xlink" x="0px" y="0px"
	 viewBox="0 0 359.71 480.97" style="enable-background:new 0 0 359.71 480.97;" xml:space="preserve">
<style type="text/css">
	.st0{fill:#5B8562;}
	.st1{fill:#C6C5C5;}
	.st2{fill:#FEFBF7;}
	.st3{fill:#582B1F;}
	.st4{fill:#9C5F34;}
	.st5{fill:#345F4D;}
</style>
<g>
	<g>
		<path class="st4" d="M61.05,19.48c10.28-3.81,22.11-5.57,30.49-11.9c14.81-11.19,30.25-7.33,45.44-5.05
			c3.25,0.49,6.82,10.28,7.2,15.99c0.71,10.67,1.89,17.56,15.31,19.55c10.78,1.59,20.73,8.84,32.46,14.23
			c2.88-13.96,9.29-10.71,18.63-7.92c14.99,4.48,31.1,5.07,46.58,8.14c4.07,0.81,9.88,3.98,10.86,7.27
			c4.92,16.42,7.12,33.74,12.88,49.81c8.34,23.27,12.49,49.78,38.89,62.05c2.46,1.14,5.07,3.44,6.12,5.86
			c4.66,10.74,11.66,10.99,21.07,6.33c3.37-1.67,7.91-0.96,11.91-1.34c0.06,4.58,1.9,10.22-0.1,13.58
			c-12.82,21.59-20.13,46.57-40.9,63.35c-14.84,12-22,44.81-15.5,62.41c6.9,18.69,0.08,42.19-16.49,53.62
			c-9.35,6.45-13.19,13.98-15.21,25.61c-2.35,13.51-9.5,26.68-16.69,38.72c-7.84,13.13-15.9,28.27-28.02,36.05
			c-10.17,6.53-26.5,5.45-39.72,4.07c-4.28-0.45-9.16-12.15-10.66-19.35c-6.42-30.96-12.24-62.08-16.97-93.35
			c-1.07-7.1,3.79-14.9,4.63-22.53c1.43-12.99,2.27-26.09,2.46-39.15c0.07-4.59-2.16-9.35-3.89-13.82
			c-7.9-20.46-17.83-40.08-18.27-63c-0.18-9.29-19.14-19.17-32.86-18.29c-8.49,0.55-17.42,2.17-25.12,5.61
			c-24.82,11.1-45.49,2.79-56.1-19.7c-2.4-5.09-5.64-10.65-10.07-13.76C3.29,171.29-1.5,156,0.94,137.39
			c0.37-2.84,0.43-5.81,0.06-8.65c-3.18-24.53-0.02-45.64,26.72-56.39c4.6-1.85,10.82-8.88,10.29-12.69
			C35.34,40.24,47.28,28.71,61.05,19.48z"/>
	</g>
</g>
</svg>
