<?xml version="1.0" encoding="utf-8"?>
<!-- Generator: Adobe Illustrator 23.0.0, SVG Export Plug-In . SVG Version: 6.00 Build 0)  -->
<svg version="1.1" id="Vrstva_1" xmlns="http://www.w3.org/2000/svg" xmlns:xlink="http://www.w3.org/1999/xlink" x="0px" y="0px"
	 viewBox="0 0 162.69 157.57" style="enable-background:new 0 0 162.69 157.57;" xml:space="preserve">
<style type="text/css">
	.st0{fill:#5B8562;}
	.st1{fill:#C6C5C5;}
	.st2{fill:#FEFBF7;}
	.st3{fill:#582B1F;}
	.st4{fill:#9C5F34;}
	.st5{fill:#345F4D;}
</style>
<g>
	<path class="st5" d="M33.48,120.03c-17.29,0-31.36-14.07-31.36-31.36c0-17.29,14.07-31.36,31.36-31.36s31.36,14.07,31.36,31.36
		C64.84,105.96,50.77,120.03,33.48,120.03z M33.48,64.32c-13.43,0-24.36,10.93-24.36,24.36s10.93,24.36,24.36,24.36
		s24.36-10.93,24.36-24.36S46.91,64.32,33.48,64.32z"/>
	<path class="st5" d="M129.26,120.03c-17.29,0-31.36-14.07-31.36-31.36c0-17.29,14.07-31.36,31.36-31.36
		c17.29,0,31.36,14.07,31.36,31.36C160.61,105.96,146.55,120.03,129.26,120.03z M129.26,64.32c-13.43,0-24.36,10.93-24.36,24.36
		s10.93,24.36,24.36,24.36s24.36-10.93,24.36-24.36S142.69,64.32,129.26,64.32z"/>
	<path class="st5" d="M27.06,92.22l30.45-49.81l58.8-0.2l-39.86,48.9L27.06,92.22z M61.44,49.4L39.72,84.94l33.34-0.75l28.47-34.92
		L61.44,49.4z"/>
	<circle class="st5" cx="74.29" cy="89.42" r="8.11"/>
	<circle class="st5" cx="33.48" cy="88.67" r="5.68"/>
	<polygon class="st5" points="125.87,89.77 105.84,34.32 92.64,34.32 92.64,27.32 110.75,27.32 132.46,87.39 	"/>
	
		<rect x="61.75" y="36.57" transform="matrix(0.9391 -0.3437 0.3437 0.9391 -17.6328 26.2588)" class="st5" width="7" height="52.58"/>
	<rect x="47.36" y="34.92" class="st5" width="20.87" height="4.84"/>
</g>
</svg>
