<?xml version="1.0" encoding="utf-8"?>
<!-- Generator: Adobe Illustrator 23.0.0, SVG Export Plug-In . SVG Version: 6.00 Build 0)  -->
<svg version="1.1" id="Vrstva_1" xmlns="http://www.w3.org/2000/svg" xmlns:xlink="http://www.w3.org/1999/xlink" x="0px" y="0px"
	 viewBox="0 0 162.69 157.57" style="enable-background:new 0 0 162.69 157.57;" xml:space="preserve">
<style type="text/css">
	.st0{fill:#5B8562;}
	.st1{fill:#C6C5C5;}
	.st2{fill:#FEFBF7;}
	.st3{fill:#582B1F;}
	.st4{fill:#9C5F34;}
	.st5{fill:#345F4D;}
</style>
<path class="st5" d="M125.4,39.62c-0.03-4.02-2.57-6.84-6.55-7.44c-0.61-0.09-1.22-0.27-1.82-0.45c-4.19-1.27-8.35-2.67-12.58-3.79
	c-18.33-4.85-36.34-4.1-53.98,3.16c-1.31,0.54-2.8,0.66-4.1,1.22c-2.44,1.05-4.99,2.02-7.14,3.54c-1.07,0.75-1.9,2.63-1.9,4
	c-0.11,24.4-0.1,48.8-0.02,73.19c0.01,1.46,0.64,3.07,1.4,4.36c1.22,2.05,3.38,2.83,5.82,3.09c0,2.37-0.04,4.62,0.01,6.86
	c0.05,2.55,1.45,3.93,4.01,3.95c3.39,0.04,6.77,0.03,10.16,0c2.91-0.02,4.2-1.34,4.22-4.29c0.01-2.17,0-4.34,0-6.56
	c12.34,0,24.42,0,36.45,0c0.11,0.19,0.22,0.3,0.22,0.41c0.04,2.13,0.04,4.26,0.09,6.39c0.06,2.73,1.35,4.02,4.07,4.04
	c3.32,0.03,6.65,0.02,9.97,0c2.97-0.02,4.23-1.27,4.26-4.23c0.02-2.18,0-4.37,0-6.5c5.49-1.16,7.4-3.51,7.4-8.9
	c0-17.56,0-35.12,0-52.69C125.42,52.54,125.45,46.08,125.4,39.62z M67.27,32.14c4.64-0.02,9.29-0.01,13.93-0.01
	c4.71,0,9.41-0.01,14.12,0c2.72,0.01,4.35,1.38,4.35,3.6c0.01,2.2-1.69,3.65-4.32,3.66c-9.35,0.01-18.7,0.01-28.05,0
	c-2.67,0-4.33-1.41-4.35-3.63C62.94,33.56,64.58,32.15,67.27,32.14z M53.67,109.44c-5-0.03-9.11-4.13-9.11-9.09
	c0-5.05,4.17-9.12,9.3-9.08c5.06,0.04,9.09,4.06,9.09,9.07C62.94,105.41,58.79,109.48,53.67,109.44z M108.8,109.44
	c-5.13-0.02-9.16-4.13-9.08-9.25c0.08-5.05,4.1-8.95,9.21-8.92c5.09,0.03,9.07,3.99,9.08,9.04
	C118.02,105.43,113.95,109.47,108.8,109.44z M118.01,73.5c-0.01,3.38-1.26,4.61-4.69,4.61c-21.33,0.01-42.66,0-64,0
	c-3.48,0-4.77-1.29-4.77-4.77c-0.01-6.59-0.01-13.18,0-19.76c0-3.38,1.3-4.7,4.65-4.7c10.73-0.01,21.46,0,32.19,0
	c10.6,0,21.21,0,31.81,0c3.66,0,4.81,1.16,4.81,4.87C118.02,60.33,118.02,66.91,118.01,73.5z"/>
</svg>
