<?xml version="1.0" encoding="utf-8"?>
<!-- Generator: Adobe Illustrator 23.0.0, SVG Export Plug-In . SVG Version: 6.00 Build 0)  -->
<svg version="1.1" id="Vrstva_1" xmlns="http://www.w3.org/2000/svg" xmlns:xlink="http://www.w3.org/1999/xlink" x="0px" y="0px"
	 viewBox="0 0 162.69 157.57" style="enable-background:new 0 0 162.69 157.57;" xml:space="preserve">
<style type="text/css">
	.st0{fill:#5B8562;}
	.st1{fill:#C6C5C5;}
	.st2{fill:#FEFBF7;}
	.st3{fill:#582B1F;}
	.st4{fill:#9C5F34;}
	.st5{fill:#345F4D;}
</style>
<g>
	<path class="st5" d="M54.52,114.85c0,1.62,0.02,3.14,0,4.65c-0.06,4.36-1.9,6.32-6.18,6.41c-3.32,0.07-6.63,0.06-9.95,0.01
		c-4.22-0.07-6.27-2.08-6.44-6.28c-0.06-1.54-0.01-3.08-0.01-4.54c-4.73-1.87-5.43-2.9-5.43-7.93c0-8.4-0.01-16.8,0-25.21
		c0.01-4.61,1.32-5.96,5.84-6.77c0.87-0.16,1.93-1.25,2.24-2.14c3.16-9.15,6.04-18.4,9.3-27.51c1.29-3.59,3.05-7.09,5.1-10.31
		c2.2-3.45,5.76-5.1,9.89-5.11c15.92-0.04,31.84-0.04,47.76-0.01c4.95,0.01,8.96,2.22,11.13,6.54c2.51,4.99,4.44,10.29,6.33,15.56
		c2.42,6.74,4.56,13.59,6.77,20.41c0.54,1.68,1.11,2.78,3.33,2.76c2.96-0.02,5.14,2.34,5.17,5.4c0.1,9.51,0.22,19.02-0.14,28.52
		c-0.06,1.73-1.97,3.99-3.63,4.9c-1.6,0.87-2.06,1.6-1.98,3.17c0.06,1.1,0.05,2.21-0.03,3.31c-0.24,3.15-2.12,5.09-5.31,5.2
		c-3.64,0.13-7.3,0.1-10.94,0.03c-4.09-0.08-5.92-2.01-6.03-6.2c-0.04-1.53-0.01-3.06-0.01-4.85
		C92.29,114.85,73.59,114.85,54.52,114.85z M120.17,75.13c-3.69-10.55-7.26-20.82-10.91-31.07c-0.86-2.43-2.88-2.94-5.34-2.93
		c-13.91,0.08-27.83,0.13-41.74-0.03c-3.28-0.04-5.26,1.13-6.26,4.12c-2.06,6.15-4.1,12.32-6.14,18.48
		c-1.23,3.73-2.44,7.48-3.72,11.42C70.88,75.13,95.24,75.13,120.17,75.13z M46.1,105.12c5.4,0.02,10.22-4.76,10.23-10.14
		c0.01-5.36-4.83-10.22-10.19-10.23c-5.41-0.01-10.16,4.75-10.19,10.19C35.93,100.36,40.64,105.09,46.1,105.12z M109.56,94.84
		c-0.05,5.56,4.46,10.21,9.96,10.27c5.52,0.06,10.15-4.48,10.23-10.04c0.08-5.46-4.55-10.24-10-10.33
		C114.35,84.65,109.6,89.36,109.56,94.84z"/>
</g>
</svg>
