<?xml version="1.0" encoding="utf-8"?>
<!-- Generator: Adobe Illustrator 23.0.0, SVG Export Plug-In . SVG Version: 6.00 Build 0)  -->
<svg version="1.1" id="Vrstva_1" xmlns="http://www.w3.org/2000/svg" xmlns:xlink="http://www.w3.org/1999/xlink" x="0px" y="0px"
	 viewBox="0 0 241.51 233.92" style="enable-background:new 0 0 241.51 233.92;" xml:space="preserve">
<style type="text/css">
	.st0{fill:#5B8562;}
	.st1{fill:#C6C5C5;}
	.st2{fill:#FEFBF7;}
	.st3{fill:#582B1F;}
	.st4{fill:#9C5F34;}
	.st5{fill:#345F4D;}
</style>
<circle class="st1" cx="36.55" cy="157.62" r="32.79"/>
<g>
	<path class="st2" d="M56.94,156.49c-0.06,4.5-1.12,8.23-3.34,11.58c-0.36,0.54-0.32,0.84,0.13,1.28c1.6,1.54,3.15,3.12,4.71,4.69
		c1.09,1.09,1.35,2.1,0.86,3.2c-0.53,1.19-2.09,2.17-3.33,2.08c-0.77-0.06-1.36-0.46-1.87-1.02c-1.48-1.61-3.01-3.18-4.46-4.82
		c-0.43-0.48-0.67-0.39-1.11-0.07c-3.58,2.62-7.62,3.92-12.05,3.92c-10.27-0.01-19.04-7.86-20.19-18.03
		c-1.26-11.16,6.64-21.17,17.84-22.6c10.78-1.38,21.07,6.46,22.56,17.2C56.82,154.93,56.89,155.95,56.94,156.49z"/>
	<path class="st3" d="M53.1,156.85c-0.05,9.2-7.51,16.58-16.68,16.51c-9.13-0.07-16.5-7.54-16.43-16.68
		c0.07-9.11,7.51-16.48,16.6-16.43C45.76,140.3,53.16,147.73,53.1,156.85z"/>
</g>
<circle class="st1" cx="120.75" cy="157.62" r="32.79"/>
<g>
	<path class="st2" d="M141.14,156.49c-0.06,4.5-1.12,8.23-3.34,11.58c-0.36,0.54-0.32,0.84,0.13,1.28c1.6,1.54,3.15,3.12,4.71,4.69
		c1.09,1.09,1.35,2.1,0.86,3.2c-0.53,1.19-2.09,2.17-3.33,2.08c-0.77-0.06-1.36-0.46-1.87-1.02c-1.48-1.61-3.01-3.18-4.46-4.82
		c-0.43-0.48-0.67-0.39-1.11-0.07c-3.58,2.62-7.62,3.92-12.05,3.92c-10.27-0.01-19.04-7.86-20.19-18.03
		c-1.26-11.16,6.64-21.17,17.84-22.6c10.78-1.38,21.07,6.46,22.56,17.2C141.02,154.93,141.09,155.95,141.14,156.49z"/>
	<path class="st3" d="M137.3,156.85c-0.05,9.2-7.51,16.58-16.68,16.51c-9.13-0.07-16.5-7.54-16.43-16.68
		c0.07-9.11,7.51-16.48,16.6-16.43C129.96,140.3,137.36,147.73,137.3,156.85z"/>
</g>
<circle class="st1" cx="204.95" cy="157.62" r="32.79"/>
<g>
	<path class="st2" d="M225.34,156.49c-0.06,4.5-1.12,8.23-3.34,11.58c-0.36,0.54-0.32,0.84,0.13,1.28c1.6,1.54,3.15,3.12,4.71,4.69
		c1.09,1.09,1.35,2.1,0.86,3.2c-0.53,1.19-2.09,2.17-3.33,2.08c-0.77-0.06-1.36-0.46-1.87-1.02c-1.48-1.61-3.01-3.18-4.46-4.82
		c-0.43-0.48-0.67-0.39-1.11-0.07c-3.58,2.62-7.62,3.92-12.05,3.92c-10.27-0.01-19.04-7.86-20.19-18.03
		c-1.26-11.16,6.64-21.17,17.84-22.6c10.78-1.38,21.07,6.46,22.56,17.2C225.22,154.93,225.29,155.95,225.34,156.49z"/>
	<path class="st3" d="M221.5,156.85c-0.05,9.2-7.51,16.58-16.68,16.51c-9.13-0.07-16.5-7.54-16.43-16.68
		c0.07-9.11,7.51-16.48,16.6-16.43C214.16,140.3,221.55,147.73,221.5,156.85z"/>
</g>
<circle class="st1" cx="77.54" cy="82.36" r="32.79"/>
<g>
	<path class="st2" d="M97.92,81.23c-0.06,4.5-1.12,8.23-3.34,11.58c-0.36,0.54-0.32,0.84,0.13,1.28c1.6,1.54,3.15,3.12,4.71,4.69
		c1.09,1.09,1.35,2.1,0.86,3.2c-0.53,1.19-2.09,2.17-3.33,2.08c-0.77-0.06-1.36-0.46-1.87-1.02c-1.48-1.61-3.01-3.18-4.46-4.82
		c-0.43-0.48-0.67-0.39-1.11-0.07c-3.58,2.62-7.62,3.92-12.05,3.92c-10.27-0.01-19.04-7.86-20.19-18.03
		c-1.26-11.16,6.64-21.17,17.84-22.6c10.78-1.38,21.07,6.46,22.56,17.2C97.81,79.67,97.87,80.7,97.92,81.23z"/>
	<path class="st3" d="M94.08,81.59c-0.05,9.2-7.51,16.58-16.68,16.51c-9.13-0.07-16.5-7.54-16.43-16.68
		c0.07-9.11,7.51-16.48,16.6-16.43C86.74,65.04,94.14,72.47,94.08,81.59z"/>
</g>
<circle class="st1" cx="161.74" cy="82.36" r="32.79"/>
<g>
	<path class="st2" d="M182.12,81.23c-0.06,4.5-1.12,8.23-3.34,11.58c-0.36,0.54-0.32,0.84,0.13,1.28c1.6,1.54,3.15,3.12,4.71,4.69
		c1.09,1.09,1.35,2.1,0.86,3.2c-0.53,1.19-2.09,2.17-3.33,2.08c-0.77-0.06-1.36-0.46-1.87-1.02c-1.48-1.61-3.01-3.18-4.46-4.82
		c-0.43-0.48-0.67-0.39-1.11-0.07c-3.58,2.62-7.62,3.92-12.05,3.92c-10.27-0.01-19.04-7.86-20.19-18.03
		c-1.26-11.16,6.64-21.17,17.84-22.6c10.78-1.38,21.07,6.46,22.56,17.2C182.01,79.67,182.07,80.7,182.12,81.23z"/>
	<path class="st3" d="M178.28,81.59c-0.05,9.2-7.51,16.58-16.68,16.51c-9.13-0.07-16.5-7.54-16.43-16.68
		c0.07-9.11,7.51-16.48,16.6-16.43C170.94,65.04,178.34,72.47,178.28,81.59z"/>
</g>
</svg>
