<?xml version="1.0" encoding="utf-8"?>
<!-- Generator: Adobe Illustrator 23.0.0, SVG Export Plug-In . SVG Version: 6.00 Build 0)  -->
<svg version="1.1" id="Vrstva_1" xmlns="http://www.w3.org/2000/svg" xmlns:xlink="http://www.w3.org/1999/xlink" x="0px" y="0px"
	 viewBox="0 0 241.51 233.92" style="enable-background:new 0 0 241.51 233.92;" xml:space="preserve">
<style type="text/css">
	.st0{fill:#5B8562;}
	.st1{fill:#C6C5C5;}
	.st2{fill:#FEFBF7;}
	.st3{fill:#582B1F;}
	.st4{fill:#9C5F34;}
	.st5{fill:#345F4D;}
</style>
<circle class="st1" cx="120.91" cy="117.99" r="83.51"/>
<g>
	<path class="st2" d="M172.84,113.34c-0.14,11.47-2.85,20.95-8.5,29.51c-0.91,1.37-0.82,2.14,0.34,3.26
		c4.06,3.92,8.02,7.96,12.01,11.96c2.77,2.78,3.44,5.34,2.18,8.16c-1.35,3.02-5.33,5.53-8.48,5.29c-1.96-0.15-3.46-1.18-4.77-2.6
		c-3.78-4.1-7.66-8.1-11.37-12.27c-1.09-1.22-1.72-0.99-2.84-0.17c-9.13,6.69-19.42,9.99-30.69,9.98
		c-26.16-0.02-48.49-20.03-51.43-45.94C66.08,92.1,86.2,66.6,114.73,62.96c27.46-3.51,53.67,16.46,57.46,43.81
		C172.54,109.36,172.71,111.97,172.84,113.34z"/>
	<path class="st3" d="M163.06,114.24c-0.14,23.43-19.12,42.22-42.48,42.05c-23.27-0.17-42.03-19.21-41.85-42.49
		c0.17-23.2,19.14-41.96,42.29-41.84C144.37,72.09,163.2,91.03,163.06,114.24z"/>
</g>
</svg>
