<?xml version="1.0" encoding="utf-8"?>
<!-- Generator: Adobe Illustrator 22.1.0, SVG Export Plug-In . SVG Version: 6.00 Build 0)  -->
<svg version="1.1" id="Layer_1" xmlns="http://www.w3.org/2000/svg" xmlns:xlink="http://www.w3.org/1999/xlink" x="0px" y="0px"
	 viewBox="0 0 407.5 407.5" style="enable-background:new 0 0 407.5 407.5;" xml:space="preserve">
<style type="text/css">
	.st0{fill:#FDFDFD;}
	.st1{fill:#1C1C1A;}
	.st2{fill:#1D1D1B;}
	.st3{fill:#FEFEFE;}
	.st4{fill:#1C1D1B;}
</style>
<g>
	<path class="st0" d="M391.9,278.7c-2,10.9-13.4,29.9-13.4,29.9c-3.3,5.1-3.9,6.2-5.7,9.1c-7.3,11.3-26.2,15.9-38.5,13.7
		c-25.7-4.7-41.6-35.8-35.4-69.6c6.1-33.8,32-57.3,57.7-52.7C382.1,213.8,398,245,391.9,278.7z"/>
	<path class="st1" d="M378,309.3c-0.1-0.1-0.1-0.1-0.1-0.1c-0.4-2.5-2.3-2.2-4-2.2c-3.2,0.1-6.5,0.4-9.5-0.8
		c-7.3-2.8-14.9-4.8-22-8.4c-5.3-2.6-9-6.4-9.8-12.4c-0.5-3.4-0.7-6.9-0.7-10.4c0-1,0-1.9,0-2.9c0.1-1.9,1-2.7,2.9-2.3
		c5.1,1,10.2,1.9,15.3,3c2.2,0.4,4.3,0.3,6.4,0.1c5.1-0.3,10.2-0.6,15.3-1.2c2.6-0.3,5-1.4,6.9-3.3c0.9-0.9,1.9-1.6,2.8-2.4
		c2.9-2.5,4.7-5.7,5.6-9.4c0.2-1,0.2-2-0.2-2.9c-0.8-1.9-1.8-3.8-3.2-5.4c-3.2-3.6-6.1-7.4-8.7-11.5c-1-1.6-2.2-2.8-3.8-3.8
		c-7-4.3-14.6-6.3-22.8-6.2c-4.7,0-9.3,0.9-13.7,2.5c-1.1,0.4-2.2,0.9-3.2,1.6c-5.4,4.1-9.8,8.9-10.9,16c-0.8,4.8-2.7,9.1-5.7,12.9
		c-1.1,1.4-2.1,2.9-3.2,4.3c-3.1,3.7-4.3,8.2-4.4,12.9c-0.1,4.2,0.5,8.5,1.6,12.6c0.7,2.7,2,5,4.2,6.8c5,4,9.5,8.5,13.6,13.3
		c4.4,5.1,10,7.3,16.5,8c7.4,0.7,14.7,1.3,22.1,1.8c2.7,0.2,5-0.5,7.4-1.8c-15.6,23.4-35.3,42.6-59,57.8
		c-23.6,15.2-49.3,25.1-77,29.5C135.9,421,44.5,362.1,12.5,273.5C-20.7,181.8,15,80.3,98.4,29.7c83.3-50.5,189.9-35.2,255.7,36.6
		C419.7,137.9,421.5,238.9,378,309.3z"/>
	<path class="st2" d="M358.9,246.3c2.3,0,4.1,0.1,5.8,0.7c2.4,0.8,3.4,2.4,3,5c-1.1,7.3-5.7,11.4-13.4,12.2
		c-5.8,0.6-11.2-0.5-16.5-2.7c-1.9-0.8-2.3-2.1-0.9-3.6c4.7-5.1,9.9-9.3,16.8-10.9C355.7,246.5,357.5,246.2,358.9,246.3z"/>
	<path class="st0" d="M277,204.2c-76.2,0-152.1,0-228.4,0c1.8,1.3,3.4,2.4,5,3.7c4.5,3.5,6.8,8.3,7.6,13.8c0.5,3.6,0.8,7.3,0.7,11
		c0,0.4,0,0.7,0,1.1c0.1,3,1.6,4.5,4.6,4.4c3.8-0.1,7.5-0.4,11.3-0.6c1.8-0.1,3.7-0.3,5.5-0.3c2.5-0.1,3.3,1,2.7,3.3
		c-0.9,3.6-2.8,6.7-5.6,9.2c-4.3,3.8-8.7,7.2-14.2,9.1c-2.5,0.9-3.8,2.8-4.1,5.4c-0.3,3.2-0.1,6.3-0.2,9.5
		c-0.1,5.6-0.4,11.2-1.5,16.7c-0.5,2.8-1.8,4.7-4.7,5.5c-3.3,0.9-5.5,3.4-7.3,6.2c-1,1.6-1.9,3.2-3,4.6c-1.1,1.3-2,1.7-3.6,1.2
		c-1.5-0.5-1.9-1.2-2.1-3c-0.3-3.6,0.4-7.2,0.8-10.7c0.9-8.3,1.3-16.7,1-25c-0.1-1.8,0-3.6-0.3-5.4c-0.4-2.1-1.4-3.1-3.6-3
		c-3,0.3-6,0.7-9,1.1c-2.4,0.3-4.8,0.5-7.2,0.6c-3,0.1-4.7-1.4-5.1-4.4c-0.4-2.8,0.2-5.4,1.6-7.8c0.5-0.9,1.2-1.6,2.1-2.1
		c2.3-1.2,4.3-2.8,6.4-4.3c3.5-2.6,7.1-4.9,11.7-4.9c0.9,0,1.3-0.8,1.6-1.6c2-6.2-1.4-13.3-7.5-15.7c-3.1-1.2-3.2-1.6-1.6-4.5
		c2.2-4,5.5-7.1,8.8-10c0.8-0.7,1.5-1.4,1.9-2.3c0.4-0.8,0.3-1.1-0.7-1.1c-8.3,0-16.6,0-24.8,0c-1.2,0-2.5,0-3.7-0.1
		c-1.9-0.1-2.5-0.7-2.5-2.6c0-2.6,0.1-5.3,0.2-7.9c0.7-11.3,2.2-22.5,4.7-33.6c6.4-28.1,18.7-53.4,36.7-75.9
		c14.9-18.7,32.3-34.6,52.8-47c18.7-11.3,38.8-18.9,60.2-23.2c17.1-3.4,34.3-4.9,51.8-4c26.5,1.4,51.6,8.1,75.1,20.4
		c31.6,16.6,57.8,39.3,77.1,69.5c11.9,18.7,20,39,25.1,60.5c3.1,12.9,4.7,25.9,5,39.2c0,1,0.1,2-0.1,3c-0.2,0.9-0.7,1.4-1.6,1.6
		c-0.7,0.2-1.5,0.2-2.3,0.2c-23.8,0-47.6-0.1-71.4-0.1c-8.1,0-16.2-0.1-24.2-0.1c-3.6,0-4.2,0.5-4.4,4.1c-0.3,4.8-0.1,9.7,0.2,14.5
		c0.4,6.6,0.4,13.1,0.1,19.7c-0.3,7.5-0.8,14.9-1.1,22.4c-0.1,2.4-0.8,4.6-2.2,6.5c-4.3,5.9-6.1,12.6-7,19.7c-1,8.3-1.6,16.7-2.9,25
		c-0.2,1.2-0.5,2.3-1,3.3c-1.2,2.4-3.2,3.2-5.8,2.4c-1-0.3-1.8-0.8-2.6-1.4c-2.8-2.1-5.9-3.6-9.3-4.6c-5.1-1.6-9.4-4.5-12.9-8.5
		c-4.6-5.3-9.6-10.3-14.6-15.3c-4-4-6.8-8.8-7.9-14.4c-1.4-6.6-0.1-12.7,3.9-18.2c1.9-2.5,3.3-5.3,4.3-8.2c1.5-4.4,3.7-8.4,7.5-11.3
		c6.3-4.8,13.3-5.2,20.5-2.4c1.9,0.7,3.6,1.7,5.4,2.6c0.5,0.3,1,0.6,1.6,0.8c1.6,0.7,2.6,0.1,2.7-1.6c0.1-2.5,0.1-5,0.2-7.4
		c0.4-7.5,1-15,1.9-22.5C275.7,207.5,276.3,205.9,277,204.2z"/>
	<path class="st3" d="M177.8,307.9c-5.5-0.3-11.4-0.2-16.9-2.3c-8.6-3.3-14.3-9.5-16.5-18.7c-1-4.5-0.1-8.8,2-12.9
		c3.8-7.4,9.4-12.8,17.8-14.3c6.5-1.2,12.6,0.4,18.3,3.6c3.5,2,3.9,1.8,6.2-1.6c2.2-3.3,3-6.8,2.2-10.7c-0.7-3.4-2.4-5.1-5.9-5.3
		c-6.7-0.4-13.2,0.1-19.3,3.5c-3.6,2-7,1-8-2.3c-1-3-0.7-5.9,1.3-8.4c3.4-4.5,8.1-7.5,13.3-9.5c7.5-2.8,15.1-3.7,22.9-1.1
		c5.6,1.9,9.8,5.9,13.9,10c2.1,2.1,3.2,4.7,3.5,7.7c0.1,1.6,0.1,3.1,0,4.7c-0.4,3.7-0.2,7.4-0.5,11c-0.4,5-1.6,9.7-4.2,14
		c-2.4,4-3.4,8.6-4.2,13.2c-0.7,4.3-1.3,8.6-2.4,12.8c-0.7,2.8-2.4,4.5-5.2,5C190.1,307.3,184.1,307.6,177.8,307.9z"/>
	<path class="st3" d="M106,234.3c0,2.5,0,4.6,0.5,6.7c0.6,2.2,1.4,2.5,3,0.9c4.9-5,10.6-9,16.2-13.2c5.1-3.7,10.7-4.2,16.7-3.3
		c1.8,0.3,2.8,1.6,2.4,3.5c-0.5,3-1.2,6-1.8,9c-0.4,1.8-0.7,3.5-1,5.3c-0.7,4.3-3,7.4-6.5,9.8c-4.8,3.3-10,5.5-15.6,6.6
		c-1.4,0.3-2.8,0.8-4.1,1.4c-6,2.6-8.6,6.6-7.9,13.1c0.6,5.4,0.6,10.8,0.4,16.2c-0.1,4-0.2,8,0,12c0.2,2.5-0.9,4.5-2.3,6.4
		c-0.6,0.9-1.6,1.2-2.7,1c-1-0.2-1.2-1.1-1.4-1.9c-0.6-1.8-1.8-3.1-2.9-4.5c-1.8-2.1-3.8-4-5.8-5.9c-3.6-3.2-5.2-7.2-5-12
		c0.4-8.6,0-17.1-0.1-25.7c-0.1-4.6,0.1-9.2,0.4-13.8c0.3-5.1,2.3-9.5,5.5-13.4c1.5-1.9,3-3.7,4.9-5.3c3.1-2.6,6.5-1.3,7.2,2.6
		C106.2,231.5,106,233.1,106,234.3z"/>
	<path class="st4" d="M93.9,179.1c0.2-7.4,0.4-14.9,1.3-22.3c0.3-2.5,0.7-4.9,1.1-7.4c0-0.2,0.1-0.3,0.1-0.5
		c0.2-2.3-0.6-3.1-2.9-2.9c-1.7,0.2-3.5,0.5-5.2,0.7c-1.8,0.2-3.6,0.3-5.4,0.4c-1,0.1-1.6-0.4-1.9-1.4c-0.9-2.9-0.2-5.3,2.5-6.8
		c4.8-2.6,8.8-6.1,12.4-10.3c1.1-1.3,2.3-2.4,3.8-3.3c1.2-0.7,1.6-1.7,1.8-3c0.9-7.8,1.6-15.6,2.9-23.3c0.3-1.7,0.6-3.5,1-5.2
		c0.5-2.1,1.4-4.1,3-5.7c2.9-2.7,4.6-6.1,5.9-9.8c0.8-2.2,1.6-4.4,2.4-6.6c1.1-3.1,3.1-5,6.5-5.6c3.6-0.6,7.2-1.3,10.8-0.7
		c1.6,0.3,3.1,0.8,4.4,1.7c3.4,2.3,6.6,4.8,9.2,8c2.8,3.4,4.1,7.3,3.7,11.8c-0.2,1.9,0.2,3.7,0,5.6c-0.4,2.9-1.7,5-4.4,6.2
		c-1.5,0.6-3,1.2-4.6,1.4c-1.6,0.2-2.4-0.5-2.3-2.1c0.1-1.2,0.4-2.4,0.5-3.7c0.7-4.8-1.2-8-5.8-9.5c-0.7-0.2-1.5-0.4-2.2-0.6
		c-2.8-0.6-4.7,0.4-5.5,3.2c-0.6,1.9-0.9,3.9-0.9,5.9c0,7-0.3,13.9-1.3,20.8c-0.4,2.6-0.8,5.3-1.2,7.9c-0.4,2.9,0.5,4,3.4,3.9
		c2.9,0,5.8-0.2,8.6-0.5c3.9-0.4,7.7-0.8,11.5-1.5c1.5-0.3,2.5,0.5,2.6,2.2c0.1,1.4-0.6,2.5-1.6,3.5c-1.7,1.8-3.5,3.5-5,5.5
		c-1,1.3-2,2.6-2.7,4.1c-1.6,3.1-4.3,4.5-7.6,4.9c-3.3,0.3-6.5,0.7-9.8,0.9c-2.4,0.2-3.8,1.4-4.4,3.6c-1.5,5.4-2.8,10.9-3.6,16.5
		c-0.8,5.2-1,10.4-0.8,15.7c0.1,2.8-0.1,5.6-1.1,8.3c-0.8,2.1-2.2,3.5-4.4,4c-3.1,0.8-6.1,1.8-9.2,2.5c-3.6,0.8-5.9-1-5.9-4.7
		c0-4,0-8,0-12C93.7,179.1,93.8,179.1,93.9,179.1z"/>
	<path class="st4" d="M219.4,127.5c-0.5,4.5-0.3,9-1.4,13.5c-0.6,2.4-1.4,4.8-2.7,6.9c-2.9,4.7-4.2,10-5.1,15.4
		c-0.6,3.8-1.3,7.6-2.1,11.4c-0.7,3.6-2.8,5.4-6.4,5.9c-7.5,1-14.9,1.8-22.5,1.2c-3-0.3-6-0.6-8.9-1.2c-9.6-2-18.2-11.3-19.4-21
		c-0.6-5,0.9-9.7,3.6-13.9c3.9-6,9-10.4,16.2-11.7c6.3-1.1,12.2,0.3,17.8,3.1c0.8,0.4,1.6,0.9,2.4,1.3c1.4,0.6,2.3,0.5,3.2-0.7
		c3.2-4,4.4-8.6,3.3-13.7c-0.5-2.1-1.9-3.2-4-3.6c-7.2-1.4-14.1-0.4-20.8,2.8c-1.2,0.6-2.5,1.1-3.9,1.2c-2.1,0-3.6-0.9-4.3-2.8
		c-1.3-3.6-1.1-7,1.9-9.8c1.2-1.1,2.4-2.4,3.6-3.5c6-5.9,13.5-7.9,21.7-7.8c8,0.1,15,2.8,20.7,8.6c0.8,0.9,1.7,1.7,2.6,2.5
		c2.9,2.4,4,5.6,4.1,9.2C219.4,122.9,219.4,125.2,219.4,127.5z"/>
	<path class="st1" d="M268.6,141.7c0-4.6-0.1-10.2,0-15.8c0.1-4.1,0.3-8.2,1.7-12.2c1.9-4.9,5.2-8.8,9-12.2c1.2-1.1,2.6-1.7,4.3-1
		c1.7,0.7,2.6,2.1,2.7,3.8c0.2,3.2,0.3,6.5,0.5,9.7c0,0.8,0.1,1.5,0.4,2.2c0.5,1.2,1.5,1.5,2.4,0.5c5-5.2,10.8-9.4,16.6-13.7
		c3.6-2.6,7.5-3.7,11.9-3.6c1.3,0,2.6,0.1,4,0.2c2.5,0.3,3.4,1.5,3,3.9c-0.4,3-0.9,6.1-1.6,9.1c-0.5,2.2-1.1,4.3-1.7,6.5
		c-1.1,4-3.5,6.9-6.9,9c-4.6,2.9-9.6,4.8-14.9,6c-1.6,0.4-3.2,0.7-4.7,1.4c-4.5,1.9-7.1,5.5-6.9,10.4c0.5,9.6-0.4,19.1,0.2,28.7
		c0.1,2,0,3.9-0.7,5.8c-0.5,1.2-1.2,2.3-2.3,3.2c-1,0.8-1.9,0.7-2.7-0.3c-0.2-0.2-0.3-0.5-0.5-0.7c-1.5-3.5-4.1-6.1-6.9-8.7
		c-1.4-1.3-2.8-2.5-4-4c-2.2-2.8-3.4-5.9-3.3-9.4C268.8,154.5,268.7,148.6,268.6,141.7z"/>
	<path class="st1" d="M242.7,184.9c-5.1,0-6.6-1.2-7.6-6.2c-1.2-6-2.2-12.1-2-18.2c0.3-8.3,0.7-16.5,1.2-24.8
		c0.3-4.4,1-8.7,2.9-12.7c2.5-5,6.2-8.9,11-11.7c1.9-1.1,3.9-1.4,6-0.9c2.3,0.6,3.2,1.8,3,4.2c-0.2,2.3-0.9,4.5-1.4,6.7
		c-1.1,4.6-2.3,9.2-2.6,14c-0.3,4.6-0.1,9.3-0.1,13.9c0,6,0.2,12,0.6,18c0.3,3.8-0.1,7.6-0.7,11.3c-0.3,2.2-1.7,3.7-3.5,4.7
		C247.5,184.5,245.2,184.9,242.7,184.9z"/>
	<path class="st2" d="M255.2,65.4c5.5-0.1,8.2,1.7,10.1,6.8c0.5,1.4,1.4,2.5,2.2,3.7c3.4,4.5,3.3,7.4-0.5,11.6
		c-3.3,3.6-6.7,7-11.1,9.2c-3.6,1.8-7.3,2.4-11.3,2.1c-1.3-0.1-2.5-0.5-3.6-1.2c-5.6-3.7-9.9-8.6-13.2-14.4
		c-1.7-2.9-1.2-5.8,1.5-7.9c5.9-4.6,12.3-8.1,19.8-9.3C251.2,65.5,253.2,65.3,255.2,65.4z"/>
	<path class="st1" d="M245.1,270.6c0.1-1.5,0.2-3.2,0.4-4.9c0.2-1.9,1.2-3.4,2.7-4.5c3.2-2.4,7-3.4,10.9-3.9
		c3.8-0.5,7.4,0.3,11.1,0.7c1,0.1,1.8,0.7,2,1.7c0.6,2,0.9,4,0.7,6.1c-0.2,1.7-1,3.2-2.1,4.4c-4,4.2-7.7,8.6-11,13.4
		c-2.5,3.6-7.2,3.9-10.4,0.8c-2.1-2-2.8-4.7-3.5-7.4C245.3,275.1,245.1,272.9,245.1,270.6z"/>
	<path class="st2" d="M180.3,269c1,0.1,2.1,0.1,3.1,0.4c1.2,0.4,1.9,1.3,1.4,2.5c-2,4.4-1.4,8.9-0.9,13.4c0,0.1,0,0.2,0,0.4
		c0.3,3.2-0.8,4.3-4,4.4c-2.6,0-5.2-0.6-7.7-0.8c-1.7-0.2-3.5-0.2-5.3-0.4c-2.1-0.3-2.9-1.3-2.7-3.4c0.2-2.3,0.3-4.6,1.1-6.8
		C167.7,272.3,173.4,268.6,180.3,269z"/>
	<path class="st3" d="M186.5,164.2c-3.1-0.1-6.2-0.9-9.3-1c-1.2,0-2.4,0-3.6-0.2c-1.6-0.2-2.6-1.1-2.5-2.5c0.1-3.1,0.4-6.1,1.7-9
		c3.2-6.8,10.1-9.4,16.8-8.1c2,0.4,2.6,1.6,1.8,3.4c-1.6,3.7-1.2,7.5-0.8,11.3c0.1,0.8,0.2,1.7,0.2,2.5c0,2.5-1,3.5-3.5,3.6
		C187.1,164.2,186.8,164.2,186.5,164.2z"/>
</g>
<rect x="85.2" y="182.1" transform="matrix(2.982523e-02 -0.9996 0.9996 2.982523e-02 -93.1327 270.3673)" class="st0" width="15" height="2.2"/>
</svg>
