<?xml version="1.0" encoding="utf-8"?>
<!-- Generator: Adobe Illustrator 23.0.0, SVG Export Plug-In . SVG Version: 6.00 Build 0)  -->
<svg version="1.1" id="Vrstva_1" xmlns="http://www.w3.org/2000/svg" xmlns:xlink="http://www.w3.org/1999/xlink" x="0px" y="0px"
	 viewBox="0 0 241.51 233.92" style="enable-background:new 0 0 241.51 233.92;" xml:space="preserve">
<style type="text/css">
	.st0{fill:#5B8562;}
	.st1{fill:#C6C5C5;}
	.st2{fill:#FEFBF7;}
	.st3{fill:#582B1F;}
	.st4{fill:#9C5F34;}
	.st5{fill:#345F4D;}
</style>
<g>
	<g>
		<path class="st0" d="M49.93,147.46L49.93,147.46c-6.91-5.93-7.7-16.34-1.77-23.25l14.34-16.7c5-5.83,13.78-6.5,19.61-1.49
			l3.23,2.77c6.05,5.19,6.75,14.31,1.55,20.36l-14.24,16.59C66.85,152.48,56.68,153.25,49.93,147.46z"/>
		<path class="st0" d="M73.17,169.09L73.17,169.09c-6.91-5.93-7.7-16.34-1.77-23.25l14.34-16.7c5-5.83,13.78-6.5,19.61-1.49
			l3.23,2.77c6.05,5.19,6.75,14.31,1.55,20.36l-14.24,16.59C90.09,174.11,79.92,174.88,73.17,169.09z"/>
		<path class="st0" d="M94.8,192.32L94.8,192.32c-6.91-5.93-7.7-16.34-1.77-23.25l14.34-16.7c5-5.83,13.78-6.5,19.61-1.49l3.23,2.77
			c6.05,5.19,6.75,14.31,1.55,20.36l-14.24,16.59C111.72,197.34,101.55,198.12,94.8,192.32z"/>
		<path class="st0" d="M117.24,214.76L117.24,214.76c-6.91-5.93-7.7-16.34-1.77-23.25l14.34-16.7c5-5.83,13.78-6.49,19.61-1.49
			l3.23,2.77c6.05,5.19,6.75,14.31,1.55,20.36l-14.24,16.59C134.15,219.78,123.99,220.55,117.24,214.76z"/>
		<path class="st0" d="M84.76,84.77c-3.72-1.01-1.6-4.81,4.81-10.68s47.09-46.93,57.69-51.81c10.76-4.96,42.76-5.96,61.43,11.22
			c15.28,14.06,20.83,27.24,21.9,40.6c1.19,14.91-3.2,33.65-17.63,51.81c0,0-67.84-67.3-69.44-66.23
			c-1.6,1.07-11.75,19.23-26.71,25.1C105.33,89.28,90.63,86.38,84.76,84.77z"/>
	</g>
	<path class="st0" d="M157.75,189.3c-6.35,0-15.91-2.95-18.09-3.65l-0.3-0.11c-3.27-1.45-80.27-35.66-98.59-52.9
		C27.91,120.52,0.07,88.39,19.34,51.6C30.9,29.53,54.16,15.27,78.61,15.27c21,0,43.28,21.25,44.78,22.71l91.92,82.24l0.24,0.81
		c2.83,9.36,2.1,16.5-2.17,21.2c-4.74,5.22-12.56,5.81-17.52,5.56c1.18,6.07,0.26,10.98-2.76,14.65
		c-4.35,5.29-11.87,6.31-16.44,6.39c0.64,9.31-4.8,16.49-15.37,20.01C160.32,189.16,159.11,189.3,157.75,189.3z M141.64,179.98
		c6.73,2.15,15.37,3.96,17.75,3.17c9.07-3.02,12.72-8.67,10.84-16.78l-0.96-4.16l4.24,0.51c2.94,0.34,11.38,0.28,14.96-4.1
		c2.32-2.83,2.49-7.33,0.53-13.36l-1.59-4.88l5.03,1.01c3.21,0.63,12.44,1.29,16.51-3.21c2.64-2.92,3.01-7.83,1.1-14.62
		l-90.79-81.24c-0.22-0.21-21.81-21.05-40.64-21.05c-22.24,0-43.43,13-53.96,33.11c-16.74,31.96,5.49,60,20.23,73.87
		C62.11,144.47,137.8,178.27,141.64,179.98z"/>
	
		<rect x="151.5" y="120.9" transform="matrix(0.6772 -0.7358 0.7358 0.6772 -58.6804 161.3028)" class="st0" width="6" height="53.26"/>
	
		<rect x="170.12" y="99.55" transform="matrix(0.6772 -0.7358 0.7358 0.6772 -36.9543 168.1151)" class="st0" width="6" height="53.26"/>
</g>
</svg>
