<?xml version="1.0" encoding="utf-8"?>
<!-- Generator: Adobe Illustrator 23.0.0, SVG Export Plug-In . SVG Version: 6.00 Build 0)  -->
<svg version="1.1" id="Vrstva_1" xmlns="http://www.w3.org/2000/svg" xmlns:xlink="http://www.w3.org/1999/xlink" x="0px" y="0px"
	 viewBox="0 0 105.57 102.25" style="enable-background:new 0 0 105.57 102.25;" xml:space="preserve">
<style type="text/css">
	.st0{fill:#5B8562;}
	.st1{fill:#C6C5C5;}
	.st2{fill:#FEFBF7;}
	.st3{fill:#582B1F;}
	.st4{fill:#9C5F34;}
	.st5{fill:#345F4D;}
</style>
<g>
	<path class="st0" d="M754.16,159.36H637.62v-18.27h116.54V159.36z M642.05,154.93h107.68v-9.41H642.05V154.93z"/>
	<path class="st0" d="M710.04,144.14h-28.31V92.65h28.31V144.14z M686.16,139.71h19.45V97.08h-19.45V139.71z"/>
	<rect x="693.58" y="-36.62" class="st0" width="4.43" height="127.34"/>
	<path class="st0" d="M794.79,22.34h-62.07l24.91-65.05h-63.22v-4.43h67.85L794.79,22.34z M739.16,17.91h48.66l-26.76-57.18
		L739.16,17.91z"/>
	<path class="st0" d="M657.5,22.34h-62.07l32.52-69.48h67.85v4.43h-63.22L657.5,22.34z M602.4,17.91h48.66l-21.9-57.18L602.4,17.91z
		"/>
	<path class="st0" d="M764.31,52.79c-17.24,0-31.58-10.98-31.97-24.48l-0.06-2.24l32.03-0.54h31.97v2.22
		C796.29,41.55,781.94,52.79,764.31,52.79z M737.01,30.42c1.78,10.08,13.45,17.94,27.31,17.94c13.93,0,25.85-8.22,27.38-18.41
		h-27.36L737.01,30.42z"/>
	<path class="st0" d="M625.9,52.79c-17.24,0-31.58-10.98-31.97-24.48l-0.06-2.24l32.03-0.54h31.97v2.22
		C657.88,41.55,643.53,52.79,625.9,52.79z M598.6,30.42c1.78,10.08,13.45,17.94,27.31,17.94c13.93,0,25.85-8.22,27.38-18.41h-27.36
		L598.6,30.42z"/>
	<path class="st0" d="M695.8-34.41c-5.8,0-10.52-4.72-10.52-10.52c0-5.8,4.72-10.52,10.52-10.52s10.52,4.72,10.52,10.52
		C706.32-39.13,701.6-34.41,695.8-34.41z M695.8-51.02c-3.36,0-6.09,2.73-6.09,6.09c0,3.36,2.73,6.09,6.09,6.09s6.09-2.73,6.09-6.09
		C701.89-48.29,699.16-51.02,695.8-51.02z"/>
</g>
<g>
	<g>
		<path class="st0" d="M876.02,70.6L876.02,70.6c-6.91-5.93-7.7-16.34-1.77-23.25l14.34-16.7c5-5.83,13.78-6.5,19.61-1.49l3.23,2.77
			c6.05,5.19,6.75,14.31,1.55,20.36l-14.24,16.59C892.94,75.62,882.77,76.4,876.02,70.6z"/>
		<path class="st0" d="M899.26,92.23L899.26,92.23c-6.91-5.93-7.7-16.34-1.77-23.25l14.34-16.7c5-5.83,13.78-6.5,19.61-1.49
			l3.23,2.77c6.05,5.19,6.75,14.31,1.55,20.36L921.97,90.5C916.18,97.25,906.01,98.03,899.26,92.23z"/>
		<path class="st0" d="M920.89,115.47L920.89,115.47c-6.91-5.93-7.7-16.34-1.77-23.25l14.34-16.7c5-5.83,13.78-6.5,19.61-1.49
			l3.23,2.77c6.05,5.19,6.75,14.31,1.55,20.36l-14.24,16.59C937.81,120.49,927.64,121.26,920.89,115.47z"/>
		<path class="st0" d="M943.33,137.9L943.33,137.9c-6.91-5.93-7.7-16.34-1.77-23.25l14.34-16.7c5-5.83,13.78-6.5,19.61-1.49
			l3.23,2.77c6.05,5.19,6.75,14.31,1.55,20.36l-14.24,16.59C960.24,142.92,950.08,143.7,943.33,137.9z"/>
		<path class="st0" d="M910.85,7.92c-3.72-1.01-1.6-4.81,4.81-10.68s47.09-46.93,57.69-51.81c10.76-4.96,42.76-5.96,61.43,11.22
			c15.28,14.06,20.83,27.24,21.9,40.6c1.19,14.91-3.2,33.65-17.63,51.81c0,0-67.84-67.3-69.44-66.23
			c-1.6,1.07-11.75,19.23-26.71,25.1C931.42,12.43,916.72,9.52,910.85,7.92z"/>
	</g>
	<path class="st0" d="M983.84,112.44c-6.35,0-15.91-2.95-18.09-3.65l-0.3-0.11c-3.27-1.45-80.27-35.66-98.59-52.9
		c-12.86-12.11-40.7-44.24-21.43-81.03c11.56-22.07,34.83-36.33,59.28-36.33c21,0,43.28,21.25,44.78,22.71l91.92,82.24l0.24,0.81
		c2.83,9.36,2.1,16.5-2.17,21.2c-4.74,5.22-12.56,5.81-17.52,5.56c1.18,6.07,0.26,10.98-2.76,14.65
		c-4.35,5.29-11.87,6.31-16.44,6.39c0.64,9.31-4.8,16.49-15.37,20.01C986.41,112.31,985.2,112.44,983.84,112.44z M967.73,103.13
		c6.73,2.15,15.37,3.96,17.75,3.17c9.07-3.02,12.72-8.67,10.84-16.78l-0.96-4.16l4.24,0.51c2.94,0.34,11.38,0.28,14.96-4.1
		c2.32-2.83,2.49-7.33,0.53-13.36l-1.59-4.88l5.03,1.01c3.21,0.63,12.44,1.29,16.51-3.21c2.64-2.92,3.01-7.83,1.1-14.62
		l-90.79-81.24c-0.22-0.21-21.81-21.05-40.64-21.05c-22.24,0-43.43,13-53.96,33.11c-16.74,31.96,5.49,60,20.23,73.87
		C888.2,67.61,963.89,101.42,967.73,103.13z"/>
	
		<rect x="977.59" y="44.05" transform="matrix(0.6772 -0.7358 0.7358 0.6772 264.5391 744.3361)" class="st0" width="6" height="53.26"/>
	
		<rect x="996.21" y="22.69" transform="matrix(0.6772 -0.7358 0.7358 0.6772 286.2652 751.1484)" class="st0" width="6" height="53.26"/>
</g>
<path class="st0" d="M455.71,133.68c-44.4,0-80.52-36.12-80.52-80.52s36.12-80.52,80.52-80.52c44.4,0,80.52,36.12,80.52,80.52
	S500.11,133.68,455.71,133.68z M455.71-21.35c-41.09,0-74.52,33.43-74.52,74.52s33.43,74.52,74.52,74.52
	c41.09,0,74.52-33.43,74.52-74.52S496.8-21.35,455.71-21.35z"/>
<path class="st0" d="M396.35,100.94l-4.71-3.72c0.06-0.08,5.97-7.62,9.64-16.17c1.3-3.02,0.17-5.05-2.09-8.65
	c-2.26-3.6-5.07-8.07-3.92-14.59c1.31-7.45,6.99-10.96,11.55-13.78c3.14-1.94,5.85-3.62,6.65-6.02c1.07-3.21,0.48-6.94-1.53-9.74
	c-0.84-1.16-2.64-3.1-5.31-3.1c-7.89,0-18.7-8.09-19.91-9.02l3.64-4.77c2.84,2.16,11.29,7.78,16.27,7.78c3.9,0,7.61,2.04,10.18,5.6
	c3.12,4.33,4.03,10.14,2.36,15.15c-1.49,4.46-5.4,6.88-9.18,9.23c-4.09,2.53-7.95,4.92-8.8,9.73c-0.75,4.24,1.03,7.08,3.09,10.35
	c2.28,3.63,5.12,8.15,2.53,14.21C402.8,92.72,396.61,100.61,396.35,100.94z"/>
<path class="st0" d="M532.33,66.24c-0.19,0-0.37-0.02-0.55-0.04c-2.59-0.4-2.71-2.77-2.64-5.05c-3.08-3.4-18.01-9.6-28.29-12.17
	c-3.38-0.84-8.2-0.38-12.87,0.08c-5.18,0.5-10.53,1.02-14.91-0.08c-2.54-0.63-4.56-2.22-5.86-4.58c-3.24-5.91-1.2-15.47-0.13-18.66
	c0.9-2.69,4.02-6.26,8.68-11.39c1.69-1.86,4.01-4.42,4.4-5.16c1.9-3.81,7.09-2.18,19.7,2.21c3.04,1.06,7.18,2.5,8.21,2.6
	c2.79-0.03,5.43-3.52,6.14-4.74l2.63-4.54l13.4,23.7l5.93,18.25l-0.05,0.61c-0.39,4.42-0.75,9.27-0.91,12.36
	c0.45,1.07,0.55,2.14,0.31,3.24C534.91,65.56,533.54,66.24,532.33,66.24z M496.13,42.5c2.18,0,4.27,0.17,6.17,0.65
	c3.72,0.93,11.95,3.51,19.38,6.79c3.19,1.41,5.81,2.76,7.88,4.07c0.21-2.82,0.43-5.49,0.53-6.66l-5.37-16.51l-8.33-14.73
	c-1.96,1.95-4.81,3.89-8.35,3.89c-1.58,0-4.04-0.8-10.15-2.93c-3.79-1.32-10.52-3.66-13.13-3.97c-0.91,1.25-2.4,2.91-4.56,5.28
	c-2.57,2.83-6.87,7.56-7.43,9.25c-1.04,3.13-2.2,10.41-0.3,13.87c0.5,0.91,1.13,1.42,2.06,1.65c3.37,0.84,8.2,0.38,12.87-0.08
	C490.32,42.79,493.3,42.5,496.13,42.5z"/>
<path class="st0" d="M448.2,129.68c-0.37-3.86-0.99-16.54,6.49-17.47c2.28-0.29,5.2-0.33,8.58-0.39c4.62-0.08,9.85-0.16,14.59-0.89
	l4.24-0.66c7.8-1.22,12.69-1.96,14.95-1.96c2.01,0,7.87-0.49,9.96-0.68l0.54,5.98c-0.32,0.03-7.82,0.71-10.51,0.71
	c-1.91,0-7.79,0.92-14.03,1.89l-4.25,0.66c-5.15,0.79-10.6,0.88-15.41,0.96c-3.2,0.05-5.97,0.1-7.93,0.34
	c-1.06,0.72-1.72,6.15-1.26,10.95L448.2,129.68z"/>
<g>
	<path class="st0" d="M448.37,162.29c-1.85,0-3.74-0.04-5.67-0.14c-23.12-1.13-56.38-10.09-83.54-46.42l3.2-2.4
		c21.02,28.12,48.06,43.19,80.37,44.81c24.19,1.21,42.42-5.99,42.6-6.07l1.5,3.71C486.11,156.08,470.44,162.29,448.37,162.29z"/>
	<polygon class="st0" points="351.33,129.46 350.76,95.65 380.52,115.77 378.28,119.09 354.89,103.27 355.33,129.39 	"/>
</g>
<g>
	<path class="st0" d="M548.51-6.76c-19.61-29.12-45.87-45.51-78.07-48.72c-24.09-2.41-42.66,3.9-42.85,3.96l-1.31-3.78
		c0.78-0.27,19.45-6.63,44.39-4.18c23.04,2.26,55.82,12.86,81.15,50.48L548.51-6.76z"/>
	<polygon class="st0" points="559.22,11.47 530.49,-10.09 532.9,-13.29 555.47,3.66 556.32,-22.45 560.32,-22.32 	"/>
</g>
<circle class="st1" cx="-319.08" cy="251.59" r="83.51"/>
<g>
	<path class="st2" d="M-267.14,246.94c-0.14,11.47-2.85,20.95-8.5,29.51c-0.91,1.37-0.82,2.14,0.34,3.26
		c4.06,3.92,8.02,7.96,12.01,11.96c2.77,2.78,3.44,5.34,2.18,8.16c-1.35,3.02-5.33,5.53-8.48,5.29c-1.96-0.15-3.46-1.18-4.77-2.6
		c-3.78-4.1-7.66-8.1-11.37-12.27c-1.09-1.22-1.72-0.99-2.84-0.17c-9.13,6.69-19.42,9.99-30.69,9.98
		c-26.16-0.02-48.49-20.03-51.43-45.94c-3.22-28.42,16.9-53.92,45.43-57.56c27.46-3.51,53.67,16.46,57.46,43.81
		C-267.44,242.96-267.28,245.57-267.14,246.94z"/>
	<path class="st3" d="M-276.93,247.84c-0.14,23.43-19.12,42.22-42.48,42.05c-23.27-0.17-42.03-19.21-41.85-42.49
		c0.17-23.2,19.14-41.96,42.29-41.84C-295.62,205.7-276.79,224.63-276.93,247.84z"/>
</g>
<circle class="st1" cx="-392.84" cy="85.99" r="32.79"/>
<g>
	<path class="st2" d="M-372.46,84.86c-0.06,4.5-1.12,8.23-3.34,11.58c-0.36,0.54-0.32,0.84,0.13,1.28c1.6,1.54,3.15,3.12,4.71,4.69
		c1.09,1.09,1.35,2.1,0.86,3.2c-0.53,1.19-2.09,2.17-3.33,2.08c-0.77-0.06-1.36-0.46-1.87-1.02c-1.48-1.61-3.01-3.18-4.46-4.82
		c-0.43-0.48-0.67-0.39-1.11-0.07c-3.58,2.62-7.62,3.92-12.05,3.92c-10.27-0.01-19.04-7.86-20.19-18.03
		c-1.26-11.16,6.64-21.17,17.84-22.6c10.78-1.38,21.07,6.46,22.56,17.2C-372.57,83.29-372.51,84.32-372.46,84.86z"/>
	<path class="st3" d="M-376.3,85.21c-0.05,9.2-7.51,16.58-16.68,16.51c-9.13-0.07-16.5-7.54-16.43-16.68
		c0.07-9.11,7.51-16.48,16.6-16.43C-383.64,68.66-376.24,76.1-376.3,85.21z"/>
</g>
<circle class="st1" cx="-308.64" cy="85.99" r="32.79"/>
<g>
	<path class="st2" d="M-288.26,84.86c-0.06,4.5-1.12,8.23-3.34,11.58c-0.36,0.54-0.32,0.84,0.13,1.28c1.6,1.54,3.15,3.12,4.71,4.69
		c1.09,1.09,1.35,2.1,0.86,3.2c-0.53,1.19-2.09,2.17-3.33,2.08c-0.77-0.06-1.36-0.46-1.87-1.02c-1.48-1.61-3.01-3.18-4.46-4.82
		c-0.43-0.48-0.67-0.39-1.11-0.07c-3.58,2.62-7.62,3.92-12.05,3.92c-10.27-0.01-19.04-7.86-20.19-18.03
		c-1.26-11.16,6.64-21.17,17.84-22.6c10.78-1.38,21.07,6.46,22.56,17.2C-288.37,83.29-288.31,84.32-288.26,84.86z"/>
	<path class="st3" d="M-292.1,85.21c-0.05,9.2-7.51,16.58-16.68,16.51c-9.13-0.07-16.5-7.54-16.43-16.68
		c0.07-9.11,7.51-16.48,16.6-16.43C-299.44,68.66-292.04,76.1-292.1,85.21z"/>
</g>
<circle class="st1" cx="-224.45" cy="85.99" r="32.79"/>
<g>
	<path class="st2" d="M-204.06,84.86c-0.06,4.5-1.12,8.23-3.34,11.58c-0.36,0.54-0.32,0.84,0.13,1.28c1.6,1.54,3.15,3.12,4.71,4.69
		c1.09,1.09,1.35,2.1,0.86,3.2c-0.53,1.19-2.09,2.17-3.33,2.08c-0.77-0.06-1.36-0.46-1.87-1.02c-1.48-1.61-3.01-3.18-4.46-4.82
		c-0.43-0.48-0.67-0.39-1.11-0.07c-3.58,2.62-7.62,3.92-12.05,3.92c-10.27-0.01-19.04-7.86-20.19-18.03
		c-1.26-11.16,6.64-21.17,17.84-22.6c10.78-1.38,21.07,6.46,22.56,17.2C-204.18,83.29-204.11,84.32-204.06,84.86z"/>
	<path class="st3" d="M-207.9,85.21c-0.05,9.2-7.51,16.58-16.68,16.51c-9.13-0.07-16.5-7.54-16.43-16.68
		c0.07-9.11,7.51-16.48,16.6-16.43C-215.24,68.66-207.84,76.1-207.9,85.21z"/>
</g>
<circle class="st1" cx="-351.86" cy="10.73" r="32.79"/>
<g>
	<path class="st2" d="M-331.47,9.6c-0.06,4.5-1.12,8.23-3.34,11.58c-0.36,0.54-0.32,0.84,0.13,1.28c1.6,1.54,3.15,3.12,4.71,4.69
		c1.09,1.09,1.35,2.1,0.86,3.2c-0.53,1.19-2.09,2.17-3.33,2.08c-0.77-0.06-1.36-0.46-1.87-1.02c-1.48-1.61-3.01-3.18-4.46-4.82
		c-0.43-0.48-0.67-0.39-1.11-0.07c-3.58,2.62-7.62,3.92-12.05,3.92c-10.27-0.01-19.04-7.86-20.19-18.03
		c-1.26-11.16,6.64-21.17,17.84-22.6c10.78-1.38,21.07,6.46,22.56,17.2C-331.59,8.04-331.53,9.06-331.47,9.6z"/>
	<path class="st3" d="M-335.31,9.95c-0.05,9.2-7.51,16.58-16.68,16.51c-9.13-0.07-16.5-7.54-16.43-16.68
		c0.07-9.11,7.51-16.48,16.6-16.43C-342.65-6.59-335.26,0.84-335.31,9.95z"/>
</g>
<circle class="st1" cx="-267.66" cy="10.73" r="32.79"/>
<g>
	<path class="st2" d="M-247.27,9.6c-0.06,4.5-1.12,8.23-3.34,11.58c-0.36,0.54-0.32,0.84,0.13,1.28c1.6,1.54,3.15,3.12,4.71,4.69
		c1.09,1.09,1.35,2.1,0.86,3.2c-0.53,1.19-2.09,2.17-3.33,2.08c-0.77-0.06-1.36-0.46-1.87-1.02c-1.48-1.61-3.01-3.18-4.46-4.82
		c-0.43-0.48-0.67-0.39-1.11-0.07c-3.58,2.62-7.62,3.92-12.05,3.92c-10.27-0.01-19.04-7.86-20.19-18.03
		c-1.26-11.16,6.64-21.17,17.84-22.6c10.78-1.38,21.07,6.46,22.56,17.2C-247.39,8.04-247.33,9.06-247.27,9.6z"/>
	<path class="st3" d="M-251.12,9.95c-0.05,9.2-7.51,16.58-16.68,16.51c-9.13-0.07-16.5-7.54-16.43-16.68
		c0.07-9.11,7.51-16.48,16.6-16.43C-258.45-6.59-251.06,0.84-251.12,9.95z"/>
</g>
<g>
	<g>
		<path class="st4" d="M2853.1-24.36c10.28-3.81,22.11-5.57,30.49-11.9c14.81-11.19,30.25-7.33,45.44-5.05
			c3.25,0.49,6.82,10.28,7.2,15.99c0.71,10.67,1.89,17.56,15.31,19.55c10.78,1.59,20.73,8.84,32.46,14.23
			c2.88-13.96,9.29-10.71,18.63-7.92c14.99,4.48,31.1,5.07,46.58,8.14c4.07,0.81,9.88,3.98,10.86,7.27
			c4.92,16.42,7.11,33.74,12.88,49.81c8.34,23.27,12.49,49.78,38.89,62.05c2.46,1.14,5.07,3.44,6.12,5.86
			c4.66,10.74,11.66,10.99,21.07,6.33c3.37-1.67,7.91-0.96,11.91-1.34c0.06,4.58,1.9,10.22-0.1,13.58
			c-12.82,21.59-20.14,46.57-40.9,63.35c-14.84,12-22,44.81-15.5,62.41c6.9,18.69,0.08,42.19-16.49,53.62
			c-9.35,6.45-13.19,13.98-15.21,25.61c-2.35,13.51-9.5,26.68-16.69,38.72c-7.84,13.13-15.9,28.27-28.02,36.05
			c-10.17,6.53-26.5,5.45-39.72,4.07c-4.28-0.45-9.16-12.15-10.66-19.35c-6.42-30.96-12.24-62.08-16.97-93.35
			c-1.07-7.1,3.79-14.9,4.63-22.53c1.44-12.99,2.27-26.09,2.46-39.15c0.07-4.59-2.16-9.35-3.89-13.82
			c-7.9-20.46-17.83-40.08-18.27-63c-0.18-9.29-19.14-19.17-32.86-18.29c-8.49,0.55-17.42,2.17-25.12,5.61
			c-24.82,11.1-45.49,2.79-56.1-19.7c-2.4-5.09-5.64-10.65-10.07-13.76c-16.12-11.31-20.91-26.6-18.47-45.21
			c0.37-2.84,0.43-5.81,0.06-8.65c-3.18-24.53-0.02-45.64,26.72-56.39c4.6-1.85,10.82-8.88,10.29-12.69
			C2827.39-3.61,2839.33-15.13,2853.1-24.36z"/>
	</g>
</g>
<g>
	<g>
		<path class="st0" d="M3651.68-39.33c-3.16,1.78-4.85,3.11-6.76,3.76c-23.32,7.82-46.59,15.81-70.1,23.05
			c-4.95,1.53-11.19,1.48-16.15-0.05c-23.33-7.2-46.44-15.12-69.58-22.94c-1.87-0.63-3.35-2.41-5.02-3.65
			c1.74-1.37,3.29-3.41,5.27-4.02c23.17-7.1,46.35-14.22,69.69-20.72c4.89-1.36,10.79-1.39,15.67-0.03
			c23.34,6.51,46.49,13.67,69.68,20.71C3646.48-42.59,3648.33-41.15,3651.68-39.33z"/>
		<path class="st0" d="M3617.35-19.29c0,11.24,0.42,21.53-0.27,31.75c-0.19,2.8-3.21,6.13-5.82,7.92
			c-10.25,7.02-22.15,9.66-34.26,10.84c-16.5,1.62-32.57-0.36-47.98-6.97c-8.73-3.74-14.19-8.89-12.93-19.56
			c0.92-7.74,0.18-15.67,0.18-24.05c13.11,4.33,25.71,8.19,38.09,12.69c8.56,3.11,16.63,3.06,25.18-0.07
			C3591.72-11.19,3604.16-14.95,3617.35-19.29z"/>
		<path class="st0" d="M3640.35-26.27c0,3.29,0.02,6.39,0,9.5c-0.06,7.33-0.61,14.69,3.74,21.32c1.04,1.59,1.31,3.84,1.47,5.82
			c0.34,4.19-4.75,11.12-8.13,11.4c-3.23,0.27-8.57-6.46-8.49-10.93c0.03-1.62,0.12-3.49,0.92-4.8c4.9-8.06,4.24-16.95,3.92-25.71
			C3633.6-24.08,3634.97-26.29,3640.35-26.27z"/>
	</g>
</g>
<g>
	<path class="st5" d="M4145.66,28.28c-17.29,0-31.36-14.07-31.36-31.36c0-17.29,14.07-31.36,31.36-31.36s31.36,14.07,31.36,31.36
		C4177.02,14.22,4162.95,28.28,4145.66,28.28z M4145.66-27.43c-13.43,0-24.36,10.93-24.36,24.36s10.93,24.36,24.36,24.36
		s24.36-10.93,24.36-24.36S4159.09-27.43,4145.66-27.43z"/>
	<path class="st5" d="M4241.44,28.28c-17.29,0-31.36-14.07-31.36-31.36c0-17.29,14.07-31.36,31.36-31.36
		c17.29,0,31.36,14.07,31.36,31.36C4272.8,14.22,4258.73,28.28,4241.44,28.28z M4241.44-27.43c-13.43,0-24.36,10.93-24.36,24.36
		s10.93,24.36,24.36,24.36s24.36-10.93,24.36-24.36S4254.87-27.43,4241.44-27.43z"/>
	<path class="st5" d="M4139.24,0.47l30.45-49.81l58.8-0.2l-39.86,48.9L4139.24,0.47z M4173.62-42.35L4151.9-6.81l33.34-0.75
		l28.47-34.92L4173.62-42.35z"/>
	<circle class="st5" cx="4186.47" cy="-2.33" r="8.11"/>
	<circle class="st5" cx="4145.66" cy="-3.08" r="5.68"/>
	<polygon class="st5" points="4238.05,-1.98 4218.02,-57.43 4204.83,-57.43 4204.83,-64.43 4222.93,-64.43 4244.64,-4.36 	"/>
	
		<rect x="4173.93" y="-55.17" transform="matrix(0.9391 -0.3437 0.3437 0.9391 264.4629 1434.1433)" class="st5" width="7" height="52.58"/>
	<rect x="4159.55" y="-56.83" class="st5" width="20.87" height="4.84"/>
</g>
<path class="st5" d="M4853.94-48.91c-0.03-4.02-2.57-6.84-6.55-7.44c-0.61-0.09-1.22-0.27-1.82-0.45
	c-4.19-1.27-8.35-2.67-12.58-3.79c-18.33-4.85-36.34-4.1-53.98,3.16c-1.31,0.54-2.8,0.66-4.1,1.22c-2.44,1.05-4.99,2.02-7.14,3.54
	c-1.07,0.75-1.9,2.63-1.9,4c-0.11,24.4-0.1,48.8-0.02,73.19c0.01,1.46,0.64,3.07,1.4,4.36c1.22,2.05,3.38,2.83,5.82,3.09
	c0,2.37-0.04,4.62,0.01,6.86c0.05,2.55,1.45,3.93,4,3.95c3.39,0.04,6.77,0.03,10.16,0c2.91-0.02,4.2-1.34,4.22-4.29
	c0.01-2.17,0-4.34,0-6.56c12.34,0,24.42,0,36.45,0c0.11,0.19,0.22,0.3,0.22,0.41c0.04,2.13,0.04,4.26,0.09,6.39
	c0.06,2.73,1.35,4.02,4.07,4.04c3.32,0.03,6.65,0.02,9.97,0c2.97-0.02,4.23-1.27,4.26-4.23c0.02-2.18,0-4.37,0-6.5
	c5.49-1.16,7.4-3.51,7.4-8.9c0-17.56,0-35.12,0-52.69C4853.96-35.99,4853.99-42.45,4853.94-48.91z M4795.81-56.39
	c4.64-0.02,9.29-0.01,13.93-0.01c4.71,0,9.41-0.01,14.12,0c2.72,0.01,4.35,1.38,4.35,3.6c0.01,2.2-1.69,3.65-4.32,3.66
	c-9.35,0.01-18.7,0.01-28.04,0c-2.67,0-4.33-1.41-4.35-3.63C4791.48-54.97,4793.12-56.38,4795.81-56.39z M4782.21,20.91
	c-5-0.03-9.11-4.13-9.11-9.09c0-5.05,4.17-9.12,9.3-9.08c5.06,0.04,9.09,4.06,9.09,9.07C4791.48,16.88,4787.33,20.95,4782.21,20.91z
	 M4837.34,20.91c-5.13-0.02-9.16-4.13-9.08-9.25c0.08-5.05,4.1-8.95,9.21-8.92c5.09,0.03,9.07,3.99,9.08,9.04
	C4846.56,16.9,4842.49,20.94,4837.34,20.91z M4846.55-15.03c-0.01,3.38-1.26,4.61-4.69,4.61c-21.33,0.01-42.66,0-64,0
	c-3.48,0-4.77-1.29-4.77-4.77c-0.01-6.59-0.01-13.18,0-19.76c0-3.38,1.3-4.7,4.65-4.7c10.73-0.01,21.46,0,32.19,0
	c10.6,0,21.21,0,31.81,0c3.66,0,4.81,1.16,4.81,4.87C4846.56-28.2,4846.57-21.62,4846.55-15.03z"/>
<g>
	<g>
		<path class="st0" d="M5416.43-36.39c0.79-3.15,1.19-6.02,1.24-8.93c0.01-0.81,0.59-0.93,1.1-1.14c4.79-1.96,9.8-2.2,14.88-1.93
			c0.29,0.02,0.58,0.06,0.87,0.08c3.22,0.25,3.27,0.26,2.38,3.43c-1.5,5.33-3.61,10.35-7.37,14.53c-4.76,5.3-10.74,6.79-17.57,5.71
			c-1.14-0.18-0.72-0.78-0.43-1.33c1.17-2.2,2.73-4.12,4.4-5.95c3.25-3.56,6.79-6.79,10.73-9.58c0.31-0.22,0.6-0.45,0.84-0.81
			c-1.42-0.01-2.6,0.69-3.79,1.29c-1.21,0.61-2.39,1.29-3.54,2.02C5418.99-38.25,5417.87-37.4,5416.43-36.39z"/>
		<path class="st0" d="M5410.12-42.62c-3.58,4.37-3.99,9.67-4.39,15.29c-2.3-2.81-3.56-5.7-3.78-9.03
			c-0.32-4.84,1.87-8.62,5.18-11.88c1.84-1.82,3.95-3.29,6.16-4.62c0.5-0.3,0.91-0.56,1.16,0.3c1.96,6.67,2.43,13.27-0.87,19.69
			c-1.01,1.96-2.43,3.61-4.05,5.11c-0.88,0.81-1.24,0.64-1.47-0.47c-0.52-2.6,0-5.13,0.48-7.65
			C5408.97-38.14,5409.59-40.37,5410.12-42.62z"/>
	</g>
</g>
<g>
	<g>
		<path class="st0" d="M5452.35-41.76c-0.15,8.29-2.94,15.37-8.7,21.16c-13.67,13.74-27.4,27.42-41.1,41.13
			c-1.21,1.21-1.32,1.23-2.5,0c-6.57-6.86-13.42-13.44-20.02-20.27c-6.63-6.85-13.42-13.55-20.12-20.33
			c-5.18-5.24-8.52-11.39-9.26-18.78c-0.87-8.71,1.6-16.42,7.46-22.94c4.58-5.1,10.35-8.22,17.14-9.2
			c9.32-1.35,17.57,1.13,24.66,7.36c1.12,0.98,1.21,1,2.29-0.02c11.26-10.61,29.55-10.48,40.72,0.24
			C5449.12-57.45,5452.17-50.18,5452.35-41.76z M5357.95-42.05c0,4.78,1.38,9.13,4.13,13.02c1.92,2.71,4.25,5.07,6.57,7.42
			c10.51,10.63,21.1,21.17,31.64,31.76c0.77,0.78,1.3,0.83,2.1,0.02c11.79-11.82,23.59-23.64,35.41-35.43
			c5.04-5.02,7.56-11.07,6.94-18.14c-0.78-8.88-5.39-15.36-13.61-18.87c-8.21-3.5-15.92-2.12-22.92,3.33
			c-2.1,1.63-3.82,3.66-5.71,5.51c-1.48,1.44-1.46,1.45-2.87,0.03c-1.34-1.35-2.68-2.71-4.05-4.04c-4.33-4.21-9.54-6.38-15.56-6.44
			C5367.77-64.01,5358.02-54.34,5357.95-42.05z"/>
	</g>
</g>
<g>
	<g>
		<path class="st0" d="M67.81,39.8c0.79-3.15,1.19-6.02,1.24-8.93c0.01-0.81,0.59-0.93,1.1-1.14c4.79-1.96,9.8-2.2,14.88-1.93
			c0.29,0.02,0.58,0.06,0.87,0.08c3.22,0.25,3.27,0.26,2.38,3.43c-1.49,5.33-3.61,10.35-7.37,14.53c-4.76,5.3-10.74,6.79-17.57,5.71
			c-1.14-0.18-0.72-0.78-0.43-1.33c1.17-2.2,2.73-4.12,4.4-5.95c3.25-3.56,6.79-6.79,10.73-9.58c0.31-0.22,0.6-0.45,0.84-0.81
			c-1.42-0.01-2.6,0.69-3.79,1.29c-1.21,0.61-2.39,1.29-3.54,2.02C70.36,37.95,69.24,38.79,67.81,39.8z"/>
		<path class="st0" d="M61.49,33.58c-3.59,4.37-3.99,9.67-4.39,15.29c-2.3-2.81-3.56-5.7-3.78-9.03c-0.32-4.84,1.87-8.62,5.18-11.88
			c1.84-1.82,3.95-3.29,6.16-4.62c0.5-0.3,0.91-0.56,1.16,0.3c1.96,6.67,2.43,13.27-0.87,19.69c-1.01,1.96-2.43,3.61-4.05,5.11
			c-0.88,0.81-1.24,0.64-1.47-0.47c-0.53-2.6,0-5.13,0.48-7.65C60.34,38.06,60.96,35.83,61.49,33.58z"/>
	</g>
</g>
<g>
	<g>
		<path class="st0" d="M103.73,34.43c-0.15,8.29-2.94,15.37-8.7,21.16c-13.67,13.74-27.4,27.42-41.1,41.13
			c-1.21,1.21-1.32,1.23-2.5,0C44.85,89.86,38,83.28,31.4,76.46c-6.63-6.85-13.42-13.55-20.12-20.33
			c-5.18-5.24-8.52-11.39-9.26-18.78c-0.87-8.71,1.6-16.42,7.46-22.94c4.58-5.1,10.35-8.22,17.14-9.2
			c9.32-1.35,17.57,1.13,24.66,7.36c1.12,0.98,1.21,1,2.29-0.02C64.83,1.95,83.12,2.08,94.29,12.8
			C100.49,18.75,103.54,26.02,103.73,34.43z M9.32,34.14c0,4.78,1.38,9.13,4.13,13.02c1.92,2.71,4.25,5.07,6.57,7.42
			c10.51,10.63,21.1,21.17,31.64,31.76c0.78,0.78,1.3,0.83,2.1,0.02c11.79-11.82,23.59-23.64,35.41-35.43
			c5.04-5.02,7.56-11.07,6.94-18.14c-0.78-8.88-5.39-15.36-13.61-18.87c-8.21-3.5-15.92-2.12-22.92,3.33
			c-2.1,1.63-3.82,3.66-5.71,5.51c-1.48,1.44-1.46,1.45-2.87,0.03c-1.35-1.35-2.68-2.71-4.05-4.04c-4.33-4.21-9.54-6.38-15.56-6.44
			C19.14,12.18,9.4,21.85,9.32,34.14z"/>
	</g>
</g>
</svg>
