<?xml version="1.0" encoding="utf-8"?>
<!-- Generator: Adobe Illustrator 22.1.0, SVG Export Plug-In . SVG Version: 6.00 Build 0)  -->
<svg version="1.1" id="Vrstva_1" xmlns="http://www.w3.org/2000/svg" xmlns:xlink="http://www.w3.org/1999/xlink" x="0px" y="0px"
	 viewBox="0 0 105.6 102.3" style="enable-background:new 0 0 105.6 102.3;" xml:space="preserve">
<style type="text/css">
	.st0{fill:#724729;}
</style>
<g>
	<g>
		<path class="st0" d="M67.8,39.8c0.8-3.2,1.2-6,1.2-8.9c0-0.8,0.6-0.9,1.1-1.1c4.8-2,9.8-2.2,14.9-1.9c0.3,0,0.6,0.1,0.9,0.1
			c3.2,0.3,3.3,0.3,2.4,3.4c-1.5,5.3-3.6,10.4-7.4,14.5c-4.8,5.3-10.7,6.8-17.6,5.7c-1.1-0.2-0.7-0.8-0.4-1.3c1.2-2.2,2.7-4.1,4.4-6
			c3.3-3.6,6.8-6.8,10.7-9.6c0.3-0.2,0.6-0.5,0.8-0.8c-1.4,0-2.6,0.7-3.8,1.3c-1.2,0.6-2.4,1.3-3.5,2C70.4,38,69.2,38.8,67.8,39.8z"
			/>
		<path class="st0" d="M61.5,33.6c-3.6,4.4-4,9.7-4.4,15.3c-2.3-2.8-3.6-5.7-3.8-9C53,35,55.2,31.2,58.5,28c1.8-1.8,4-3.3,6.2-4.6
			c0.5-0.3,0.9-0.6,1.2,0.3c2,6.7,2.4,13.3-0.9,19.7c-1,2-2.4,3.6-4,5.1c-0.9,0.8-1.2,0.6-1.5-0.5c-0.5-2.6,0-5.1,0.5-7.7
			C60.3,38.1,61,35.8,61.5,33.6z"/>
	</g>
</g>
<g>
	<g>
		<path class="st0" d="M103.7,34.4c-0.2,8.3-2.9,15.4-8.7,21.2C81.4,69.3,67.6,83,53.9,96.7c-1.2,1.2-1.3,1.2-2.5,0
			c-6.6-6.9-13.4-13.4-20-20.3C24.8,69.6,18,62.9,11.3,56.1C6.1,50.9,2.8,44.7,2,37.3c-0.9-8.7,1.6-16.4,7.5-22.9
			c4.6-5.1,10.3-8.2,17.1-9.2c9.3-1.3,17.6,1.1,24.7,7.4c1.1,1,1.2,1,2.3,0C64.8,2,83.1,2.1,94.3,12.8
			C100.5,18.8,103.5,26,103.7,34.4z M9.3,34.1c0,4.8,1.4,9.1,4.1,13c1.9,2.7,4.3,5.1,6.6,7.4c10.5,10.6,21.1,21.2,31.6,31.8
			c0.8,0.8,1.3,0.8,2.1,0c11.8-11.8,23.6-23.6,35.4-35.4c5-5,7.6-11.1,6.9-18.1c-0.8-8.9-5.4-15.4-13.6-18.9s-15.9-2.1-22.9,3.3
			c-2.1,1.6-3.8,3.7-5.7,5.5c-1.5,1.4-1.5,1.5-2.9,0c-1.3-1.4-2.7-2.7-4-4c-4.3-4.2-9.5-6.4-15.6-6.4C19.1,12.2,9.4,21.9,9.3,34.1z"
			/>
	</g>
</g>
</svg>
