<?xml version="1.0" encoding="utf-8"?>
<!-- Generator: Adobe Illustrator 23.0.0, SVG Export Plug-In . SVG Version: 6.00 Build 0)  -->
<svg version="1.1" id="Vrstva_1" xmlns="http://www.w3.org/2000/svg" xmlns:xlink="http://www.w3.org/1999/xlink" x="0px" y="0px"
	 viewBox="0 0 1280 704" style="enable-background:new 0 0 1280 704;" xml:space="preserve">
<style type="text/css">
	.st0{fill:#98795D;}
	.st1{fill:#845736;}
	.st2{fill:#2A0D07;}
	.st3{fill:#365B3E;}
	.st4{fill:#5A8461;}
	.st5{fill:#516D3E;}
</style>
<path class="st0" d="M0,167.65c0-1.6,89.29,0.15,114.53-16.16c33.88-21.89,36.16-18.63,41.3-22.89
	c31.76-26.38,32.56-54.52,48.18-48.64c10.32,3.89,29.25,17.51,48.18,31.13c18.93,13.62,41.3,23.35,51.62,21.4
	s44.74-27.24,60.22-38.91c15.49-11.67,27.53-23.35,41.3-1.95s18.93,46.69,34.41,38.91c15.49-7.78,68.83-64.2,75.71-83.66
	c6.88-19.46,13.77-48.64,24.09-46.69s20.65,42.8,30.97,46.69c10.32,3.89,18.93,46.69,30.97,52.53c12.04,5.84,55.06-31.13,68.83-21.4
	s51.62,56.42,75.71,77.82c24.09,21.4,29.25-5.84,34.41-5.84c5.16,0,41.3-7.78,63.66,31.13s70.55,38.91,92.92,35.02
	c22.37-3.89,75.71-50.58,82.59-58.37c6.88-7.78,34.41-44.75,77.43-7.78c43.02,36.97,61.94,56.42,77.43,52.53
	c15.49-3.89,15.49,19.46,29.25,19.46c13.77,0,76.29-11.67,76.29-11.67V364H0C0,364,0,265.18,0,167.65z"/>
<path class="st1" d="M270.48,244.62c8.5-3.4,37.4-22.1,54.4-18.7c17,3.4,110.51,69.7,124.11,71.4c13.6,1.7,76.51-32.3,96.91-22.1
	c20.4,10.2,66.3,54.4,74.81,56.1c8.5,1.7,37.4-59.5,45.9-59.5c8.5,0,49.3,30.6,61.2,30.6s27.2-52.7,39.1-51s88.41,47.6,88.41,47.6
	l3.4,98.61l-589.94,1.7L270.48,244.62z"/>
<path class="st2" d="M644.5,394.02c81.27-12.3,327.94-179.94,368.72-196.91c40.78-16.98,159.72,101.85,183.51,101.85
	c23.79,0,83.26-47.53,83.26-47.53L1278.56,568c-211.31,0-422.62-54-633.92-54C431.76,514,588.43,402.51,644.5,394.02z"/>
<path class="st3" d="M0,237.79c0,0,6.8,1.21,117.44-59.2c47.59-25.98,181.02,79.91,262.99,127.51s204.93,57.8,261.28,49.3
	c81.68-12.32,637.25,241.94,637.25,241.94L647.37,487L0,365V237.79z"/>
<path class="st4" d="M0,288.02c0,0,1.12,4.52,9.66,2.64s11.95-5.64,18.78-3.76c6.83,1.88,10.24,5.64,25.61,3.76
	s22.2,9.39,27.32,5.64c5.12-3.76,10.24-9.39,20.49-7.51c10.24,1.88,13.66,7.51,22.2,5.64c8.54-1.88,11.95-5.64,20.49-5.64
	s3.41,3.76,22.2,3.76s13.66,13.15,20.49,11.27c6.83-1.88,17.07-3.76,20.49,0s11.95,11.27,18.78,11.27c6.83,0,18.78-1.88,20.49,1.88
	c1.71,3.76-1.71,9.39,10.24,9.39s10.24,9.39,17.07,11.27c6.83,1.88,13.66-3.76,20.49,1.88s1.71,11.27,11.95,15.03
	c10.24,3.76,15.37,3.76,18.78,5.64c3.41,1.88,5.12,11.27,17.07,13.15c11.95,1.88,11.95-5.64,18.78,0
	c6.83,5.64,13.66,16.91,17.07,16.91c3.41,0,15.37-3.76,22.2,0s6.83,7.51,17.07,9.39c10.24,1.88,11.95,0,18.78,0
	s11.95,7.51,20.49,9.39c8.54,1.88,20.49-5.64,27.32,3.76s10.24,11.27,18.78,13.15c8.54,1.88,5.12-3.76,20.49-1.88
	c15.37,1.88,6.83,7.51,11.95,7.51c5.12,0,8.54-1.88,17.07-3.76c8.54-1.88,13.66,7.51,18.78,9.39c5.12,1.88,5.12-7.51,8.54-7.51
	s6.83,11.27,10.24,11.27s5.12-3.76,10.24-3.76c5.12,0,11.95,11.27,13.66,13.15c1.71,1.88,1.71-5.64,6.83-7.51
	c5.12-1.88,5.12,9.39,11.95,9.39c6.83,0,6.83-3.76,10.24-5.64c3.41-1.88,8.54,7.51,15.37,3.76c6.83-3.76,3.41-16.91,10.24-16.91
	c6.83,0,6.83,7.51,17.07,7.51s8.54-11.27,15.37-15.03s5.12,3.76,18.78-5.64c13.66-9.39,10.24,1.88,18.78-1.88
	s6.83-11.27,15.37-13.15c8.54-1.88,11.95,1.88,17.07,0c5.12-1.88,6.83-9.39,13.66-9.39c6.83,0,13.66,1.88,23.9-3.76
	c10.24-5.64,10.24-3.76,20.49-5.64c10.24-1.88,23.9,0,23.9-7.51c0-7.51,6.83-1.88,13.66-1.88c6.83,0,6.83-15.03,13.66-13.15
	c6.83,1.88,10.24,5.64,18.78,0s1.71-13.15,15.37-15.03c13.66-1.88,5.12-7.51,13.66-9.39c8.54-1.88,18.78,0,23.9-5.64
	c5.12-5.64,13.66-5.64,18.78-5.64c5.12,0,3.41-15.03,10.24-13.15c6.83,1.88,10.24,1.88,13.66,0c3.41-1.88,5.12-9.39,11.95-9.39
	c6.83,0,13.66,3.76,17.07,3.76c3.41,0,10.24-7.51,18.78-3.76s8.54,13.15,17.07,13.15c8.54,0,17.07,0,20.49,1.88
	c3.41,1.88,10.24,11.27,15.37,7.51c5.12-3.76,11.95,1.88,15.37,1.88c3.41,0,13.66-5.64,20.49,1.88c6.83,7.51,3.41,5.64,10.24,3.76
	s13.66,11.27,22.2,11.27s8.54-3.76,15.37-3.76c6.83,0,5.12,9.39,13.66,7.51c8.54-1.88,6.83-11.27,11.95-9.39
	c5.12,1.88,3.41,9.39,10.24,9.39c6.83,0,1.71-15.03,8.54-16.91c6.83-1.88,8.54,7.51,13.66,1.88c5.12-5.64,0-7.51,6.83-15.03
	c6.83-7.51,11.95-3.76,18.78-5.64c6.83-1.88,5.12-9.39,10.24-13.15c5.12-3.76,6.83,0,6.83,0v255.49L801,522l-110,53l-127.25-82.26
	L1.78,442L0,288.02z"/>
<path class="st5" d="M1157.18,522.08c-66.53,6.78-127.93-20.33-163.76-23.72s-121.11,5.08-165.46,8.47s-80.17,44.05-143.29,42.35
	S474.87,383.16,374.22,418.74c-100.64,35.58-156.93,30.49-182.52,30.49c-25.59,0-52.88-32.19-90.41-35.58S0.44,359.45,0.44,359.45
	L0.27,499.02l9.88,29.8l13.53-39.1l10.15,56.1l15.22-51l11.84,61.2l13.53-47.6l8.45,49.3l16.91-57.8l5.07,30.6l18.6-71.4l10.15,56.1
	l16.91-52.7l11.84,57.8l11.84-44.2l6.76,32.3l18.6-43.87l18.6,59.17l6.76-22.1l5.07,23.8l16.91-62.01l11.84,50.11l11.84-37.63
	l10.15,51.23l15.22-35.7l15.22,45.9l8.45-45.9l15.22,69.7l8.45-20.4l11.84,59.5l8.45-49.3l8.45,35.7l20.29-73.11l8.45,59.5
	l11.84-54.4l18.6,81.61l6.76-37.4l8.45,37.4l20.29-79.91l15.22,79.91l8.45-30.6l13.53,61.2l11.84-49.3l8.45,37.4l18.6-76.51
	l13.53,68l10.15-49.3l10.15,39.1l16.91-69.7l15.22,83.31l10.15-32.3l10.15,49.3l15.22-68l13.53,57.8l11.84-56.1l13.53,68l8.45-37.4
	l6.76,42.5l18.6-45.9l11.84,42.5l11.84-57.8l15.22,69.7l11.84-34l10.15,45.9l13.53-66.3l10.15,52.7l10.15-44.2l15.22,62.9l8.45-40.8
	l5.07,34l21.98-78.21l10.15,49.3l20.29-71.4l10.15,45.9l13.53-27.2l15.22,42.5l8.45-28.9l8.45,44.2l10.15-28.9l10.15,54.4l6.76-34
	l10.15,35.7l15.22-40.8l10.15,47.6l8.45-30.6l10.15,42.5l10.15-28.9l8.45,47.6l15.22-71.4l8.45,42.5l10.15-28.9l11.84,51l11.84-30.6
	l10.15,25.5l18.6-62.9l10.15,49.3l10.15-32.3l15.22,64.6l15.22-42.5l10.15,34l21.98-79.91l13.53,66.3l11.84-25.5l8.45,20.4
	l15.22-42.5l13.53,37.4V515.3C1268.06,506.83,1223.71,515.3,1157.18,522.08z"/>
</svg>
