<?xml version="1.0" encoding="utf-8"?>
<!-- Generator: Adobe Illustrator 22.1.0, SVG Export Plug-In . SVG Version: 6.00 Build 0)  -->
<svg version="1.1" id="Vrstva_1" xmlns="http://www.w3.org/2000/svg" xmlns:xlink="http://www.w3.org/1999/xlink" x="0px" y="0px"
	 viewBox="0 0 1280.9 376.7" style="enable-background:new 0 0 1280.9 376.7;" xml:space="preserve">
<style type="text/css">
	.st0{fill:#365B3E;}
	.st1{fill:#5A8461;}
</style>
<path class="st0" d="M0,64.7C0,64.7,9.6,62,116,4c47.8-26,181.7,80.3,264,128.2s220,40.9,276.6,32.3c56.6-8.6,162.4,9.9,327.9,33.5
	c27.4,3.9,99.6-20.7,168.7-67c54.7-36.7,119.2-63.1,127.8-66.6c0,0,0,170.5,0,170.5l-633,53.4L0,154V64.7z"/>
<path class="st1" d="M1267.3,124.8c-5.1,3.8-0.9,11.6-7.8,13.5s-6.4,0.9-13.2,8.5c-6.8,7.6-1.7,9.5-6.8,15.1
	c-5.1,5.7-6.8-3.8-13.7-1.9c-6.8,1.9-1.7,17-8.5,17s-5.1-7.6-10.3-9.5s-3.4,7.6-12,9.5c-8.5,1.9-6.8-7.6-13.7-7.6
	c-6.8,0-6.8,3.8-15.4,3.8s-15.4-13.3-22.2-11.4c-6.8,1.9-3.4,3.8-10.3-3.8c-6.8-7.6-17.1-1.9-20.5-1.9s-10.3-5.7-15.4-1.9
	s-12-5.7-15.4-7.6c-3.4-1.9-12-1.9-20.5-1.9s-8.5-9.5-17.1-13.3c-8.5-3.8-15.4,3.8-18.8,3.8s-10.3-3.8-17.1-3.8s-8.5,7.6-12,9.5
	c-3.4,1.9-6.8,1.9-13.7,0c-6.8-1.9-5.1,13.3-10.3,13.3c-5.1,0-13.7,0-18.8,5.7s-15.4,3.8-23.9,5.7s0,7.6-13.7,9.5
	s-6.8,9.5-15.4,15.1c-8.5,5.7-12,1.9-18.8,0s-6.8,13.3-13.7,13.3s-13.7-5.7-13.7,1.9c0,7.6-13.7,5.7-23.9,7.6
	c-10.3,1.9-10.3,0-20.5,5.7c-10.3,5.7-17.1,3.8-23.9,3.8s-8.5,7.6-13.7,9.5s-8.5-1.9-17.1,0c-8.5,1.9-6.8,9.5-15.4,13.3
	s-5.1-7.6-18.8,1.9c-13.7,9.5-12,1.9-18.8,5.7c-6.8,3.8-5.1,15.1-15.4,15.1s-10.3-7.6-17.1-7.6s-3.4,13.3-10.3,17s-12-5.7-15.4-3.8
	c-3.4,1.9-3.4,5.7-10.3,5.7s-6.8-11.4-12-9.5s-5.1,9.5-6.8,7.6s-8.5-13.3-13.7-13.3s-6.8,3.8-10.3,3.8s-6.8-11.4-10.3-11.4
	s-3.4,9.5-8.5,7.6s-10.3-11.4-18.8-9.5s-12,3.8-17.1,3.8s3.4-5.7-12-7.6c-15.4-1.9-12,3.8-20.5,1.9c-8.5-1.9-12-3.8-18.8-13.3
	s-18.8-1.9-27.3-3.8c-8.5-1.9-13.7-9.5-20.5-9.5s-8.5,1.9-18.8,0s-10.3-5.7-17.1-9.5s-18.8,0-22.2,0c-3.4,0-10.3-11.4-17.1-17
	s-6.8,1.9-18.8,0s-13.7-11.4-17.1-13.3c-3.4-1.9-8.5-1.9-18.8-5.7s-5.1-9.5-12-15.1s-13.7,0-20.5-1.9s-5.1-11.4-17.1-11.4
	c-12,0-8.5-5.7-10.3-9.5c-1.7-3.8-13.7-1.9-20.5-1.9s-15.4-7.6-18.8-11.4c-3.4-3.8-13.7-1.9-20.5,0c-6.8,1.9-1.7-11.4-20.5-11.4
	s-13.7-3.8-22.2-3.8s-12,3.8-20.5,5.7s-12-3.8-22.2-5.7s-15.4,3.8-20.5,7.6c-5.1,3.8-12-7.6-27.3-5.7c-15.4,1.9-18.8-1.9-25.6-3.8
	s-10.2,5.2-18.8,3.8c-6.3-1-7.6-3.1-10.1-4.2v230.3c0,0,18.9,2.2,35.8-15.7c21.7-23.1,44.5-67.6,65.6-65.7
	c37.6,3.4,64.9,35.9,90.5,35.9s81.9-16.1,182.7-52s247.5,129.9,310.7,131.6s99-39.3,143.4-42.7s129.7-12,165.6-8.5
	c35.9,3.4,97.3,30.8,163.9,23.9c66.6-6.8,87.6-9.5,122.7-6.8V111.9C1274.8,109.4,1272.4,121,1267.3,124.8z"/>
</svg>
