<?xml version="1.0" encoding="utf-8"?>
<!-- Generator: Adobe Illustrator 23.0.0, SVG Export Plug-In . SVG Version: 6.00 Build 0)  -->
<svg version="1.1" id="Vrstva_1" xmlns="http://www.w3.org/2000/svg" xmlns:xlink="http://www.w3.org/1999/xlink" x="0px" y="0px"
	 viewBox="0 0 1280 599" style="enable-background:new 0 0 1280 599;" xml:space="preserve">
<style type="text/css">
	.st0{fill:#966F36;}
	.st1{fill:#513119;}
	.st2{fill:#5A8461;}
	.st3{fill:#516D3E;}
</style>
<path class="st0" d="M0.05,65.41c0,0-4.55,5.69,119.14-61.38c47.52-25.76,180.14,80.15,261.71,127.91s203.93,57.98,260.01,49.46
	c81.28-12.36,634.13,242.69,634.13,242.69l-672.32-43.81L0.05,311V65.41z"/>
<path class="st1" d="M643.21,287.32c81.57-12.36,329.14-180.77,370.07-197.83s160.31,102.32,184.18,102.32
	c23.88,0,82.5-46.69,82.5-46.69L1279.59,463c-212.08,0-341.51-46-553.59-46C512.34,417,586.93,295.85,643.21,287.32z"/>
<path class="st2" d="M0.05,179.61c0,0,1.07,5.67,9.63,3.78s11.98-5.67,18.82-3.78c6.84,1.89,10.27,5.67,25.67,3.78
	s22.24,9.44,27.38,5.67c5.13-3.78,10.27-9.44,20.53-7.55c10.27,1.89,13.69,7.55,22.24,5.67s11.98-5.67,20.53-5.67
	c8.56,0,3.42,3.78,22.24,3.78s13.69,13.22,20.53,11.33c6.84-1.89,17.11-3.78,20.53,0c3.42,3.78,11.98,11.33,18.82,11.33
	c6.84,0,18.82-1.89,20.53,1.89c1.71,3.78-1.71,9.44,10.27,9.44c11.98,0,10.27,9.44,17.11,11.33c6.84,1.89,13.69-3.78,20.53,1.89
	c6.84,5.67,1.71,11.33,11.98,15.11c10.27,3.78,15.4,3.78,18.82,5.67c3.42,1.89,5.13,11.33,17.11,13.22
	c11.98,1.89,11.98-5.67,18.82,0c6.84,5.67,13.69,17,17.11,17c3.42,0,15.4-3.78,22.24,0c6.84,3.78,6.84,7.55,17.11,9.44
	c10.27,1.89,11.98,0,18.82,0c6.84,0,11.98,7.55,20.53,9.44c8.56,1.89,20.53-5.67,27.38,3.78c6.84,9.44,10.27,11.33,18.82,13.22
	c8.56,1.89,5.13-3.78,20.53-1.89c15.4,1.89,6.84,7.55,11.98,7.55s8.56-1.89,17.11-3.78c8.56-1.89,13.69,7.55,18.82,9.44
	c5.13,1.89,5.13-7.55,8.56-7.55c3.42,0,6.84,11.33,10.27,11.33c3.42,0,5.13-3.78,10.27-3.78s11.98,11.33,13.69,13.22
	c1.71,1.89,1.71-5.67,6.84-7.55c5.13-1.89,5.13,9.44,11.98,9.44c6.84,0,6.84-3.78,10.27-5.67c3.42-1.89,8.56,7.55,15.4,3.78
	c6.84-3.78,3.42-17,10.27-17s6.84,7.55,17.11,7.55s8.56-11.33,15.4-15.11c6.84-3.78,5.13,3.78,18.82-5.67s10.27,1.89,18.82-1.89
	c8.56-3.78,6.84-11.33,15.4-13.22c8.56-1.89,11.98,1.89,17.11,0c5.13-1.89,6.84-9.44,13.69-9.44s13.69,1.89,23.96-3.78
	s10.27-3.78,20.53-5.67c10.27-1.89,23.96,0,23.96-7.55s6.84-1.89,13.69-1.89c6.84,0,6.84-15.11,13.69-13.22
	c6.84,1.89,10.27,5.67,18.82,0c8.56-5.67,1.71-13.22,15.4-15.11s5.13-7.55,13.69-9.44c8.56-1.89,18.82,0,23.96-5.67
	c5.13-5.67,13.69-5.67,18.82-5.67s3.42-15.11,10.27-13.22c6.84,1.89,10.27,1.89,13.69,0c3.42-1.89,5.13-9.44,11.98-9.44
	c6.84,0,13.69,3.78,17.11,3.78c3.42,0,10.27-7.55,18.82-3.78c8.56,3.78,8.56,13.22,17.11,13.22c8.56,0,17.11,0,20.53,1.89
	c3.42,1.89,10.27,11.33,15.4,7.55c5.13-3.78,11.98,1.89,15.4,1.89c3.42,0,13.69-5.67,20.53,1.89c6.84,7.55,3.42,5.67,10.27,3.78
	c6.84-1.89,13.69,11.33,22.24,11.33c8.56,0,8.56-3.78,15.4-3.78c6.84,0,5.13,9.44,13.69,7.55c8.56-1.89,6.84-11.33,11.98-9.44
	s3.42,9.44,10.27,9.44c6.84,0,1.71-15.11,8.56-17c6.84-1.89,8.56,7.55,13.69,1.89c5.13-5.67,0-7.55,6.84-15.11
	c6.84-7.55,11.98-3.78,18.82-5.67c6.84-1.89,5.13-9.44,10.27-13.22s4,2.84,4,2.84l-0.01,254.01l-445.47-40.57L720,463l-266.62-86.71
	L0.05,335V179.61z"/>
<path class="st3" d="M1161.16,415.75c-66.78,6.82-128.42-20.46-164.37-23.88c-35.96-3.41-121.57,5.12-166.09,8.53
	c-44.52,3.41-80.47,44.34-143.83,42.64s-210.6-167.13-311.63-131.32c-101.02,35.81-157.52,30.7-183.21,30.7s-53.08-32.4-90.75-35.81
	C63.63,303.2,0.05,252.04,0.05,252.04l-0.44,363.25l0.66,0V391.88l10.14,30.7l13.52-39.22l10.14,56.28l15.21-51.16l11.83,61.39
	l13.52-47.75l8.45,49.46l16.9-57.98l5.07,30.7l18.59-71.63l10.14,56.28l16.9-52.87l11.83,57.98l11.83-44.34l6.76,32.4l18.59-44.01
	l18.59,59.36l6.76-22.17l5.07,23.88l16.9-62.2l11.83,50.26l11.83-37.75l10.14,51.39l15.21-35.81l15.21,46.05l8.45-46.05l15.21,69.92
	l8.45-20.46l11.83,59.69l8.45-49.46l8.45,35.81l20.28-73.33l8.45,59.69l11.83-54.57l18.59,81.86l6.76-37.52l8.45,37.52l20.28-80.15
	l15.21,80.15l8.45-30.7L504,524.9l11.83-49.46l8.45,37.52l18.59-76.74l13.52,68.22l10.14-49.46l10.14,39.22l16.9-69.92l15.21,83.56
	l10.14-32.4l10.14,49.46l15.21-68.22l13.52,57.98l11.83-56.28l13.52,68.22l8.45-37.52l6.76,42.64l18.59-46.05l11.83,42.64
	l11.83-57.98l15.21,69.92l11.83-34.11l10.14,46.05l13.52-66.51l10.14,52.87l10.14-44.34l15.21,63.1l8.45-40.93l5.07,34.11
	l21.97-78.45l10.14,49.46l20.28-71.63l10.14,46.05l13.52-27.29l15.21,42.64l8.45-28.99l8.45,44.34l10.14-28.99l10.14,54.57
	l6.76-34.11l10.14,35.81l15.21-40.93l10.14,47.75l8.45-30.7l10.14,42.64l10.14-28.99l8.45,47.75l15.21-71.63l8.45,42.64l10.14-28.99
	l11.83,51.16l11.83-30.7l10.14,25.58l18.59-63.1l10.14,49.46l10.14-32.4l15.21,64.81l15.21-42.64l10.14,34.11l21.97-80.15
	l13.52,66.51l11.83-25.58l8.45,20.46l15.21-42.64l13.52,37.52V411.78C1270.75,400.41,1227.94,408.93,1161.16,415.75z"/>
</svg>
