<?xml version="1.0" encoding="utf-8"?>
<!-- Generator: Adobe Illustrator 22.1.0, SVG Export Plug-In . SVG Version: 6.00 Build 0)  -->
<svg version="1.1" id="Vrstva_1" xmlns="http://www.w3.org/2000/svg" xmlns:xlink="http://www.w3.org/1999/xlink" x="0px" y="0px"
	 viewBox="0 0 1279.7 454" style="enable-background:new 0 0 1279.7 454;" xml:space="preserve">
<style type="text/css">
	.st0{fill:#7C2219;}
	.st1{fill:#712413;}
	.st2{fill:#AD4A00;}
</style>
<g>
	<path class="st1" d="M1163.3,317.3c51.7-19.3,48.8-46.6,83.5-60.3c14.8-5.8,32.8-16.8,33.1-17l-0.1-29c0,0-13.9,4.4-31.3,7.4
		c-17.4,2.9-38.3,4.4-45.2,4.4c-13.8,0-13.8-23.4-29.3-19.5c-15.5,3.9-34.5-15.6-77.6-52.7c-43.1-37.1-70.7,0-77.6,7.8
		c-6.9,7.8-60.4,54.6-82.8,58.5c-22.4,3.9-70.7,3.9-93.1-35.1c-22.4-39-58.6-31.2-63.8-31.2s-10.4,27.3-34.5,5.8
		c-24.1-21.5-62.1-68.3-75.9-78c-13.8-9.8-56.9,27.3-69,21.5s-20.7-48.8-31-52.7c-10.4-3.9-20.7-44.9-31-46.8s-17.2,27.3-24.1,46.8
		s-60.4,76.1-75.9,83.9c-15.5,7.8-20.7-17.6-34.5-39c-13.8-21.5-25.9-9.8-41.4,2c-15.5,11.7-50,37.1-60.4,39s-32.8-7.8-51.7-21.5
		c-19-13.7-37.9-27.3-48.3-31.2c-15.6-5.9-16.4,22.3-48.3,48.8c-5.1,4.3-7.4,1-41.4,23C92,164.7,36.3,194.3,12,206.2
		c-6.8,3.3-11.5,4.7-12,4.8c0,8.2,0,15.1,0,20.6l0,4.7c0,0,75.5-28,108.4-35.9c48.8-7.5,181.6,52.4,263.8,83.6
		c82.2,31.2,158.9,42.4,215.4,36.8c29-2.9,157.6,2.1,270.7,23c17.4,3.2,34.1,2.3,50.4,6.5c1.3-0.7,3.3-0.9,5.8-1.3
		c13.7-1.9,5.1-7.5,13.7-9.4s18.8,0,23.9-5.7c5.1-5.7,13.7-5.7,18.8-5.7s3.4-15.1,10.2-13.2c6.8,1.9,10.2,1.9,13.7,0
		c3.4-1.9,5.1-9.4,11.9-9.4c6.8,0,13.7,3.8,17.1,3.8s10.2-7.5,18.8-3.8c8.5,3.8,8.5,13.2,17.1,13.2c8.5,0,17.1,0,20.5,1.9
		c3.4,1.9,10.2,11.3,15.4,7.5c1.7-1.3,3.6-1.5,5.5-1.2l0,0C1100.9,326.9,1141.3,324.3,1163.3,317.3z"/>
	<path class="st2" d="M0,231.5v54.6C0.1,258.1,0.1,254.1,0,231.5z"/>
	<path class="st2" d="M908.6,350.2c-121.9-31.8-234.8-57.4-268.3-54.1c-56.5,5.6-179.8-1.1-262.1-32.3
		c-82.2-31.2-215-91.1-263.8-83.6C81.6,188,0,229.7,0,229.7v1.9c0.1,22.6,0.1,26.6,0,54.6v15.6c0,0,2.9,3.8,11.5,1.9
		c8.5-1.9,11.1-14.1,17.9-12.2s9.3,1.8,24.7-0.1c15.4-1.9,22.2,9.4,27.3,5.7c5.1-3.8,10.2-9.4,20.5-7.5c10.2,1.9,13.7,7.5,22.2,5.7
		c8.5-1.9,11.9-5.7,20.5-5.7s3.4,3.8,22.2,3.8s13.7,13.2,20.5,11.3c6.8-1.9,17.1-3.8,20.5,0c3.4,3.8,12,11.3,18.8,11.3
		c6.8,0,18.8-1.9,20.5,1.9s-1.7,9.4,10.2,9.4s10.2,9.4,17.1,11.3c6.8,1.9,13.7-3.8,20.5,1.9c6.8,5.7,1.7,11.3,11.9,15.1
		c10.2,3.8,15.4,3.8,18.8,5.7c3.4,1.9,5.1,11.3,17.1,13.2c11.9,1.9,11.9-5.7,18.8,0c6.8,5.7,13.7,17,17.1,17s15.4-3.8,22.2,0
		c6.8,3.8,6.8,7.5,17.1,9.4c10.2,1.9,12,0,18.8,0c6.8,0,12,7.5,20.5,9.4c8.5,1.9,20.5-5.7,27.3,3.8c6.8,9.4,10.2,11.3,18.8,13.2
		s5.1-3.8,20.5-1.9c15.4,1.9,6.8,7.5,11.9,7.5c5.1,0,8.5-1.9,17.1-3.8c8.5-1.9,13.7,7.5,18.8,9.4c5.1,1.9,5.1-7.5,8.5-7.5
		c3.4,0,6.8,11.3,10.2,11.3c3.4,0,5.1-3.8,10.2-3.8c5.1,0,11.9,11.3,13.7,13.2s1.7-5.7,6.8-7.5c5.1-1.9,5.1,9.4,11.9,9.4
		s6.8-3.8,10.2-5.7s8.5,7.5,15.4,3.8c6.8-3.8,3.4-17,10.2-17s6.8,7.5,17.1,7.5s8.5-11.3,15.4-15.1c6.8-3.8,5.1,3.8,18.8-5.7
		c13.7-9.4,10.2,1.9,18.8-1.9s6.8-11.3,15.4-13.2c8.5-1.9,12,1.9,17.1,0c5.1-1.9,6.8-9.4,13.7-9.4c6.8,0,13.7,1.9,23.9-3.8
		c10.2-5.7,10.2-3.8,20.5-5.7c10.2-1.9,23.9,0,23.9-7.5s6.8-1.9,13.7-1.9c6.8,0,6.8-15.1,13.7-13.2c6.8,1.9,10.2,5.7,18.8,0
		C906.6,360,903.6,351.9,908.6,350.2L908.6,350.2z"/>
	<path class="st2" d="M1131.3,331.9c6.8,7.6,3.4,5.7,10.2,3.8c6.8-1.9,13.7,11.3,22.2,11.3c8.5,0,8.5-3.8,15.4-3.8
		c6.8,0,5.1,9.4,13.7,7.5s6.8-11.3,11.9-9.4c5.1,1.9,3.4,9.4,10.2,9.4c6.8,0,1.7-15.1,8.5-17s8.5,7.5,13.7,1.9
		c5.1-5.7,0-7.5,6.8-15.1c6.8-7.6,11.9-3.8,18.8-5.7s5.1-9.4,10.2-13.2c5.1-3.8,6.8,0,6.8,0v-72c-0.3,0.2-20.7,10.2-35.5,16
		c-34.7,13.7-42,46-93.7,65.3c-22,7-49.7,15.9-49.7,15.9l0,0c3.8,0.6,7.6,3.1,9.9,3.1C1114.2,330,1124.4,324.4,1131.3,331.9z"/>
</g>
</svg>
