<?xml version="1.0" encoding="utf-8"?>
<!-- Generator: Adobe Illustrator 23.0.0, SVG Export Plug-In . SVG Version: 6.00 Build 0)  -->
<svg version="1.1" id="Vrstva_1" xmlns="http://www.w3.org/2000/svg" xmlns:xlink="http://www.w3.org/1999/xlink" x="0px" y="0px"
	 viewBox="0 0 1280 454" style="enable-background:new 0 0 1280 454;" xml:space="preserve">
<style type="text/css">
	.st0{fill:#7C2219;}
	.st1{fill:#AD4A00;}
</style>
<g>
	<path class="st0" d="M0.49,288.23c0.68,1.27,2.8,3.52,9.12,2.12c8.54-1.89,11.95-5.67,18.78-3.78c6.83,1.89,10.24,5.67,25.61,3.78
		c15.36-1.89,22.19,9.44,27.31,5.67s10.24-9.44,20.49-7.55c10.24,1.89,13.66,7.55,22.19,5.67c8.54-1.89,11.95-5.67,20.49-5.67
		c8.54,0,3.41,3.78,22.19,3.78s13.66,13.22,20.49,11.33c6.83-1.89,17.07-3.78,20.49,0s11.95,11.33,18.78,11.33
		s18.78-1.89,20.49,1.89s-1.71,9.44,10.24,9.44s10.24,9.44,17.07,11.33c6.83,1.89,13.66-3.78,20.49,1.89
		c6.83,5.67,1.71,11.33,11.95,15.11s15.36,3.78,18.78,5.67c1.4,0.78,2.52,2.83,4.17,5.1l546.23,0.36c1.14-1.41,2.51-2.21,4.41-1.68
		c1.81,0.5,3.38,1.13,4.87,1.69l10.95,0.01c0.92-0.43,1.9-0.99,2.96-1.69c8.54-5.67,1.71-13.22,15.36-15.11
		c13.66-1.89,5.12-7.55,13.66-9.44c8.54-1.89,18.78,0,23.9-5.67c5.12-5.67,13.66-5.67,18.78-5.67s3.41-15.11,10.24-13.22
		c6.83,1.89,10.24,1.89,13.66,0c3.41-1.89,5.12-9.44,11.95-9.44s13.66,3.78,17.07,3.78s10.24-7.55,18.78-3.78
		c8.54,3.78,8.54,13.22,17.07,13.22c8.54,0,17.07,0,20.49,1.89c3.41,1.89,10.24,11.33,15.36,7.55s11.95,1.89,15.36,1.89
		c3.41,0,13.66-5.67,20.49,1.89s3.41,5.67,10.24,3.78c6.83-1.89,13.66,11.33,22.19,11.33c8.54,0,8.54-3.78,15.36-3.78
		s5.12,9.44,13.66,7.55c8.54-1.89,6.83-11.33,11.95-9.44c5.12,1.89,3.41,9.44,10.24,9.44s1.71-15.11,8.54-17
		c6.83-1.89,8.54,7.55,13.66,1.89c5.12-5.67,0-7.55,6.83-15.11s11.95-3.78,18.78-5.67c6.83-1.89,5.12-9.44,10.24-13.22
		s6.83,0,6.83,0v-90.73c0,0-62.66,11.71-76.46,11.71s-13.8-23.42-29.32-19.51c-15.52,3.9-34.49-15.61-77.6-52.69
		c-43.11-37.08-70.7,0-77.6,7.81s-60.36,54.64-82.77,58.54c-22.42,3.9-70.7,3.9-93.12-35.12c-22.42-39.03-58.63-31.22-63.8-31.22
		c-5.17,0-10.35,27.32-34.49,5.85c-24.14-21.46-62.08-68.3-75.88-78.05c-13.8-9.76-56.91,27.32-68.98,21.46
		s-20.69-48.78-31.04-52.69c-10.35-3.9-20.69-44.88-31.04-46.83c-10.35-1.95-17.24,27.32-24.14,46.83
		c-6.9,19.51-60.36,76.1-75.88,83.91s-20.69-17.56-34.49-39.03s-25.87-9.76-41.39,1.95c-15.52,11.71-50.01,37.08-60.36,39.03
		c-10.35,1.95-32.76-7.81-51.73-21.46c-18.97-13.66-37.94-27.32-48.28-31.22c-15.65-5.9-16.45,22.32-48.28,48.78
		c-5.14,4.28-7.43,1-41.39,22.96c-25.29,16.36-111.64,15.3-111.63,16.9C0.52,210.91,0.58,253.51,0.49,288.23z"/>
</g>
<path class="st1" d="M0.19,288.46c0,0,0.89,4.78,9.42,2.89c8.54-1.89,11.95-5.67,18.78-3.78c6.83,1.89,10.24,5.67,25.61,3.78
	c15.36-1.89,22.19,9.44,27.31,5.67s10.24-9.44,20.49-7.55c10.24,1.89,13.66,7.55,22.19,5.67c8.54-1.89,11.95-5.67,20.49-5.67
	c8.54,0,3.41,3.78,22.19,3.78s13.66,13.22,20.49,11.33c6.83-1.89,17.07-3.78,20.49,0s11.95,11.33,18.78,11.33s18.78-1.89,20.49,1.89
	s-1.71,9.44,10.24,9.44s10.24,9.44,17.07,11.33c6.83,1.89,13.66-3.78,20.49,1.89c6.83,5.67,1.71,11.33,11.95,15.11
	s15.36,3.78,18.78,5.67c3.41,1.89,5.12,11.33,17.07,13.22c11.95,1.89,11.95-5.67,18.78,0s13.66,17,17.07,17s15.36-3.78,22.19,0
	s6.83,7.55,17.07,9.44c10.24,1.89,11.95,0,18.78,0s11.95,7.55,20.49,9.44c8.54,1.89,20.49-5.67,27.31,3.78
	c6.83,9.44,10.24,11.33,18.78,13.22c8.54,1.89,5.12-3.78,20.49-1.89c15.36,1.89,6.83,7.55,11.95,7.55s8.54-1.89,17.07-3.78
	c8.54-1.89,13.66,7.55,18.78,9.44c5.12,1.89,5.12-7.55,8.54-7.55s6.83,11.33,10.24,11.33s5.12-3.78,10.24-3.78
	s11.95,11.33,13.66,13.22c1.71,1.89,1.71-5.67,6.83-7.55s5.12,9.44,11.95,9.44s6.83-3.78,10.24-5.67c3.41-1.89,8.54,7.55,15.36,3.78
	s3.41-17,10.24-17s6.83,7.55,17.07,7.55s8.54-11.33,15.36-15.11c6.83-3.78,5.12,3.78,18.78-5.67c13.66-9.44,10.24,1.89,18.78-1.89
	s6.83-11.33,15.36-13.22c8.54-1.89,11.95,1.89,17.07,0c5.12-1.89,6.83-9.44,13.66-9.44s13.66,1.89,23.9-3.78
	c10.24-5.67,10.24-3.78,20.49-5.67c10.24-1.89,23.9,0,23.9-7.55s6.83-1.89,13.66-1.89s6.83-15.11,13.66-13.22
	c6.83,1.89,10.24,5.67,18.78,0c7.45-4.95,3.19-11.33,11.09-14.13c-122.44-31.98-236.22-58.13-269.86-54.82
	c-56.52,5.57-179.85-1.11-262.07-32.32c-82.22-31.21-215.96-100.51-263.78-83.6C7.97,217.75-0.06,218.82-0.06,218.82L0.19,288.46z"
	/>
</svg>
