<?xml version="1.0" encoding="utf-8"?>
<!-- Generator: Adobe Illustrator 22.1.0, SVG Export Plug-In . SVG Version: 6.00 Build 0)  -->
<svg version="1.1" id="Layer_1" xmlns="http://www.w3.org/2000/svg" xmlns:xlink="http://www.w3.org/1999/xlink" x="0px" y="0px"
	 viewBox="0 0 1129 614" style="enable-background:new 0 0 1129 614;" xml:space="preserve">
<style type="text/css">
	.st0{fill:#966F36;}
	.st1{fill:#513119;}
	.st2{fill:#5A8461;}
	.st3{fill:#516D3E;}
	.st4{display:none;}
</style>
<g id="hora">
	<g>
		<path class="st0" d="M13,275c7.7-0.3,11-13.7,17-12s9.5,10.7,23,9s19.5,4.3,24,1s6-6.7,15-5s10.5,32.7,18,31s4.3-21.9,11.8-21.9
			s3,3.3,19.6,3.3s12,11.6,18.1,10c6-1.7,15-3.3,18.1,0c3,3.3,13.5-6,19.6-6c6,0,16.6-1.7,18.1,1.7c1.5,3.3-1.5,8.3,9,8.3
			s9,8.3,15,10s12-3.3,18.1,1.7c6,5,1.5,10,10.5,13.3s13.5,3.3,16.6,5c3,1.7,4.5,10,15,11.6c10.5,1.7,11.5-9,17.6-4
			c6,5,12,14.9,15,14.9s13.5-3.3,19.6,0c6,3.3,6,6.6,15,8.3s10.5,2,16.6,2c6,0,10.5,6.6,18.1,8.3c7.5,1.7,18.1-5,24.1,3.3
			s9,10,16.6,11.6c7.5,1.7,4.5-3.3,18.1-1.7s5.8,6.3,10.3,6.3s13.7,13.6,21.3,12c7.5-1.7,12,6.6,16.6,8.3c4.5,1.7,4.5-6.6,7.5-6.6
			c1.9,0,2.8-9,4.7-6.1c17.4-21.4,37.1-42.5,49.8-44.4c15.2-2.3,36.9-10.7,62-22.8c-29.7-8.6-57.4-14-69-12.3
			c-49.7,7.5-158.2-1.5-230.5-43.5s-184.2-113.8-232-112.4C73.5,158,0,228,0,228v47C0,275,7,275.2,13,275z"/>
		<path class="st0" d="M1111.5,274c5.7,2.5,3.5-12.7,8-16c4.5-3.3,9.5,1,9.5,1v-31c-12.7,10.3-30.8,27.6-49.5,45
			c6.1,2.5,13.9,9.3,19.4,12.1C1104.1,283,1103.9,270.6,1111.5,274z"/>
		<path class="st1" d="M1081.2,271c-10.7-4.4-10.8-13-37.8-12c-21,0.8-116.9-100.7-152.9-85.7c-28.4,11.8-169.7,106.4-263.4,151.1
			c-25.1,12-46.8,20.5-62,22.8c-12.8,1.9-35.4,20.5-52.9,41.8c1.1,1.7,6.2,6.6,7.4,6.6c3,0,4.5-3.3,9-3.3s10.5,10,12,11.6
			c1.5,1.7,1.5-5,6-6.6c4.5-1.7,4.5,8.3,10.5,8.3s6-3.3,9-5s7.5,6.6,13.5,3.3c6-3.3,2-14.9,8-14.9s6,6.6,15,6.6s7.5-10,13.5-13.3
			s4.5,3.3,16.6-5c12-8.3,9,1.7,16.6-1.7c7.5-3.3,6-10,13.5-11.6s10.5,1.7,15,0s6-8.3,12-8.3c3.2,0,6.4,0.5,10,0.2
			c3.2-0.3,9.8-2.1,14-4.5c9-5,9-3.3,18.1-5c9-1.7,21.1,0,21.1-6.6s6-1.7,12-1.7s6-13.3,12-11.6c6,1.7,9,5,16.6,0
			c7.5-5,1.5-11.6,13.5-13.3s2.5-5.6,10-7.3s16.6,0,21.1-5s12-5,16.6-5s3-13.3,9-11.6c6,1.7,9,1.7,12,0s4.5-8.3,10.5-8.3
			s12,3.3,15,3.3s9-6.6,16.6-3.3c7.5,3.3,7.5,11.6,15,11.6s15,0,18.1,1.7c3,1.7,9,10,13.5,6.6c4.5-3.3,10.5,1.7,13.5,1.7
			s12-4,18.1,2.7c6,6.6,3,5,9,3.3s12,10,19.6,10c7.5,0,7.5-3.3,13.5-3.3c2.6,0,3.8,1.6,4.9,3.2c1.5,2.1,2.8,4.4,7.1,3.4
			c7.5-1.7,6-14,10.5-12.3s3,8.3,9,8.3s1.5-13.3,7.5-14.9c6-1.7,7.5,6.6,12,1.7s2.1-19.5,10.6-16.6c1.4,0.5,5.1-0.6,6-1
			C1101,279.3,1087.3,273.5,1081.2,271z"/>
		<path class="st2" d="M1119.5,252c-4.5,3.3-2.3,18.5-8,16c-7.6-3.4-7.4,9-12.6,11.1c-0.9,0.4-2.1,0.4-3.4-0.1
			c-8.5-2.8-1.1,11.7-5.6,16.6s-6-3.3-12-1.7c-6,1.7-1.5,14.9-7.5,14.9s-4.5-6.6-9-8.3c-4.5-1.7-3,6.6-10.5,8.3
			c-4.3,0.9-5.6-1.3-7.1-3.4c-1.1-1.6-2.3-3.2-4.9-3.2c-6,0-6,3.3-13.5,3.3s-13.5-11.6-19.6-10c-6,1.7-3,3.3-9-3.3
			c-6-6.6-15-1.7-18.1-1.7c-3,0-9-5-13.5-1.7s-10.5-5-13.5-6.6c-3-1.7-10.5-1.7-18.1-1.7c-7.5,0-7.5-8.3-15-11.6
			c-7.5-3.3-13.5,3.3-16.6,3.3c-3,0-9-3.3-15-3.3s-7.5,6.6-10.5,8.3c-3,1.7-6,1.7-12,0s-4.5,11.6-9,11.6s-12,0-16.6,5
			c-4.5,5-13.5,3.3-21.1,5s0,6.6-12,8.3c-12,1.7-6,8.3-13.5,13.3s-10.5,1.7-16.6,0c-6-1.7-6,11.6-12,11.6s-12-5-12,1.7
			s-12,5-21.1,6.6c-9,1.7-9,0-18.1,5c-4.2,2.3-7.8,3.2-11,3.5c-3.6,0.3-6.8-0.2-10-0.2c-6,0-7.5,6.6-12,8.3c-4.5,1.7-7.5-1.7-15,0
			s-6,8.3-13.5,11.6s-4.5-6.6-16.6,1.7s-10.5,1.7-16.6,5c-6,3.3-4.5,13.3-13.5,13.3s-9-6.6-15-6.6s-3,11.6-9,14.9s-10.5-5-13.5-3.3
			s-3,5-9,5s-6-10-10.5-8.3s-4.5,8.3-6,6.6c-1.5-1.7-7.5-11.6-12-11.6s-6,3.3-9,3.3c-1.1,0-2.2-1.4-3.3-3.1
			c-1.9-2.9-3.8-6.9-5.7-6.9c-3,0-3,8.3-7.5,6.6c-4.5-1.7-9-10-16.6-8.3c-7.5,1.7-10.5,3.3-15,3.3s3-5-10.5-6.6
			c-13.5-1.7-10.5,3.3-18.1,1.7c-7.5-1.7-10.5-3.3-16.6-11.6c-6-8.3-16.6-1.7-24.1-3.3s-12-8.3-18.1-8.3c-6,0-7.5,1.7-16.6,0
			s-9-5-15-8.3s-16.6,0-19.6,0s-9-10-15-14.9c-6-5-6,1.7-16.6,0c-10.5-1.7-12-10-15-11.6c-3-1.7-7.5-1.7-16.6-5
			c-9-3.3-4.5-8.3-10.5-13.3s-12,0-18.1-1.7c-6-1.7-4.5-10-15-10s-7.5-5-9-8.3s-12-1.7-18.1-1.7c-6,0-13.5-6.6-16.6-10
			c-3-3.3-12-1.7-18.1,0c-6,1.7-1.5-10-18.1-10s-12-3.3-19.6-3.3s-10.5,3.3-18.1,5c-7.5,1.7-10.5-3.3-19.6-5
			c-9-1.7-13.5,3.3-18.1,6.6s-10.5-6.6-24.1-5c-13.5,1.7-16.6-1.7-22.6-3.3c-6-1.7-8.9,3-16.6,3.3C2,256,0,253,0,253v168
			c0,0,55.4-59.9,88.5-56.9s57.2,31.5,79.8,31.5s73,16.9,161.8-14.6c48.1-17.1,107.5,5.4,161.3,41.2c45.5,30.3,80.3,67.1,105.8,67.8
			c55.7,1.5,90.9-24,130.1-27c39.1-3,117.1-26.9,148.7-23.9c31.6,3,85.8,27,144.6,21c51.5-5.3,86-22.9,102.5-34.5
			c2.3-1.6,4.3-3.2,5.9-4.5V253C1129,253,1124,248.7,1119.5,252z"/>
		<path class="st3" d="M1129,421c-1.6,1.4-3.6,2.9-5.9,4.5"/>
	</g>
</g>
<g id="hory">
	<path class="st3" d="M1019.5,421c-51-12-79,23-139.1-4c-29-13-111.3,26.6-150.4,29.6c-39.1,3-70.8,39-126.5,37.5
		S434.9,335.4,328.1,367c-73.9,21.9-114.6,26.5-137.1,24c-32.3-3.6-67.5-44.5-99-55c-16.4-5.4-38,23.4-60,31c-14.2,4.9-28-4-32-5v77
		l8.7,27l12-34.5l9,49.5l13.5-45l10.5,54l12-42l7.5,43.5l15-51l4.5,27l16.5-63l9,49.5l15-46.5l10.5,51l10.5-39l6,28.5l16.5-38.7
		l16.5,52.2l6-19.5l4.5,21l15-54.7l10.5,44.2l10.5-33.2l9,45.2l13.5-31.5l13.5,40.5l7.5-40.5l13.5,61.5l7.5-18l10.5,52.5l7.5-43.5
		l7.5,31.5l18-64.5l7.5,52.5l10.5-48l16.5,72l6-33l7.5,33l18-70.5l13.5,70.5l7.5-27l12,54l10.5-43.5l7.5,33l16.5-67.5l12,60l9-43.5
		l9,34.5l15-61.5l13.5,73.5l9-28.5l9,43.5l13.5-60l12,51l10.5-49.5l12,60l7.5-33l6,37.5l16.5-40.5l10.5,37.5l10.5-51l13.5,61.5
		l10.5-30l9,40.5l12-58.5l9,46.5l9-39l13.5,55.5l7.5-36l4.5,30l19.5-69l9,43.5l18-63l9,40.5l12-24l13.5,37.5l7.5-25.5l7.5,39l9-25.5
		l9,48l6-30l9,31.5l13.5-36l9,42l7.5-27l9,37.5l9-25.5l7.5,42l13.5-63l7.5,37.5l9-25.5l10.5,45l10.5-27l9,22.5l9.9-55l13,34l6-41
		l10,24l10-44l11,21l7-44l9,26l6-34l10,36l11-23l9,18l10-60l12,25l5.5-48v-77C1113.5,358.9,1080.1,435.3,1019.5,421z"/>
</g>
</svg>
