<?xml version="1.0" encoding="utf-8"?>
<!-- Generator: Adobe Illustrator 23.0.0, SVG Export Plug-In . SVG Version: 6.00 Build 0)  -->
<svg version="1.1" id="Vrstva_1" xmlns="http://www.w3.org/2000/svg" xmlns:xlink="http://www.w3.org/1999/xlink" x="0px" y="0px"
	 viewBox="0 0 241.51 233.92" style="enable-background:new 0 0 241.51 233.92;" xml:space="preserve">
<style type="text/css">
	.st0{fill:#5B8562;}
	.st1{fill:#C6C5C5;}
	.st2{fill:#FEFBF7;}
	.st3{fill:#582B1F;}
	.st4{fill:#9C5F34;}
	.st5{fill:#345F4D;}
</style>
<g>
	<path class="st0" d="M181.83,224.36H65.29v-18.27h116.54V224.36z M69.72,219.93H177.4v-9.41H69.72V219.93z"/>
	<path class="st0" d="M137.71,209.14h-28.31v-51.49h28.31V209.14z M113.84,204.71h19.45v-42.63h-19.45V204.71z"/>
	<rect x="121.26" y="28.38" class="st0" width="4.43" height="127.34"/>
	<path class="st0" d="M222.46,87.34h-62.07l24.91-65.05h-63.22v-4.43h67.85L222.46,87.34z M166.83,82.91h48.66l-26.76-57.18
		L166.83,82.91z"/>
	<path class="st0" d="M85.17,87.34H23.1l32.52-69.48h67.85v4.43H60.26L85.17,87.34z M30.07,82.91h48.66l-21.9-57.18L30.07,82.91z"/>
	<path class="st0" d="M191.99,117.79c-17.24,0-31.58-10.98-31.97-24.48l-0.06-2.24l32.03-0.54h31.97v2.22
		C223.96,106.55,209.62,117.79,191.99,117.79z M164.68,95.42c1.78,10.08,13.45,17.94,27.31,17.94c13.93,0,25.85-8.22,27.38-18.41
		h-27.36L164.68,95.42z"/>
	<path class="st0" d="M53.58,117.79c-17.24,0-31.58-10.98-31.97-24.48l-0.06-2.24l32.03-0.54h31.97v2.22
		C85.55,106.55,71.21,117.79,53.58,117.79z M26.27,95.42c1.78,10.08,13.45,17.94,27.31,17.94c13.93,0,25.85-8.22,27.38-18.41H53.6
		L26.27,95.42z"/>
	<path class="st0" d="M123.47,30.59c-5.8,0-10.52-4.72-10.52-10.52c0-5.8,4.72-10.52,10.52-10.52s10.52,4.72,10.52,10.52
		C133.99,25.87,129.27,30.59,123.47,30.59z M123.47,13.98c-3.36,0-6.09,2.73-6.09,6.09c0,3.36,2.73,6.09,6.09,6.09
		s6.09-2.73,6.09-6.09C129.56,16.71,126.83,13.98,123.47,13.98z"/>
</g>
</svg>
