<?xml version="1.0" encoding="utf-8"?>
<!-- Generator: Adobe Illustrator 22.1.0, SVG Export Plug-In . SVG Version: 6.00 Build 0)  -->
<svg version="1.1" id="Vrstva_1" xmlns="http://www.w3.org/2000/svg" xmlns:xlink="http://www.w3.org/1999/xlink" x="0px" y="0px"
	 viewBox="0 0 167.6 96.7" style="enable-background:new 0 0 167.6 96.7;" xml:space="preserve">
<style type="text/css">
	.st0{fill:#7C2219;}
</style>
<g>
	<g>
		<path class="st0" d="M167.6,25.6c-3.2,1.8-4.9,3.1-6.8,3.8c-23.3,7.8-46.6,15.8-70.1,23c-4.9,1.5-11.2,1.5-16.2-0.1
			C51.3,45.2,28.2,37.2,5,29.4c-1.9-0.6-3.4-2.4-5-3.7c1.7-1.4,3.3-3.4,5.3-4C28.4,14.7,51.6,7.5,75,1c4.9-1.4,10.8-1.4,15.7,0
			c23.3,6.5,46.5,13.7,69.7,20.7C162.4,22.3,164.3,23.8,167.6,25.6z"/>
		<path class="st0" d="M133.3,45.6c0,11.2,0.4,21.5-0.3,31.8c-0.2,2.8-3.2,6.1-5.8,7.9c-10.3,7-22.2,9.7-34.3,10.8
			c-16.5,1.6-32.6-0.4-48-7c-8.7-3.7-14.2-8.9-12.9-19.6c0.9-7.7,0.2-15.7,0.2-24.1c13.1,4.3,25.7,8.2,38.1,12.7
			c8.6,3.1,16.6,3.1,25.2-0.1C107.6,53.7,120.1,50,133.3,45.6z"/>
		<path class="st0" d="M156.3,38.7c0,3.3,0,6.4,0,9.5c-0.1,7.3-0.6,14.7,3.7,21.3c1,1.6,1.3,3.8,1.5,5.8c0.3,4.2-4.8,11.1-8.1,11.4
			c-3.2,0.3-8.6-6.5-8.5-10.9c0-1.6,0.1-3.5,0.9-4.8c4.9-8.1,4.2-17,3.9-25.7C149.5,40.9,150.9,38.6,156.3,38.7z"/>
	</g>
</g>
</svg>
