<?xml version="1.0" encoding="utf-8"?>
<!-- Generator: Adobe Illustrator 23.0.0, SVG Export Plug-In . SVG Version: 6.00 Build 0)  -->
<svg version="1.1" id="Vrstva_1" xmlns="http://www.w3.org/2000/svg" xmlns:xlink="http://www.w3.org/1999/xlink" x="0px" y="0px"
	 viewBox="0 0 183.11 177.35" style="enable-background:new 0 0 183.11 177.35;" xml:space="preserve">
<style type="text/css">
	.st0{fill:#5B8562;}
	.st1{fill:#C6C5C5;}
	.st2{fill:#FEFBF7;}
	.st3{fill:#582B1F;}
	.st4{fill:#9C5F34;}
	.st5{fill:#345F4D;}
</style>
<g>
	<g>
		<path class="st0" d="M174.36,63.17c-3.16,1.78-4.85,3.11-6.76,3.76c-23.32,7.82-46.59,15.81-70.1,23.05
			c-4.95,1.53-11.19,1.48-16.15-0.05c-23.33-7.2-46.44-15.12-69.58-22.94c-1.87-0.63-3.35-2.41-5.02-3.65
			c1.74-1.37,3.29-3.41,5.27-4.02c23.17-7.1,46.35-14.22,69.69-20.72c4.89-1.36,10.79-1.39,15.67-0.03
			c23.34,6.51,46.49,13.67,69.68,20.71C169.16,59.91,171.01,61.35,174.36,63.17z"/>
		<path class="st0" d="M140.03,83.21c0,11.24,0.42,21.53-0.27,31.75c-0.19,2.8-3.21,6.13-5.82,7.92
			c-10.25,7.02-22.15,9.66-34.26,10.84c-16.5,1.62-32.57-0.36-47.98-6.97c-8.73-3.74-14.19-8.89-12.93-19.56
			c0.92-7.74,0.18-15.67,0.18-24.05c13.11,4.33,25.71,8.19,38.09,12.69c8.56,3.11,16.63,3.06,25.17-0.07
			C114.4,91.31,126.84,87.55,140.03,83.21z"/>
		<path class="st0" d="M163.04,76.23c0,3.29,0.02,6.39,0,9.5c-0.06,7.33-0.61,14.69,3.74,21.32c1.04,1.59,1.31,3.84,1.47,5.82
			c0.34,4.19-4.75,11.12-8.13,11.4c-3.23,0.27-8.57-6.46-8.49-10.93c0.03-1.62,0.12-3.49,0.92-4.8c4.9-8.06,4.24-16.95,3.92-25.71
			C156.28,78.42,157.66,76.21,163.04,76.23z"/>
	</g>
</g>
</svg>
