<?xml version="1.0" encoding="utf-8"?>
<!-- Generator: Adobe Illustrator 23.0.0, SVG Export Plug-In . SVG Version: 6.00 Build 0)  -->
<svg version="1.1" id="Vrstva_1" xmlns="http://www.w3.org/2000/svg" xmlns:xlink="http://www.w3.org/1999/xlink" x="0px" y="0px"
	 viewBox="0 0 241.51 233.92" style="enable-background:new 0 0 241.51 233.92;" xml:space="preserve">
<style type="text/css">
	.st0{fill:#5B8562;}
	.st1{fill:#C6C5C5;}
	.st2{fill:#FEFBF7;}
	.st3{fill:#582B1F;}
	.st4{fill:#9C5F34;}
	.st5{fill:#345F4D;}
</style>
<path class="st0" d="M131.47,199.52c-44.4,0-80.52-36.12-80.52-80.52s36.12-80.52,80.52-80.52c44.4,0,80.52,36.12,80.52,80.52
	S175.87,199.52,131.47,199.52z M131.47,44.48c-41.09,0-74.52,33.43-74.52,74.52s33.43,74.52,74.52,74.52
	c41.09,0,74.52-33.43,74.52-74.52S172.56,44.48,131.47,44.48z"/>
<path class="st0" d="M72.11,166.77l-4.71-3.72c0.06-0.08,5.97-7.62,9.64-16.17c1.3-3.02,0.17-5.05-2.09-8.65
	c-2.26-3.6-5.07-8.07-3.92-14.59c1.31-7.45,6.99-10.96,11.55-13.78c3.14-1.94,5.85-3.62,6.65-6.02c1.07-3.21,0.48-6.94-1.53-9.74
	c-0.84-1.16-2.64-3.1-5.31-3.1c-7.89,0-18.7-8.09-19.91-9.02l3.64-4.77c2.84,2.16,11.29,7.78,16.27,7.78c3.9,0,7.61,2.04,10.18,5.6
	c3.12,4.33,4.03,10.14,2.36,15.15c-1.49,4.46-5.4,6.88-9.18,9.23c-4.09,2.53-7.95,4.92-8.8,9.73c-0.75,4.24,1.03,7.08,3.09,10.35
	c2.28,3.63,5.12,8.15,2.53,14.21C78.56,158.55,72.37,166.44,72.11,166.77z"/>
<path class="st0" d="M208.09,132.07c-0.19,0-0.37-0.02-0.55-0.04c-2.59-0.4-2.71-2.77-2.64-5.05c-3.08-3.4-18.01-9.6-28.29-12.17
	c-3.38-0.84-8.2-0.38-12.87,0.08c-5.18,0.5-10.53,1.02-14.91-0.08c-2.54-0.63-4.56-2.22-5.86-4.58c-3.24-5.91-1.2-15.47-0.13-18.66
	c0.9-2.69,4.02-6.26,8.68-11.39c1.69-1.86,4.01-4.42,4.4-5.16c1.9-3.81,7.09-2.18,19.7,2.21c3.04,1.06,7.18,2.5,8.21,2.6
	c2.79-0.03,5.43-3.52,6.14-4.74l2.63-4.54l13.4,23.7l5.93,18.25l-0.05,0.61c-0.39,4.42-0.75,9.27-0.91,12.36
	c0.45,1.07,0.55,2.14,0.31,3.24C210.67,131.4,209.3,132.07,208.09,132.07z M171.89,108.34c2.18,0,4.27,0.17,6.17,0.65
	c3.72,0.93,11.95,3.51,19.38,6.79c3.19,1.41,5.81,2.76,7.88,4.07c0.21-2.82,0.43-5.49,0.53-6.66l-5.37-16.51l-8.33-14.73
	c-1.96,1.95-4.81,3.89-8.35,3.89c-1.58,0-4.04-0.8-10.15-2.93c-3.79-1.32-10.52-3.66-13.13-3.97c-0.91,1.25-2.4,2.91-4.56,5.28
	c-2.57,2.83-6.87,7.56-7.43,9.25c-1.04,3.13-2.2,10.41-0.3,13.87c0.5,0.91,1.13,1.42,2.06,1.65c3.37,0.84,8.2,0.38,12.87-0.08
	C166.08,108.62,169.06,108.34,171.89,108.34z"/>
<path class="st0" d="M123.96,195.51c-0.37-3.86-0.99-16.54,6.49-17.47c2.28-0.29,5.2-0.33,8.58-0.39c4.62-0.08,9.85-0.16,14.59-0.89
	l4.24-0.66c7.8-1.22,12.69-1.96,14.95-1.96c2.01,0,7.87-0.49,9.96-0.68l0.54,5.98c-0.32,0.03-7.82,0.71-10.51,0.71
	c-1.91,0-7.79,0.92-14.03,1.89l-4.25,0.66c-5.15,0.79-10.6,0.88-15.41,0.96c-3.2,0.05-5.97,0.1-7.93,0.34
	c-1.06,0.72-1.72,6.15-1.26,10.95L123.96,195.51z"/>
<g>
	<path class="st0" d="M124.12,228.13c-1.85,0-3.74-0.04-5.67-0.14c-23.12-1.13-56.38-10.09-83.54-46.42l3.2-2.4
		c21.02,28.12,48.06,43.19,80.37,44.81c24.19,1.21,42.42-5.99,42.6-6.07l1.5,3.71C161.87,221.91,146.2,228.13,124.12,228.13z"/>
	<polygon class="st0" points="27.09,195.29 26.52,161.48 56.27,181.6 54.03,184.92 30.65,169.1 31.09,195.22 	"/>
</g>
<g>
	<path class="st0" d="M224.27,59.07c-19.61-29.12-45.87-45.51-78.07-48.72c-24.09-2.41-42.66,3.9-42.85,3.96l-1.31-3.78
		c0.78-0.27,19.45-6.63,44.39-4.18c23.04,2.26,55.82,12.86,81.15,50.48L224.27,59.07z"/>
	<polygon class="st0" points="234.97,77.31 206.25,55.74 208.65,52.55 231.23,69.49 232.08,43.38 236.08,43.51 	"/>
</g>
</svg>
